<?xml version="1.0" encoding="utf-8"?>
<!-- Generator: Adobe Illustrator 25.2.1, SVG Export Plug-In . SVG Version: 6.00 Build 0)  -->
<svg version="1.1" id="Logo" xmlns="http://www.w3.org/2000/svg" xmlns:xlink="http://www.w3.org/1999/xlink" x="0px" y="0px"
	 viewBox="0 0 841.89 595.28" style="enable-background:new 0 0 841.89 595.28;" xml:space="preserve">
<style type="text/css">
	.st0{fill:#EE3124;}
</style>
<path class="st0" d="M326.44,231.4c-7.53,1.4-14.1,8.42-14.68,15.66c-0.58,7.24,5.06,11.97,12.59,10.56
	c7.53-1.41,14.1-8.42,14.67-15.66C339.6,234.73,333.96,229.99,326.44,231.4z"/>
<path class="st0" d="M379.53,263.59c-3.12,0.58-6.73,1.24-20.71,17.6c3.44-6.32,4.54-11.49,0.34-14.32
	c-4.41-2.98-12.06-0.67-16.32,2.12c-2.64,1.72-2.71,2.58-3.16,5.86c-0.36,2.14-2.33,6.94-3.7,9.65l-4.26,9.06
	c-16.08,28.07-25.08,35.73-27.73,38.94c-2.74,2.96-4.99,4.7-6.55,4.99c-1.17,0.22-1.68-0.62-1.56-2.16
	c0.18-2.29,1.01-5.46,2.88-9.58c3.05-6.97,7.92-17.3,11.74-24.23c2.06-4.15,7.43-13.89,7.43-13.89c5.05-11.3-4.53-15.22-10.15-14.39
	c-1.64,0.24-19.28,2.27-39.48,5.73c11.05-46.17,10.12-39.29,21.6-68.88c5.6-14.45,4.98-17.76,0.25-23.21
	c-4.73-5.46-3.89-11.49-9.24-11.97c-12.49-1.13-55.72,61.28-90.49,121.95c-16.4,4.92-32.8,10.75-47.92,17.61
	c-10.05,4.56-8.1,12.94-7.21,17.21c1.25,6,7.78,8.65,12.94,5.74c7.84-4.43,16.84-8.62,26.47-12.54c-0.28,0.64-0.4,1-0.29,0.95
	c-13.19,24.82-28,59.46-32.83,74.84c-2.7,8.6,1.6,16.29,8.98,19.65c7.38,3.36,12.42-0.19,14.9-11.72
	c3.08-14.34,21.79-58.81,40.7-94.71c0.02-0.01,0.11-0.15,0.25-0.39c11.42-3.65,22.93-6.94,33.85-9.83c-6.68,28.3-8.38,40-8.29,49.73
	c0.09,9.58,3.6,20.74,14.07,19.22c10.47-1.52,8.76-11.35,9.92-20.48c2.66-20.87,3.07-29.92,8.01-53.82
	c0.12-0.03,0.26-0.28,0.42-0.69c11.63-2.74,21.55-4.84,28.5-6.25c-0.98,2.12-2.1,4.44-3.28,6.89c-4.59,9.33-9.54,20.81-12.7,29.12
	c-2.97,8.28-4.64,14.8-5.08,20.35c-0.97,12.24,4.21,18.81,13.39,17.09c6.83-1.28,17.34-10.53,29.14-28.95
	c-1.32,4.38-2.15,7.98-2.23,10.23c-0.36,9.54,4.36,17.4,19.77,6.97c1.54-1.04,1.75-2.59,1.79-5.61
	c0.82-10.32,4.98-23.98,14.17-37.94c7.2-10.76,12.28-16.87,18.85-19.72c11.67-5.05,19.08-3.46,25.62-11.36
	C398.66,270.78,385.39,262.49,379.53,263.59z M245.29,283.26c-8.15,1.65-16.76,3.54-25.61,5.69c15.26-27.2,32.14-54.45,47.87-75.85
	C259.72,232.31,251.85,258.09,245.29,283.26z"/>
<path class="st0" d="M700.76,294.22c-3.35,5.46-6.34,10.08-10.63,14.77c-3.89,4.25-6.98,5.92-8.67,5.31
	c-4.43-1.61-1.9-7.97,2.67-17.31c2.14-4.38,5.15-10.06,7.9-14.92c3.9-6.33,4.71-8.13,5-10.41c0.41-3.23-1.63-5.38-7.69-7.9
	c-3.85-1.71-4.19-2.04-5.75-6.49c-2.2-5.49-6.88-8.2-12.59-7.41c-8.69,1.2-22.29,11.74-34.33,26.62
	c-4.41,4.98-19.39,25.17-21.25,27.73l-2.33,3.12c-6.55,8.94-8.37,11.06-11.29,14.27c-2.87,2.83-5.21,4.46-6.78,4.68
	c-1.18,0.17-1.65-0.71-1.46-2.23c0.29-2.28,1.27-5.41,3.33-9.43c3.38-6.82,8.73-16.9,12.88-23.64c2.25-4.05,6.18-11.38,6.48-12.17
	l2.23-3.86c5.66-10.18-3-15.09-9.55-14.56c-2.57,0.21-6.84,2.07-8.97,3.67c-1.7,1.17-1.94,1.58-2.43,3.88
	c-0.56,2.88-4.44,11.33-8.49,18.8c-5.03,9.1-10.52,20.33-14.07,28.48c-3.36,8.12-5.34,14.57-6.04,20.08
	c-1.56,12.17,3.28,19,12.53,17.71c6.89-0.95,14.27-7.56,23.33-17.97c2.89-3.33,6.13-7.86,9.21-12.63
	c-1.65,13.57,5.09,22.92,16.64,21.32c7.68-1.06,14.16-6.73,22.49-15.92c1.11-1.09,1.55-1.52,2.14-1.6c0.59-0.08,1.11,0.41,1.16,1.52
	l0.42,1.25c1.14,6.2,5.8,9.1,12.49,8.17c8.26-1.14,17.35-7.3,27.27-19.88c8.03-9.89,11.23-17.14,12.91-21.63
	C711.44,290.47,704.2,288.61,700.76,294.22z M653.56,310.87c-5.82,7.72-11.27,12.58-14.42,13.02c-1.97,0.27-3.08-1.63-2.71-4.48
	c0.9-7.03,12.27-28.25,20.77-38.77c5.77-7.34,11.84-12.48,14.59-12.86c2.17-0.3,2.98,0.9,2.62,3.75
	C673.6,277.8,661.42,300.81,653.56,310.87z"/>
<path class="st0" d="M621.8,247.38c7.53-1.41,14.1-8.42,14.67-15.66c0.58-7.24-5.06-11.97-12.59-10.57
	c-7.53,1.4-14.1,8.42-14.67,15.66C608.63,244.06,614.27,248.79,621.8,247.38z"/>
<path class="st0" d="M511.37,278.56c-1.05,0.16-2.12,0.33-3.21,0.5c11.07-46.27,10.13-39.36,21.62-68.97
	c5.6-14.45,4.98-17.76,0.25-23.21c-4.73-5.46-3.89-11.49-9.24-11.97c-12.46-1.13-55.53,61-90.26,121.54
	c-16.33,4.91-32.74,10.84-47.78,17.95c-9.41,4.45-7.49,12.83-6.61,17.1c1.24,6,7.41,8.72,12.23,5.86
	c7.77-4.6,16.76-8.91,26.39-12.91c-0.42,0.91-26.42,52.46-33.31,76.21c-2.51,8.65,1.6,16.29,8.98,19.65
	c7.38,3.36,12.42-0.19,14.9-11.72c3.08-14.34,27.81-71.85,41.33-95.72c11.42-3.66,22.85-6.91,33.51-9.71
	c-0.02,0.21-8.29,33.34-8.33,50.24c-0.02,9.58,3.6,20.74,14.07,19.22c10.48-1.52,8.76-11.35,9.92-20.48
	c2.66-20.87,3.07-29.92,8.01-53.82c0.16-0.05,0.36-0.46,0.58-1.13c2.75-0.63,5.37-1.22,7.82-1.76c13.09-2.88,16.81-2.74,17.69-13.03
	C530.48,276.08,515.88,277.86,511.37,278.56z M507.45,213.11c-7.81,19.16-15.67,44.88-22.22,70.01c-8.01,1.56-16.57,3.38-25.46,5.49
	C474.99,261.53,491.79,234.41,507.45,213.11z"/>
<path class="st0" d="M527.97,362.5c-6.76,0.72-21.52-2.63-23.99-14.46c-0.87-3.83,4.69-14.1,5.85-15.89c2-3.06,5.1-1.25,6.16,0.3
	c2.32,3.41,14.76,14.56,21.97,7.35c4.62-4.62-2.55-10.71-5.55-15.65c-11.1-18.28,3.87-39.46,8.61-44.13
	c10.23-10.09,17.42-10.99,22.49-11.14c14.57-0.48,19.61,7.76,18.51,12.64c-1.2,5.34-4.06,8.49-6.02,10.6
	c-1.42,1.54-5.52,1.97-6.79,0.1c-3.1-4.55-4.92-10.62-13.9-6.99c-7.2,2.92-7.62,12.75-6.07,17.53c2.52,7.67,12.72,13.47,12.64,24.53
	C561.65,355.89,536.58,361.58,527.97,362.5z"/>
</svg>
