<?xml version="1.0" encoding="utf-8"?>
<!-- Generator: Adobe Illustrator 25.2.1, SVG Export Plug-In . SVG Version: 6.00 Build 0)  -->
<svg version="1.1" id="Layer_1" xmlns="http://www.w3.org/2000/svg" xmlns:xlink="http://www.w3.org/1999/xlink" x="0px" y="0px"
	 viewBox="0 0 792 792" style="enable-background:new 0 0 792 792;" xml:space="preserve">
<style type="text/css">
	.st0{fill:#CE2730;}
	.st1{fill:#E68036;}
</style>
<g>
	<path class="st0" d="M342.91,258.02h-37.94l-128.13,99.65c-25.76,18.21-48.42,35.83-65.04,40.05c-22.61,5.75-52,9.01-95.31,8.11
		c13.03,2.94,24.39,4.3,31.81,5.24c35.52,4.47,61,16.48,82.53,32.19c14.18,10.35,22.89,19.3,32.96,25.3
		c11.05,6.58,26.45,10.99,39.6,10.99c13.16,0,26.32-1.66,36.92-4.47c-11.5,0.51-26.45-0.38-37.31-2.68
		c-10.86-2.3-33.94-10.48-36.54-23.76c-2.49-12.71,29.35-22.45,41.91-24.27c32.58-4.73,60.3-3.45,70.4-2.68
		c-13.41-5.24-17.12-11.63-17.12-17.12c0-5.49,3.83-10.73,6.13-14.69L342.91,258.02z"/>
	<path class="st1" d="M251.56,305.86c10.22-9.7,39.38-34.38,44.18-38.14c-2.98,2.22-15.83,11.1-28.15,19.36l-53.35,41.49
		c-0.22,0.24-0.44,0.46-0.66,0.71l1.09,1.43C229.77,322.87,240.71,316.17,251.56,305.86z M312.91,298.39
		c0.24-0.09,0.43-0.16,0.56-0.21C313.34,298.23,313.15,298.3,312.91,298.39z M216.37,333.3l0.63,1.69
		c16.71-3.1,29.14-6.32,42.52-13.01c12.6-6.3,47.7-21.39,53.39-23.59c-5.74,2.05-42.18,13.54-55.84,17
		C242.57,319.06,231.06,324.73,216.37,333.3z M192.64,356.73c-9.23,14.27-15.42,25.52-19.76,39.84c-4.08,13.49-17.23,49.36-19.54,55
		c2.45-5.58,19.14-39.95,26.01-52.25c7.3-13.07,11.09-25.33,14.95-41.88L192.64,356.73z M153.34,451.57
		c-0.1,0.23-0.18,0.42-0.23,0.55C153.16,451.99,153.24,451.8,153.34,451.57z M203.3,358.19l-1.79,0.21
		c-0.96,16.97-0.78,29.8,2.53,44.4c1.13,4.96,2.67,13.02,4.21,21.59c0.04-0.01,0.09-0.01,0.13-0.02c1.17-0.17,2.33-0.33,3.49-0.48
		c-0.46-8.67-0.81-16.84-0.85-21.9C210.9,387.02,208.13,374.48,203.3,358.19z M104.69,413.88c-0.21,0.15-0.37,0.28-0.48,0.36
		C104.33,414.17,104.49,414.04,104.69,413.88z M186.85,352.33l-1.09-1.43c-0.2,0.11-0.4,0.21-0.6,0.31l-8.32,6.47
		c-12.76,9.02-24.75,17.88-35.63,25.06c-12.84,11.42-32.64,28.11-36.51,31.15c4.89-3.64,36.39-25.25,48.45-32.55
		C165.94,373.59,175.3,364.8,186.85,352.33z M295.75,267.72c0.21-0.15,0.37-0.28,0.48-0.36
		C296.11,267.44,295.95,267.57,295.75,267.72z M196.96,358.14c-5.27,16.16-8.38,28.61-8.91,43.57c-0.23,6.42-1.08,17.82-2.02,28.9
		c1.02-0.41,2.06-0.8,3.1-1.17c2.13-10.38,4.37-20.8,5.88-26.72c3.71-14.5,4.24-27.32,3.74-44.31L196.96,358.14z M216.73,347.04
		l-0.73,1.65c14.1,9.5,25.22,15.9,39.46,20.5c4.7,1.52,12.13,4.2,20.04,7.15l1.85-3.24c-7.59-3.99-14.69-7.8-19.02-10.33
		C245.4,355.23,233.21,351.21,216.73,347.04z M261.59,331.15c-14.96-0.16-27.54,2.38-43.93,6.9l0.17,1.79
		c16.95,1.28,29.78,1.34,44.44-1.7c8.27-1.72,25.16-4.42,38.67-6.46l0.98-1.71C288.09,330.6,270.27,331.24,261.59,331.15z
		 M214.59,351.05l-1.13,1.4c11.2,12.79,20.32,21.82,32.91,29.91c4.32,2.78,11.17,7.53,18.37,12.63c0.62-1.11,1.27-2.17,1.88-3.17
		c-6.36-5.83-12.28-11.37-15.83-14.93C240.21,366.3,229.46,359.3,214.59,351.05z M217.78,342.61l-0.29,1.78
		c16.06,5.57,28.45,8.92,43.39,9.72c5.86,0.32,15.87,1.24,25.99,2.27l1.62-2.85c-10.3-2.31-20.61-4.73-26.48-6.35
		C247.59,343.19,234.78,342.42,217.78,342.61z M211.49,354.39l-1.45,1.07c7.56,15.23,14.06,26.29,24.16,37.33
		c5.38,5.88,15.43,17.91,23.82,28.14c0.78,0,1.55,0.01,2.3,0.01c-7.4-11.29-16.32-25.17-20.46-32.31
		C232.36,375.69,223.75,366.17,211.49,354.39z M190.24,355.36l-1.42-1.11c-12.58,11.44-21.44,20.72-29.29,33.46
		c-7.4,11.99-29.28,43.31-32.96,48.17c3.8-4.77,28.72-33.72,38.51-43.86C175.47,381.26,182.27,370.38,190.24,355.36z M126.57,435.89
		c-0.16,0.2-0.29,0.36-0.37,0.47C126.29,436.25,126.41,436.09,126.57,435.89z M207.64,356.82l-1.68,0.66
		c3.41,16.65,6.87,29.01,13.81,42.27c2.59,4.95,6.63,13.42,10.71,22.18c1.15-0.09,2.28-0.17,3.4-0.24
		c-3.1-9.53-6.05-18.93-7.57-24.51C222.36,382.75,216.48,371.34,207.64,356.82z"/>
</g>
<path class="st0" d="M766.35,395.4l-16.62,30.25h-18.95l15.81-28.49c0,0,1.92-3.04-0.51-3.04c-2.43,0-4.56,0-6.48,0
	c-1.93,0-3.14,2.34-3.14,2.34l-15.3,28.03h-18.85l4.56-7.47c0,0,0.81-2.45-2.74-2.45c-3.55,0-33.44,0-39.22,0
	c-5.78,0-1.22-6.77-1.22-6.77l4.66-8.41c0,0,15.1,0,17.94,0c2.84,0,5.88-5.26,2.13-5.26c-3.75,0-11.45,0-11.45,0l2.44-3.52h94.49
	l0.04,4.8H766.35z M717.41,394.58c-2.03,0-5.37,0-6.99,0c-1.62,0-2.03,1.17-2.03,1.17l-3.14,5.49c0,0-0.91,1.99-2.73,1.99
	s-17.94,0-17.94,0l-2.03,3.74c0,0-2.13,3.62,1.62,3.62s26.14,0,26.14,0l7.6-13.31C717.92,397.26,719.44,394.58,717.41,394.58z
	 M670.59,393.98h-5.45l-3.97,7.12c0,0-0.74,1.7-3.68,1.7c-2.94,0-22.08,0-24.58,0c-2.5,0-3.75,4.24-0.37,4.24
	c3.39,0,15.16,0,20.46,0c5.3,0,2.87,4.24,2.87,4.24l-4.86,8.82c0,0-1.62,3.39-6.48,3.39c-4.86,0-31.35,0-37.24,0
	c-5.89,0-3.9-5.09-3.9-5.09l1.47-2.54h19.35c0,0-2.35,4.07,0.29,4.07c2.65,0,4.49,0,6.18,0c1.69,0,2.87-1.95,2.87-1.95l2.13-4.49
	c0,0,0.81-2.54-2.65-2.54c-3.46,0-16.04,0-20.16,0c-4.64,0-2.65-3.73-2.65-3.73l2.65-4.58c0,0,1.4-3.22,6.47-3.22
	c6.04,0,24.88,0,24.88,0l2.65-5.43h-38.86l-17.22,29.34h-19.58l18.25-29.51h-4.42l2.21-3.73h4.42l4.42-6.79c0,0,0.59-2.37,5.59-2.37
	s63.51,0,66.53,0c3.02,0,4.42,1.78,3.17,3.99c-1.25,2.21-3.17,5.68-3.17,5.68h4.56L670.59,393.98z M647.92,384.49
	c-3.24,0-30.76,0-32.89,0s-2.8,2.12-2.8,2.12l-1.84,3.56h38.27l1.4-3.14C650.05,387.03,651.16,384.49,647.92,384.49z M563.16,385.22
	l2.58-4.12h18.64l-1.83,4.12H563.16z M581.06,393.95h-4l-3.75,6.52c0,0-1.17,1.82-4,1.82c-2.83,0-24.14,0-25.63,0
	c-1.5,0-3.83,4.32-0.33,4.32s17.9,0,22.31,0c4.74,0,1.83,3.74,1.83,3.74l-6.66,10.74c0,0-1.66,2.59-4.58,2.59
	c-2.91,0-25.72,0-25.72,0l-2,4.12h-12.48l2.25-4.22c0,0-4.58-0.48-3.08-4.7c1.66-3.17,2.16-4.22,2.16-4.22h17.81l-0.5,2.3
	c0,0-1,2.69,1.42,2.69c2.41,0,4.08,0,5.74,0c1.67,0,3-1.92,3-1.92l2.41-3.93c0,0,1.25-3.17-2.25-3.17c-3.5,0-18.56,0-21.89,0
	c-3.33,0-2.17-3.26-2.17-3.26l3.33-6.14c0,0,1.42-2.78,5.41-2.78c2.08,0,26.38,0,26.38,0L558,395c0,0,0.17-0.87-1.58-0.87
	c-1.75,0-27.13,0-27.13,0l2.41-3.93h51.6L581.06,393.95z M501.16,409.39l2.83-4.89h7.08l-2.91,4.89H501.16z M494.66,393.95
	l-6.08,10.46c0,0-1.83,3.26-4.16,3.26c-2.33,0-5.24,0-5.24,0s1.5,2.4-0.08,4.51c-1.58,2.11-2.91,3.74-2.91,3.74s-2.5,3.5,2.16,3.5
	c4.66,0,8.36,0,8.36,0l-2.29,3.21c0,0-20.97,0-25.05,0c-4.08,0-3.25-5.37-1.83-7.1c1.41-1.73,1.2-1.63,2.91-4.41
	c2.25-3.64-2.33-4.03-2.33-4.03l1.75-2.69h10.4l6.58-10.36h-7.08l2.08-3.55h32.46l-2.16,3.45H494.66z M454.63,394.04l-16.65,28.29
	h-19.14l8.99-14.96h-7.82l2-3.64h7.66l6.49-9.4h-7.08l2.66-3.84h32.96l-2.58,3.55H454.63z M418.84,402.48c0,0-1.16,2.11-2.58,2.11
	c-1.41,0-2.25,0-2.25,0l-0.17,0.86c0,0,2.5,1.44,0.33,4.99c-2.16,3.55-5.41,8.35-5.41,8.35s-2.25,3.45-8.32,3.45s-31.63,0-35.62,0
	c-4,0-2.08-4.7-2.08-4.7l0.75-2.59h18.31c0,0-1.67,3.93,2.25,3.93c1.91,0,1.91,0,4.25,0c2.33,0,3.08-1.44,3.08-1.44l4.86-7.77
	c0,0,0.96-2.21-3.2-2.21c-4.16,0-9.49,0-9.49,0l2.08-3.92h14.15l4.66-6.63c0,0,2-3.45-2.5-3.45c-1.08,0-2.5,0-4.41,0
	c-1.91,0-3.2,2.54-3.2,2.54l-1.46,2.16h-19.06l3.24-4.89c0,0,1.08-2.88,4.58-2.88c3.5,0,34.37,0,39.62,0c5.24,0,2.83,4.12,2.83,4.12
	L418.84,402.48z M363.12,393.16l-9.47,15.55c0,0-2.01,3.79-7.75,3.79c-5.74,0-18.55,0-18.55,0l2.2-3.56c0,0,1.26,0,2.22,0
	c2.69,0,3.53-1.53,3.53-1.53l8.83-13.74h-10.6l-13.25,20.35c0,0-3.26,4.07,2.4,4.07c6.71,0,21.74,0,28.07,0
	c4.91,0,3.72,4.4,3.72,4.4l-0.73,3.23H333.1c0,0,1.29-3.56-2.65-3.56c-3.94,0-17.9,0-24.93,0c-8.95,0-4.65-7.12-4.65-7.12
	l13.97-21.88h-9.96l2.21-3.12h67.08l-2.04,3.12H363.12z"/>
<path class="st0" d="M306.03,447.06l-27.51,32.5h27.12l3.88-4.63h11.35l-1.64,4.63h24.96l9.12-32.5H306.03z M323.07,468.76h-8.37
	l14.52-17.32L323.07,468.76z M365.41,447.06l-16.94,32.5h27.12l16.68-32.5H365.41z M449.04,447.06c-9.05,0-23.75,0.01-23.75,0.01
	h-26.86l-16.94,32.5h27.12l5.51-10.85c1.75,0,2.47,1.54,2.47,1.54l5.25,9.1h24.69l-6.22-11.26c6.79,0,8.21-2.74,8.21-2.74l6.6-11.35
	C456.79,450.83,455.42,447.06,449.04,447.06z M428.63,458.32l-1.52,3.5c-0.67,1.33-1.6,1.85-4.15,1.85h-6.09l3.98-8.57l5.89-0.01
	C429.7,455.09,429.07,457.24,428.63,458.32z M492.86,447.06l-16.94,32.5h27.12l16.68-32.5H492.86z M566.61,447.06l-5.09,9.77
	l-7.1-9.77h-27.31l-16.94,32.5h20.95l6.53-12.72l8.29,12.72h24.68l16.68-32.5H566.61z M646.95,447.06c-9.05,0-23.75,0.01-23.75,0.01
	h-26.86l-16.94,32.5h53.42c6.79,0,8.21-2.74,8.21-2.74L653.02,454C654.7,450.83,653.33,447.06,646.95,447.06z M626.54,458.32
	l-6.44,11.16c-0.67,1.33-1.6,1.85-4.15,1.85h-6.1l8.9-16.23l5.89-0.01C627.61,455.09,626.98,457.24,626.54,458.32z M663.82,447.06
	l-16.94,32.5H674l16.68-32.5H663.82z M705.97,447.06l-27.51,32.5h27.12l3.88-4.63h11.35l-1.64,4.63h24.96l9.12-32.5H705.97z
	 M723,468.76h-8.37l14.52-17.32L723,468.76z"/>
</svg>
