<?xml version="1.0" encoding="utf-8"?>
<!-- Generator: Adobe Illustrator 25.2.1, SVG Export Plug-In . SVG Version: 6.00 Build 0)  -->
<svg version="1.1" id="Layer_1" xmlns="http://www.w3.org/2000/svg" xmlns:xlink="http://www.w3.org/1999/xlink" x="0px" y="0px"
	 viewBox="0 0 288 560" style="enable-background:new 0 0 288 560;" xml:space="preserve">
<style type="text/css">
	.st0{fill-rule:evenodd;clip-rule:evenodd;fill:#FFFFFF;}
	.st1{fill-rule:evenodd;clip-rule:evenodd;fill:#0A497E;}
	.st2{fill-rule:evenodd;clip-rule:evenodd;fill:#E92A34;}
</style>
<g>
	<polygon class="st0" points="47,184 239.76,184 239.76,376.76 47,376.76 47,184 	"/>
	<path class="st1" d="M69.18,287.93c0.71-0.35,0.88-1.06,0.88-1.77v-15.71c0-0.53-0.18-1.41-0.88-1.77h7.42
		c3.35,0,6.71,1.41,6.71,5.3c0,1.94-1.77,3.53-3.71,3.88c2.83,0,5.3,1.59,5.3,4.59c0,4.41-4.41,5.47-7.59,5.47H69.18L69.18,287.93z
		 M75.18,270.46c-0.35,0-0.53,0-1.24,0v6.71h0.88c2.3,0,4.41-0.71,4.41-3.35C79.24,271.16,77.48,270.46,75.18,270.46L75.18,270.46z
		 M75.71,278.93c-0.53,0-1.06,0-1.77,0v7.06c0.88,0.18,1.77,0.18,2.65,0.18c1.94,0,3.88-0.71,3.88-3.71
		C80.48,279.64,78.18,278.93,75.71,278.93L75.71,278.93z M92.31,270.46c-0.35,0-0.53,0-0.88,0v6.71c0.35,0,0.53,0,0.88,0
		c2.12,0,3.71-1.24,3.71-3.53C96.01,271.34,94.43,270.46,92.31,270.46L92.31,270.46z M102.02,288.11c-0.71,0-1.59,0-2.29-0.35
		c-1.24-0.35-3-3.18-3.71-4.41c-1.24-1.77-2.12-4.41-4.59-4.41v7.24c0,0.71,0.18,1.41,0.88,1.77h-5.83
		c0.71-0.35,0.88-1.06,0.88-1.77v-15.71c0-0.53-0.18-1.41-0.88-1.77h7.06c3,0,6.71,1.24,6.71,4.94c0,3-2.47,4.59-5.3,4.59
		c3.88,0,6.36,9.36,10.77,9.36C104.49,287.93,103.25,288.11,102.02,288.11L102.02,288.11z M105.9,287.93
		c0.53-0.18,1.06-0.88,1.06-1.77v-15.71c0-0.88-0.53-1.41-1.06-1.77h6c-0.53,0.35-1.06,0.88-1.06,1.77v15.71
		c0,0.88,0.53,1.59,1.06,1.77H105.9L105.9,287.93z M118.79,287.93c0.53-0.35,0.88-1.06,0.88-1.77v-15.18h-4.24
		c-1.06,0-2.12,0.18-3,0.53l1.41-2.82h13.95c1.06,0,2.29,0,3.35-0.18c-0.53,1.41-2.12,2.47-3,2.47c-1.06,0-3,0-4.59,0v15.18
		c0,0.71,0.35,1.41,1.06,1.77H118.79L118.79,287.93z M131.85,287.93c0.53-0.18,1.06-0.88,1.06-1.77v-15.71
		c0-0.88-0.53-1.41-1.06-1.77h6c-0.53,0.35-1.06,0.88-1.06,1.77v15.71c0,0.88,0.53,1.59,1.06,1.77H131.85L131.85,287.93z
		 M149.33,283.52c0-3.53-8.65-4.41-8.65-10.24c0-3.53,3.35-4.77,6.36-4.77c1.41,0,3.35,0.18,4.59,0.71l0.18,3.71
		c-0.71-1.59-2.65-2.82-4.41-2.82c-1.41,0-2.82,0.71-2.82,2.3c0,3.71,8.83,4.77,8.83,10.24c0,3.88-3.53,5.65-7.06,5.65
		c-1.94,0-4.41-0.35-6-1.41c0-0.71-0.18-1.41-0.18-1.94c0-0.88,0.18-1.59,0.35-2.47c0.88,2.3,2.82,4.06,5.47,4.06
		C147.74,286.52,149.33,285.64,149.33,283.52L149.33,283.52z M167.69,287.93c0.35-0.18,0.88-0.88,0.88-1.77v-7.06
		c-1.06-0.18-2.47-0.18-4.06-0.18c-1.76,0-3.18,0-4.24,0.18v7.06c0,0.88,0.53,1.59,0.88,1.77h-5.65c0.35-0.18,0.88-0.88,0.88-1.77
		v-15.71c0-0.88-0.53-1.41-0.88-1.77h5.65c-0.35,0.35-0.88,0.88-0.88,1.77v6.53c1.06,0,2.47,0.18,4.24,0.18c1.59,0,3-0.18,4.06-0.18
		v-6.53c0-0.88-0.53-1.41-0.88-1.77h5.65c-0.53,0.35-0.88,0.88-0.88,1.77v15.71c0,0.88,0.35,1.59,0.88,1.77H167.69L167.69,287.93z"
		/>
	<path class="st1" d="M76.59,312.83c0.18-0.18,0.35-0.35,0.35-0.71c0,0-0.18-0.35-0.18-0.71c0,0-1.59-4.24-1.77-4.77
		c-1.24,0-2.47,0-3.71,0c-1.06,0-2.29,0-3.35,0c-0.18,0.53-1.94,4.77-1.94,4.77c-0.18,0.53-0.35,0.71-0.35,0.88
		c0,0.35,0.35,0.35,0.53,0.53h-3.88c0.53-0.35,1.06-0.88,1.41-1.41L69.89,295c0.18,0,0.18-0.18,0.18-0.18
		c0-0.53-0.35-0.88-0.71-1.06h4.94l6.36,17.65c0.35,0.71,0.88,1.06,1.41,1.41H76.59L76.59,312.83z M71.47,297.29l-2.82,7.42
		c0.88,0.18,1.77,0.18,2.65,0.18c0.88,0,1.94,0,3-0.18L71.47,297.29L71.47,297.29z M82.95,312.83c0.53-0.18,1.06-0.88,1.06-1.77
		v-15.71c0-0.88-0.53-1.41-1.06-1.59h6c-0.53,0.18-1.06,0.71-1.06,1.59v15.71c0,0.88,0.53,1.59,1.06,1.77H82.95L82.95,312.83z
		 M97.78,295.35c-0.35,0-0.53,0-0.88,0v6.71c0.35,0,0.53,0,0.88,0c2.12,0,3.71-1.06,3.71-3.53
		C101.49,296.23,99.9,295.35,97.78,295.35L97.78,295.35z M108.02,313c-0.88,0-1.59,0-2.29-0.18c-1.24-0.53-3.18-3.35-3.88-4.59
		c-1.06-1.77-2.47-4.41-4.94-4.41v7.24c0,0.71,0.18,1.41,0.88,1.77h-5.83c0.71-0.35,0.88-1.06,0.88-1.77v-15.71
		c0-0.53-0.18-1.41-0.88-1.59h7.06c3,0,6.71,1.06,6.71,4.77c0,3-2.82,4.59-4.77,4.59c4.06,0.18,6.53,9.36,10.59,9.36
		C110.49,312.83,109.26,313,108.02,313L108.02,313z M131.85,295.53l-5.83,17.3c-0.53,0-1.06-0.18-1.24-0.35
		c-0.53-0.53-1.41-2.83-1.77-3.71l-2.65-6.71l-3.88,10.77h-1.77l-6.53-17.3c-0.18-0.71-0.71-1.41-1.41-1.77h5.65
		c-0.18,0.18-0.35,0.35-0.35,0.71c0,0.18,0,0.53,0.18,0.71l4.24,11.48l4.41-12.89l4.94,12.36l3.88-11.3c0-0.18,0.18-0.35,0.18-0.53
		c0-0.35-0.18-0.35-0.35-0.53h3.71C132.56,294.11,132.03,294.82,131.85,295.53L131.85,295.53z M138.74,297.29l-2.82,7.42
		c0.88,0.18,1.77,0.18,2.65,0.18c0.88,0,1.94,0,2.82-0.18L138.74,297.29L138.74,297.29z M143.68,312.83
		c0.35-0.18,0.35-0.35,0.35-0.71c0,0,0-0.35-0.18-0.71c0,0-1.41-4.24-1.77-4.77c-1.06,0-2.29,0-3.53,0c-1.06,0-2.3,0-3.35,0
		c-0.18,0.53-1.94,4.77-1.94,4.77c-0.18,0.53-0.35,0.71-0.35,0.88c0,0.35,0.35,0.35,0.53,0.53h-3.88c0.53-0.35,1.06-0.88,1.24-1.41
		l6.36-16.42l0.18-0.18c0-0.53-0.35-0.88-0.71-1.06h4.94l6.36,17.65c0.35,0.71,0.88,1.06,1.41,1.41H143.68L143.68,312.83z
		 M160.99,295.7l-4.41,7.95v7.41c0,0.71,0.18,1.41,0.71,1.77h-5.47c0.53-0.35,0.71-1.06,0.71-1.77v-7.41l-3.88-6.36
		c-0.35-0.53-1.94-3.35-4.06-3.35c0.53-0.18,2.3-0.53,3.35-0.53c1.94,0,2.83,0.18,3.88,1.94l3.71,5.83
		c0.35-0.53,3.18-5.65,3.18-5.65c0.35-0.53,0.53-1.06,0.53-1.24c0-0.18,0-0.35-0.35-0.53h4.06
		C162.22,294.11,161.51,295,160.99,295.7L160.99,295.7z M171.58,308.41c0-3.53-8.47-4.41-8.47-10.24c0-3.53,3.35-4.77,6.36-4.77
		c1.41,0,3.35,0.18,4.59,0.71l0.18,3.71c-0.71-1.59-2.65-2.82-4.41-2.82c-1.41,0-2.82,0.71-2.82,2.29c0,3.71,8.65,4.77,8.65,10.24
		c0,4.06-3.35,5.65-6.89,5.65c-1.94,0-4.41-0.35-6-1.41c0-0.71-0.18-1.24-0.18-1.94c0-0.88,0.18-1.59,0.18-2.3
		c1.06,2.12,3,3.88,5.47,3.88C170.17,311.41,171.58,310.53,171.58,308.41L171.58,308.41z"/>
	<path class="st1" d="M223.31,255.45c-3.35,3.18-10.42,6-13.77,7.24c-4.77,1.77-6.89,2.47-9.53,3.35c-3,0.88-9,2.82-9,2.82
		c12.36,3.71,21.19,4.77,21.19,4.77s4.06-1.24,10.59-4.77c3.53-1.77,5.12-2.82,6.36-4.06c0.53-0.35,1.77-1.59,1.94-3.18
		c0-0.18,0.18-0.35,0.18-0.71c0,0,0-0.18,0-0.35c-0.18-0.18-0.18-0.35-0.18-0.35s0-0.35-0.18-0.71c0-0.18-0.35-1.06-1.06-1.59
		c-0.53-0.35-1.24-1.24-3.88-2.12c-0.88-0.35-2.47-0.71-2.47-0.71L223.31,255.45L223.31,255.45z"/>
	<path class="st2" d="M231.25,260.75c0,0,0-0.35-0.18-0.53c0-0.35-0.18-0.53-0.35-0.88c-0.18-0.18-0.53-0.53-0.88-1.06
		c-0.35-0.18-0.71-0.53-1.06-0.88c-1.77-1.06-3.88-1.59-5.83-1.94c-3-0.35-6.53-0.35-6.89-0.35c-1.06,0-8.3,0-10.06,0.18
		c-8.12,0.18-18.18,0.18-20.83,0.18c-27.01,0-38.84-0.53-51.91-3.18c-11.12-2.12-17.3-4.24-17.3-4.24c9.89-0.35,67.27-2.82,77.68-3
		c6.89-0.18,11.65-0.35,15.54,0c2.12,0,3.88,0.18,6.18,0.71c2.12,0.35,4.06,0.88,5.12,1.24c2.29,0.88,4.41,2.12,5.3,3.53
		c0,0,0.35,0.18,0.71,0.71c0.35,0.71,0.88,1.41,1.06,1.59c1.41,2.29,2.12,3.53,2.3,4.06c0.35,0.53,0.53,1.06,0.71,1.59
		c0.35,0.35,0.35,0.71,0.35,0.88c0.18,0.53,0.18,1.06,0.35,1.24V260.75L231.25,260.75z"/>
</g>
</svg>
