<?xml version="1.0" encoding="utf-8"?>
<!-- Generator: Adobe Illustrator 25.2.1, SVG Export Plug-In . SVG Version: 6.00 Build 0)  -->
<svg version="1.1" id="Layer_1" xmlns="http://www.w3.org/2000/svg" xmlns:xlink="http://www.w3.org/1999/xlink" x="0px" y="0px"
	 viewBox="0 0 288 560" style="enable-background:new 0 0 288 560;" xml:space="preserve">
<style type="text/css">
	.st0{fill-rule:evenodd;clip-rule:evenodd;fill:#17479E;}
	.st1{fill-rule:evenodd;clip-rule:evenodd;fill:#FBFDFF;}
	.st2{fill-rule:evenodd;clip-rule:evenodd;fill:#FFFBF9;}
	.st3{fill-rule:evenodd;clip-rule:evenodd;fill:#FBFDFB;}
	.st4{fill:#FFFFFF;}
</style>
<g>
	<polygon class="st0" points="32.14,211.97 255.52,211.97 255.52,436.94 32.14,436.94 32.14,211.97 	"/>
	<path class="st1" d="M196.91,394.52c-0.29,4.1-1.13,6.97-3.64,10c-3.46,4.17-9,6.69-15.46,6.79c-9.44,0.14-17.78-6.23-19.8-15.88
		c-1.14-5.45-0.22-10.61,2.07-14.88c1.06-1.98,2.53-3.72,3.89-5.02c1.61-1.53,2.9-2.45,5.27-3.64c4.13-2.07,10.48-2.25,14.98-0.64
		c5.19,1.86,8.92,6.07,10.78,7.1l2.79-2.91c0.51-0.6,0.75-0.84,1.36-1.45c0.47-0.46,0.79-0.94,1.25-1.38
		c-0.85-1.07-2.17-2.15-3.3-3.14c-3.42-3.02-8.02-5.44-12.85-6.37c-7.94-1.53-15.35-0.21-21.21,3.38
		c-4.85,2.96-9.47,7.72-11.94,13.83c-2.69,6.65-2.54,15.07,0.28,21.59c4.53,10.48,17.37,20.17,33.55,16.13
		c3.32-0.83,6.55-2.28,8.95-4c10.22-7.31,11.5-14.4,11.47-27.08l-27.18,0.06l0,7.51L196.91,394.52L196.91,394.52z"/>
	<path class="st1" d="M123.45,363.59c0,10.05,0,20.1,0,30.15c0,4.92-0.05,9.2-2.36,12.79c-1.84,2.86-5.02,5.21-10.14,4.87
		c-13.96-0.92-14.45-22.95-0.54-24.44c3.22-0.34,6.23,0.73,8.93,2.13c0.63,0.33,1.89,1.25,2.32,1.3l0-8
		c-1.59-1.22-5.25-2.27-7.72-2.6c-16.2-2.13-25.69,13.81-19.29,28.06c6.91,15.39,31.44,14.97,35.86-3.94
		c0.73-3.1,0.63-6.38,0.63-9.71l0-30.81L123.45,363.59L123.45,363.59z"/>
	<path class="st1" d="M240.79,401.25c-0.75,6.3-6.15,11.2-13.52,10.06c-6.34-0.98-10.35-6.77-9.38-14.37
		C219.77,382.16,242.87,383.69,240.79,401.25L240.79,401.25z M209.92,401.25c0.58,6.11,3.49,10.21,6.63,12.82
		c3.65,3.03,8.27,5.19,14.73,4.6c2.86-0.26,5.47-1.06,7.59-2.28c2.05-1.18,4.16-2.75,5.38-4.31c1.46-1.86,2.66-3.38,3.62-6.22
		c1.67-4.96,1.34-11.65-1.29-16.19c-1.37-2.36-2.67-3.65-4.4-5.28c-1.33-1.26-3.92-2.86-6.19-3.65c-10.23-3.58-21.6,1.6-25.13,11.85
		C209.95,395.2,209.64,398.29,209.92,401.25L209.92,401.25z"/>
	<path class="st1" d="M63.48,417.96c0.21-6.48,0.02-13.31,0.01-19.84c0-3.46,0.08-5.65,2-7.96c2.57-3.09,6.76-4.38,10.51-2.25
		c0.93,0.53,2.09,1.58,2.64,2.36c1.89,2.67,1.88,4.19,1.88,8c0,6.53,0.08,13.11,0,19.68l7.66,0c-0.03-4.53,0-9.06,0-13.59
		c0-4.03,0.34-9.38-0.57-13.07c-3.81-15.38-27.11-15.84-31.13,0c-0.91,3.6-0.56,9.14-0.56,13.07c0,4.47-0.13,9.14,0.01,13.59
		L63.48,417.96L63.48,417.96z"/>
	<polygon class="st1" points="43.39,417.96 51.42,417.96 51.42,363.4 43.38,363.4 43.39,417.96 	"/>
	<path class="st1" d="M136.29,417.96l7.7-0.07l0.01-37.38c-0.79-0.25-6.7-0.21-7.7-0.05L136.29,417.96L136.29,417.96z"/>
	<path class="st2" d="M138.84,368.18c-5.15,1.2-4.01,10.18,2.6,8.71c2.17-0.48,3.78-2.81,3.11-5.5
		C144,369.22,141.75,367.5,138.84,368.18L138.84,368.18z"/>
	<path class="st2" d="M215.61,267.93c-3.31,1.2-1.59,6.13,1.77,4.94C220.43,271.79,219.02,266.69,215.61,267.93L215.61,267.93z"/>
	<path class="st2" d="M174.35,274.95c-3.1,1.02-1.72,6.15,1.78,4.94C179.13,278.86,177.92,273.79,174.35,274.95L174.35,274.95z"/>
	<path class="st2" d="M200.93,257c-3.11,1.13-1.49,6.09,1.89,4.89c1.06-0.37,2.08-1.75,1.56-3.3
		C203.96,257.35,202.65,256.38,200.93,257L200.93,257z"/>
	<path class="st2" d="M183.33,292.02c-3.64,0.97-2.02,5.96,1.25,5.08c1.22-0.33,2.25-1.54,1.86-3.22
		C186.15,292.67,184.82,291.62,183.33,292.02L183.33,292.02z"/>
	<path class="st2" d="M190.04,242.35c-3.38,1.04-1.81,6.04,1.62,4.97C194.76,246.35,193.41,241.31,190.04,242.35L190.04,242.35z"/>
	<path class="st2" d="M195.12,262.93c-3.3,1.07-1.84,5.96,1.54,5.01c1.21-0.34,2.19-1.75,1.73-3.35
		C198.04,263.35,196.59,262.45,195.12,262.93L195.12,262.93z"/>
	<path class="st2" d="M227.8,230.13c-3.22,1.24-1.38,6.08,1.89,4.9c1.11-0.4,2.04-1.81,1.56-3.3
		C230.86,230.5,229.46,229.5,227.8,230.13L227.8,230.13z"/>
	<path class="st3" d="M181.58,242.32c-3.3,0.94-1.97,5.99,1.51,5.02C186.12,246.5,185.12,241.31,181.58,242.32L181.58,242.32z"/>
	<path class="st2" d="M215.97,259.36c-3.58,0.8-2.3,5.87,1.13,5.1C220.33,263.74,219.3,258.62,215.97,259.36L215.97,259.36z"/>
	<path class="st2" d="M183.17,283.59c-3.44,1.04-1.8,6.08,1.61,4.96C187.88,287.52,186.5,282.58,183.17,283.59L183.17,283.59z"/>
	<path class="st3" d="M215.69,276.41c-3.53,1.18-1.56,6.07,1.73,4.93C220.41,280.31,219.03,275.29,215.69,276.41L215.69,276.41z"/>
	<path class="st2" d="M215.8,250.91c-3.5,1-1.87,5.98,1.39,5.04C220.42,255.02,219.15,249.95,215.8,250.91L215.8,250.91z"/>
	<path class="st2" d="M221.56,236.39c-3.27,1.29-1.35,6.14,1.88,4.89C226.44,240.13,224.96,235.05,221.56,236.39L221.56,236.39z"/>
	<path class="st2" d="M165.83,275c-3.35,1.34-1.33,6.04,1.86,4.88C170.76,278.77,169.2,273.65,165.83,275L165.83,275z"/>
	<path class="st2" d="M189.37,268.86c-3.43,0.7-2.34,5.93,1.16,5.12c1.24-0.29,2.23-1.57,1.93-3.14
		C192.22,269.61,190.87,268.55,189.37,268.86L189.37,268.86z"/>
	<path class="st2" d="M198.51,242.36c-3.57,1.24-1.54,6.1,1.7,4.92C203.33,246.15,201.7,241.26,198.51,242.36L198.51,242.36z"/>
	<path class="st2" d="M183.01,274.99c-3.41,1.32-1.34,6.08,1.84,4.87C187.86,278.72,186.38,273.69,183.01,274.99L183.01,274.99z"/>
	<path class="st2" d="M215.78,242.32c-3.38,1.02-1.93,6.01,1.51,5.01C220.25,246.47,219.23,241.28,215.78,242.32L215.78,242.32z"/>
	<path class="st2" d="M207.05,242.33c-3.32,0.9-2,6.01,1.5,5.01C211.51,246.48,210.55,241.37,207.05,242.33L207.05,242.33z"/>
	<path class="st2" d="M207.2,250.91c-3.4,0.96-1.92,5.93,1.39,5.05C211.62,255.15,210.69,249.93,207.2,250.91L207.2,250.91z"/>
	<path class="st4" d="M238.45,378.24v-5.43h-2.03v-0.72h4.88v0.72h-2.03v5.43H238.45L238.45,378.24z M242.11,378.24v-6.15h1.23
		l1.45,4.35c0.14,0.41,0.23,0.71,0.3,0.91c0.07-0.22,0.18-0.55,0.33-0.99l1.47-4.28h1.1v6.15h-0.78v-5.15l-1.79,5.15h-0.73
		l-1.78-5.24v5.24H242.11L242.11,378.24z"/>
</g>
</svg>
