<?xml version="1.0" encoding="utf-8"?>
<!-- Generator: Adobe Illustrator 25.2.1, SVG Export Plug-In . SVG Version: 6.00 Build 0)  -->
<svg version="1.1" id="Layer_1" xmlns="http://www.w3.org/2000/svg" xmlns:xlink="http://www.w3.org/1999/xlink" x="0px" y="0px"
	 viewBox="0 0 612 792" style="enable-background:new 0 0 612 792;" xml:space="preserve">
<style type="text/css">
	.st0{fill-rule:evenodd;clip-rule:evenodd;fill:#1564A9;}
	.st1{fill-rule:evenodd;clip-rule:evenodd;fill:#D3D7D8;}
	.st2{fill-rule:evenodd;clip-rule:evenodd;fill:#4AC6EC;}
	.st3{fill-rule:evenodd;clip-rule:evenodd;fill:#14B3D3;}
	.st4{fill-rule:evenodd;clip-rule:evenodd;fill:#CD1143;}
	.st5{fill-rule:evenodd;clip-rule:evenodd;fill:#333333;}
	.st6{fill-rule:evenodd;clip-rule:evenodd;fill:#FFFFFF;}
	.st7{fill-rule:evenodd;clip-rule:evenodd;fill:#29A7D9;}
	.st8{fill-rule:evenodd;clip-rule:evenodd;fill:#FCD475;}
	.st9{fill-rule:evenodd;clip-rule:evenodd;fill:#25A4D7;}
	.st10{fill-rule:evenodd;clip-rule:evenodd;fill:#F99525;}
	.st11{fill-rule:evenodd;clip-rule:evenodd;fill:#FA5015;}
	.st12{fill-rule:evenodd;clip-rule:evenodd;fill:#89181C;}
	.st13{fill-rule:evenodd;clip-rule:evenodd;fill:#FBD477;}
	.st14{fill-rule:evenodd;clip-rule:evenodd;fill:#8B1513;}
	.st15{fill-rule:evenodd;clip-rule:evenodd;fill:#EB5427;}
	.st16{fill-rule:evenodd;clip-rule:evenodd;fill:#3BA7E5;}
	.st17{fill-rule:evenodd;clip-rule:evenodd;fill:#CE2D4C;}
</style>
<g>
	<path class="st0" d="M228.15,424.05c-8.15,3.66-14.11,9.04-17.76,19.97c-0.35,2.25,7.22,5.92,9.6,4.02
		C227.51,438.58,230.3,431.42,228.15,424.05L228.15,424.05z"/>
	<path class="st1" d="M323.38,349.43c3.03,1.32,7.25,2.4,10.8,1.61c4.65-1.03,8.37-4.53,12.57-6.77c4.46-2.38,6.13-0.31,7.58,2.1
		c4.53-3.7,7.78-5.95,12.09-7.25c4.03-1.21,8.38-0.75,12.57-1.13c-1.5,1.02-2.65,2.2-4.37,2.78c-3.05,1.02-6.71,0.77-9.37,2.18
		c-5.04,2.67-12.55,13.07-19.21,19.24c-3,2.78-6.91,4.54-9.92,5.78C331.87,361.78,327.62,355.61,323.38,349.43L323.38,349.43z"/>
	<path class="st2" d="M287.01,251.31c-5.9-22.06-17.44-40.41-24.27-61.83c-0.98-3.37-5.57-3.64-4.49,1.25
		c4.78,13.26,10.44,26.08,17.05,38.43c-5.94-7.64-11.45-16.85-16.36-28.33c-1.48-3.47-1.99-8.91-4.28-11.05
		c-1.19,1.44-1.08,4.36-1.81,6.54c-2.97,0.3-5.17,0.78-5.92,1.58c0.48,3.24,3.44,7.74,6,11.3c5.54,7.7,12.68,14.45,14.75,20.33
		c-3.83-2.75-6.95-6.59-10.72-11.13c-2.23-2.69-5.07-5.61-7.18-8.85c-3.9-6-3.61-7.23-8.37-4.23c5.83,10.99,15.46,21.36,25.75,31.61
		c-8.64-6.73-17.46-14.31-27.59-28.23c-1.12,1.06-1.18,2.92-1.25,4.96c-3.25-0.21-5.35,0.32-6.63,1.59
		c2.12,10.82,23.49,21.33,35.8,32.88c-11.74-7.9-23.48-16.17-35.22-23.71c-1.2-0.39-6.01,4.42-4.98,6.62
		c3.05,5.57,15.19,12.07,22.78,18.1c-3.8-1.26-7.6-3.11-11.4-6.11c-3.18-2.51-7.8-5.31-10.72-5.74c-5.62,3.01-4.43,2.93-3.72,10.71
		c-1.16,1.08-2.83,1.83-3.25,3.33c-0.6,2.13,0.46,4.41,0.46,6.62c0,1.58,0.28,2.74-0.19,4.24c-0.69,2.23,4.65,4.64,12.92,6.01
		c7.78,1.28,18.2,1.64,27.02,0.39l1.87,1.82c-7.04,0.86-14.01,1.12-20.92,1.21c-9.73,0.12-16.53-3.55-20.68-1.58
		c-0.72,3.83,0.04,5.12,13,5.8c8.44-0.19,22.54-1.87,34.68-1.5l-1.65,2.92c-3.97,0.69-7.34-1.89-11.08-1.83
		c-4.38,0.07-8.6,1.83-12.97,2.21c-6.97,0.6-13.98,0.48-20.97,0.72c-3.17,4.13-2.98,8.26-0.22,12.39
		c-3.05,3.71-3.03,7.88,0.09,10.11c-1.35,3.71-1.7,7.87,0.91,9.35c-1.35,1.72-1.19,5.76,0.98,7.23c-1.17,1.75-1.15,5.74,0.64,6.96
		c-1.24,2.32-0.51,5.41,2.01,6.12c-1.11,4.62-0.62,7.52,1.74,8.43c-0.28,1.59-0.46,3.5-0.5,5.83c-0.02,0.94,0.58,5.53,3.56,0.76
		c8.26-13.23,29.75-26.79,32.9-26.21c-5.27,2.61-10.78,7.06-16.44,12.47c-5.03,4.81-9.6,10.38-15.31,16.09
		c-3.19,3.2-2.64,9.42,0.63,9.51c-1.04,4.76-0.06,7.38,2.86,7.94c-2.52,8.31,0.13,9.96,3.56,10.59c-0.21,6.62,2.07,10.11,8.04,8.82
		c-2.39,7.9-9.78,15.61-12.25,26.2c27.61-19.71,59.86-41.91,87.47-61.62c8-1.37,17.97-7.42,26.4-8.9c5.8-1.02,12.07,0.21,18.16-1.33
		c-5.44-2.52-10.67-1.87-16.38-4.1c-4.97,1.48-12.22,0.22-17.01,2.07c-5.77,2.22-9.68,6.86-15.36,10.01l-4.26-4.05
		c9-4.38,17.17-13.66,27.01-13.13l2.12-4.62c-1.62-1.61-4.42-3.02-9.74-3.89c5.26-11.02,8.31-10.06,14.68-20.26
		c4.47-7.17-0.85-4.19-2.39-3.37c3.56-7.57,8.7-13.8,13.16-20.44c2.63-3.92,7.29-11.11,6.89-12.52c-1.73-0.61-5.29,1.41-9.57,4.9
		c1.05-5.54,3.49-9.8,2.65-10.17c-0.71-0.31-6.38,1.64-12.11,9.13c0.86-5.63,0.53-8.44-1.3-7.69c-1.67,0.68-5.05,3.84-8.98,11.43
		c-0.16-9.49-2.63-11.3-9.71,2.19c-1.59-4.53-2.65-13.48-6.84,3.56c-3.55-6.75-5.37-6.91-7.39,3.49c-3.63-4.87-5.13-4.65-7.12,1.88
		c-4.37-6.35-7.67-2.61-10.9-1.78L287.01,251.31L287.01,251.31z"/>
	<path class="st3" d="M312,340.78c8.69-11.48,22.17-16.02,31.75-15.36c-0.52,1.71-1.41,3.41-2.42,5.12
		c-8.46,0.02-20.05,7.82-27.47,13.69C313.24,343.08,312.62,341.93,312,340.78L312,340.78z"/>
	<path class="st4" d="M341.8,329.58c-6.32,0.38-13.25,3.76-19.57,8.54c7.02,2.52,14.42,2.76,22.66-2.28
		C341.95,334.94,341.11,332.28,341.8,329.58L341.8,329.58z M347.84,327.2c2.17,0,3.93,1.68,3.93,3.75c0,2.07-1.76,3.75-3.93,3.75
		c-2.17,0-3.93-1.68-3.93-3.75C343.9,328.88,345.67,327.2,347.84,327.2L347.84,327.2z"/>
	<path class="st5" d="M345.34,323.08c8.72,1.24,11.24,3.08,16.24,5.94c2.23,1.28,4.46,1.96,6.7,2.45
		c-4.07,0.44-7.95,0.93-11.89,1.63c-1.26-1.81-1.75-4.57-3.46-6.21C351.08,325.11,347.94,324.51,345.34,323.08L345.34,323.08z
		 M351.11,334.97c8.26-1.37,16.23-2.16,24.22-1.92c6.52,0.19,11.88,0.93,15.78,2.12c2.39,0.73,5.37,2.07,5.48,2.66
		c-0.9,0.26-3.39,0.35-5.08,0.49c-3.73,0.32-7.46,0.75-11.2,0.89c-4.5,0.16-11.07,0.15-13.32,0.15c-0.83-0.77-4.34-1.72-7.96-2.24
		C354.94,336.53,352.22,335.85,351.11,334.97L351.11,334.97z M348.5,327.52c1.57,0,2.84,1.21,2.84,2.71c0,1.5-1.27,2.71-2.84,2.71
		c-1.57,0-2.84-1.21-2.84-2.71C345.66,328.73,346.93,327.52,348.5,327.52L348.5,327.52z"/>
	<path class="st6" d="M348.5,328.85c0.8,0,1.44,0.62,1.44,1.38c0,0.76-0.65,1.38-1.44,1.38c-0.8,0-1.44-0.62-1.44-1.38
		C347.05,329.46,347.7,328.85,348.5,328.85L348.5,328.85z"/>
	<path class="st7" d="M311.13,336.64c5.33-3.42,3.16-14.43,22.96-15.24c5.26-11.02,8.31-10.06,14.68-20.26
		c-1.17-1.81-9.66,5.72-14.15,7.18c0.06-6.9,9.47-16.97,16.2-19.32c2.8-4.32,5.9-7.46,8.72-11.67c2.63-3.92,7.29-11.11,6.89-12.52
		c-1.73-0.61-5.29,1.41-9.57,4.9c1.05-5.54,3.49-9.8,2.65-10.17c-0.71-0.31-6.38,1.64-12.11,9.13
		c-12.85,22.64-13.65,28.21-16.81,32.08c-2.97-5.67-0.12-25.92,3.42-29.82c0.66-0.73,1.87,0.07,3.11,1.47
		c-0.16-9.49-2.63-11.3-9.71,2.19c-1.59-4.53-2.65-13.48-6.84,3.56c-3.55-6.75-5.37-6.91-7.39,3.49c-3.63-4.87-5.13-4.65-7.12,1.88
		c-1.49-2.16-2.88-3.16-4.2-3.49C297.93,309.46,307,330.55,311.13,336.64L311.13,336.64z"/>
	<path class="st0" d="M311.52,337.28c2.81-1.53,7.43-9.95,12.56-12.77c3.09-1.7,6.4-2.55,10.68-2.67c1.53-3.61,3.77-7.22,6.05-10.82
		c-2.63,0.47-6.82,4.47-10.19,9.66c-1.44-2.79-2.04-6.03-2.3-9.42c-0.26-3.36,0.29-7.07-0.24-10.27c-1.94,5.6-2.65,11.83-1.86,19.42
		c-2.13-1.42-3.11-4.34-4.1-7.06c-1.63-4.49-1.8-10.47-3.6-14.58c-0.89,4.01-0.6,8.19,0.61,12.03c1.33,4.21,1.69,7.71,0.5,9.94
		c-1.22-6.24-3.92-11.55-5.14-17.79c-1.17-6.02-0.85-12.96-2.03-18.98c-3.94,9.97,2.21,25.34,1.43,35.97
		c-4.51-9.98-5.22-19.95-6.22-29.43c-3.03,9.23,0.12,24.7,6.22,39.14c-3.35-1.2-5.05-3.92-5.17-8.1c-0.09-3.4-3.57-9.09-5.96-9.64
		C302.78,311.91,311.2,337.44,311.52,337.28L311.52,337.28z"/>
	<path class="st8" d="M247.64,419.61c7.38-3.28,21.51-6.74,31.24-12.16c14.28-8.92,28.56-17.84,42.84-26.75
		c5.87-3.74,11.1-7.8,14.97-12.54c-0.31-2.74,0.9-6.53-0.37-8.98c-1.21-2.31-4.51-2.64-6.36-4.49c-1.23-1.23-2.28-2.57-3.55-3.74
		c-3.55-3.27-8.74-4.5-11.1-8.71c-5.14-9.17-9.29-21.28-11.16-31.51c-1.82-9.94-0.14-20.2-0.22-30.31
		c-1.21-5.36-2.87-11.08-5.51-16.09c-6.24-11.82-13.19-23.53-22.75-33.46c-5.07-5.26-9.51-5.63-4.16,7.99
		c-4.58-1.9-6.33-0.57-3.14,6.42c-8.09-3.29-6.47,0.44-1.5,6.61c-8.34-1.09-7.66,2.24-1.83,8.1c-8.34-1.47-8.45,1.57-1.51,7.31
		c-11.8-2.09-7.47,2.41-1.6,6.44c-5.99,1.42-0.41,5.51,5.88,6.48c-3.1,1.38-3.54,2.97,0.12,5.22c-9.74,3.57-4.88,5.38,3.73,6.73
		c-9.05,4.43-10.58,7.24-4.07,8.34c-7.86,4.86-5.79,6.68-0.03,7.37c-8.28,7.62-4.98,8.35-0.15,8.16c-9.81,5.79-7.39,7.27-0.8,6.39
		c-10.66,7.62-12.15,11.19-3.88,9.75c-7.22,5.82-8,8.85-2.45,9.12c-8.66,7.2-6.76,9.69,2.91,6.89c-13.58,13.63-8.16,13.48-1.2,8.96
		c-5.68,9.56-2.22,9.58,4.37,5.22c-5.8,8.75-0.62,6.82,3.73,3.74c-11.37,11.48-22.18,24.91-32.72,39.3l-6.5,16.27L247.64,419.61
		L247.64,419.61z"/>
	<path class="st9" d="M233.66,357.11c7.11-7.81,16.82-17.41,21.34-23.44c-2.91,0.81-9.05,6.25-12.77,10.51
		C239.33,347.49,235.54,351.32,233.66,357.11L233.66,357.11z"/>
	<path class="st9" d="M236.89,364.06c7.11-7.81,16.82-17.41,21.34-23.44c-2.91,0.81-9.05,6.25-12.77,10.51
		C242.57,354.45,238.77,358.27,236.89,364.06L236.89,364.06z"/>
	<path class="st9" d="M240.61,373.28c7.11-7.81,16.82-17.41,21.34-23.44c-2.91,0.81-9.05,6.25-12.77,10.51
		C246.28,363.66,242.49,367.49,240.61,373.28L240.61,373.28z"/>
	<path class="st9" d="M248.7,382.98c7.11-7.81,16.82-17.41,21.34-23.44c-2.91,0.81-9.05,6.25-12.77,10.51
		C254.37,373.36,250.57,377.19,248.7,382.98L248.7,382.98z"/>
	<path class="st9" d="M232.93,335.34c8.9-5.7,20.75-12.45,26.69-17.11c-3.02,0.03-10.36,3.68-15.06,6.84
		C240.9,327.53,236.24,330.24,232.93,335.34L232.93,335.34z"/>
	<path class="st9" d="M231.09,325.61c9.8-3.95,22.7-8.38,29.4-11.86c-2.97-0.53-10.87,1.7-16.07,3.92
		C240.37,319.41,235.29,321.2,231.09,325.61L231.09,325.61z"/>
	<path class="st9" d="M226.03,309.13c12.36-3.95,28.64-8.38,37.09-11.86c-3.75-0.53-13.71,1.7-20.27,3.92
		C237.74,302.93,231.33,304.73,226.03,309.13L226.03,309.13z"/>
	<path class="st9" d="M226.03,317.92c12.36-3.95,28.64-8.39,37.09-11.86c-3.75-0.53-13.71,1.7-20.27,3.92
		C237.74,311.72,231.33,313.52,226.03,317.92L226.03,317.92z"/>
	<path class="st9" d="M247.08,266.45c-8.09-2.63-18.45-6.51-24.27-7.89c1.79,1.72,7.94,4.34,12.28,5.67
		C238.47,265.27,242.57,266.77,247.08,266.45L247.08,266.45z"/>
	<path class="st9" d="M256.98,260.96c-10.44-4.58-23.8-10.94-31.31-13.73c2.31,2.15,10.25,6.26,15.85,8.63
		C245.88,257.71,251.16,260.19,256.98,260.96L256.98,260.96z"/>
	<path class="st9" d="M260.79,249.56c-9.47-6.35-21.49-14.98-28.4-19.05c1.89,2.53,8.98,7.97,14.08,11.29
		C250.44,244.4,255.2,247.78,260.79,249.56L260.79,249.56z"/>
	<path class="st9" d="M265.18,240.78c-8.81-8.49-20.01-19.84-26.43-25.47c1.76,2.95,8.36,10,13.1,14.48
		C255.55,233.28,259.98,237.73,265.18,240.78L265.18,240.78z"/>
	<path class="st9" d="M225.62,288.67c12.28-3.05,27.92-7.66,36.85-9.14c-2.53,2.28-11.76,5.48-18.37,6.99
		C238.95,287.71,232.75,289.49,225.62,288.67L225.62,288.67z"/>
	<path class="st9" d="M225.96,299.57c12.05-3.87,27.34-9.53,36.15-11.6c-2.37,2.44-11.37,6.26-17.86,8.22
		C239.19,297.71,233.13,299.9,225.96,299.57L225.96,299.57z"/>
	<path class="st10" d="M247.64,419.61c7.38-3.28,21.51-6.74,31.24-12.16c14.28-8.92,28.56-17.84,42.84-26.75
		c5.87-3.74,11.1-7.8,14.97-12.54c-0.31-2.74,0.9-6.53-0.37-8.98c-1.21-2.31-4.51-2.64-6.36-4.49c-1.23-1.23-2.28-2.57-3.55-3.74
		c-3.55-3.27-8.9-3.84-11.27-8.05c-6.13-7.02-13.09-20.45-14.96-30.69c-1.82-9.94,2.25-20.41,1.27-31.79
		c-0.47-5.48-4.19-11.41-3.2-16.09c-6.24-11.82-13.02-23.53-22.59-33.46c-5.07-5.26-9.51-5.63-4.16,7.99
		c-4.58-1.9-6.33-0.57-3.14,6.42c-8.09-3.29-6.47,0.44-1.5,6.61c-8.34-1.09-7.66,2.24-1.83,8.1c-8.34-1.47-8.45,1.57-1.51,7.31
		c-11.8-2.09-7.47,2.41-1.6,6.44c-5.99,1.42-0.41,5.51,5.88,6.48c-3.1,1.38-3.54,2.97,0.12,5.22c-9.74,3.57-4.88,5.38,3.73,6.73
		c-9.05,4.43-10.58,7.24-4.07,8.34c-7.86,4.86-5.79,6.68-0.03,7.37c-8.28,7.62-4.98,8.35-0.15,8.16c-9.81,5.79-7.39,7.27-0.8,6.39
		c-10.66,7.62-12.15,11.19-3.88,9.75c-7.22,5.82-8,8.85-2.45,9.12c-8.66,7.2-6.76,9.69,2.91,6.89c-13.58,13.63-8.16,13.48-1.2,8.96
		c-5.68,9.56-2.22,9.58,4.37,5.22c-5.8,8.75-0.62,6.82,3.73,3.74c-11.37,11.48-22.18,24.91-32.72,39.3l-6.5,16.27L247.64,419.61
		L247.64,419.61z"/>
	<path class="st11" d="M238.9,403.28c-1.74,2.6-3.47,5.21-5.21,7.81c-3.55,4.79-7.47,9.8-10.29,14.38
		c-2.68,4.35-4.84,11.57-4.46,14.76c0.98-0.24,2.16-1.44,3.47-3.35c5.47-9,12.88-14.35,21.33-17.73c-1.01-0.4-1.34-1.02-1.11-1.84
		c0.31-1.1,2.97-2.99,3.71-4.24c-4.76,2.36-9.99,5.2-12.65,5.46C232.94,417.17,238.32,409.73,238.9,403.28L238.9,403.28z"/>
	<path class="st12" d="M222.11,437c2.47-2.02,4.06-4.96,9.52-9.2c4.94-3.83,10.07-6.37,15.66-8.4c-3.04-1.32-5.24-0.16-7.4,0.32
		C236.87,420.39,222.04,432.15,222.11,437L222.11,437z"/>
	<path class="st13" d="M274.36,389.89c12.98-0.88,26.56-12.96,25.05-21.08c-0.34-1.84-5.75-1.12-6.57-3.35
		c-1.85-8.48,13.83-14.92,22.2-14.26c-0.7,1.9-1.59,3.76-1.36,5.7c0.33,2.81,3.11,5.11,2.98,7.94
		c-0.33,6.94-12.41,18.13-21.58,23.56C289.12,391.93,278.66,393.73,274.36,389.89L274.36,389.89z"/>
	<path class="st14" d="M263.45,406.88c14.57-2.49,24.46-7.51,34.09-13.28c11.32-6.78,19.93-13.66,27.91-25.04
		c-1.12,12.4-11.1,22.4-21.21,28.65C292.36,404.55,273.08,409.98,263.45,406.88L263.45,406.88z"/>
	<path class="st15" d="M310.48,341.89c-1.44-2.8-4.38-6.91-5.41-10.81c-1.54-5.82-6.26-13-8.08-13.7c-1.82-0.69-6.41,0.02-9.44-0.59
		c-3.19-0.64-5.89-3.52-9.11-3.01c-4.62,0.73-8.15,4.07-12.23,6.36c1.83,0.22,3.65,0.45,5.48,0.67c-2.92,2.79-5.85,5.58-8.77,8.37
		c1.74,0.22,3.48,0.45,5.23,0.67c-1.83,2.04-3.65,4.07-5.48,6.11c1.18,0.75,2.36,1.51,3.54,2.26c-1.83,1.76-3.65,3.51-5.48,5.27
		c2.47,0.06,4.95,0.11,7.42,0.17c-2.64,3.6-5.28,7.19-7.93,10.79c2.47-0.95,4.95-1.9,7.42-2.84c-0.93,2.17-1.85,4.35-2.78,6.53
		c2.44-0.81,4.89-1.62,7.34-2.43c-0.98,1.7-1.97,3.4-2.95,5.1c1.15-0.39,2.3-0.78,3.46-1.17c-0.03,1.42-0.06,2.84-0.08,4.27
		c2.79-3.77,7.24-6.91,13.57-9.71c5.74-2.54,11.35-5.35,14.76-8.03c-1.19-0.54-5.07,0.26-9.86,1.51
		C294.7,345.53,300.8,343.58,310.48,341.89L310.48,341.89z M295.57,267.68c-7.64-4-14.11-17.5-19.6-24.31
		C283.46,250.26,292.12,257.68,295.57,267.68L295.57,267.68z M294.67,272.3c-8.61,0.07-20.07-8.81-27.88-12.23
		C276.47,262.61,287.42,265.08,294.67,272.3L294.67,272.3z M294.42,277.53c-8.22,2.63-22.37-2.23-31.08-3.1
		C273.52,273.93,284.88,272.97,294.42,277.53L294.42,277.53z M296.55,284.38c-6.83,2.25-19.02-0.23-26.42-0.32
		C278.71,283.13,288.28,281.84,296.55,284.38L296.55,284.38z M296.33,294.48c-4.89,1.66-12.82-1.81-17.81-2.52
		C284.42,291.76,291.05,291.27,296.33,294.48L296.33,294.48z M291.54,302.1c-4.86,1.74-12.85-1.61-17.85-2.24
		C279.59,299.57,286.21,298.98,291.54,302.1L291.54,302.1z M296,311.09c-6.09,1.76-16.43-1.58-22.82-2.2
		C280.67,308.58,289.05,307.97,296,311.09L296,311.09z M269.42,252.91c5.59,1.4,6.87,2.08,9.92,5.28
		C275.68,257.72,271.87,255.66,269.42,252.91L269.42,252.91z M265.86,267.91c5.74,0.5,7.11,0.97,10.63,3.64
		C272.8,271.67,268.71,270.24,265.86,267.91L265.86,267.91z"/>
	<path class="st16" d="M218.61,498.75h27.32v1.86c-2.81,0.67-4.72,2.75-4.72,5.01v42.49c-2.93-1-5.85-1.12-8.79-1
		c-5.52,0.23-10.93,2.06-16.46,2.06c-17.32,0.02-26.63-18.35-27.55-40.82c-0.99-24.26,15.41-44.23,33.13-44.23
		c5.14,0,10.09,0.77,12.51,0.76c1.67,0,3.33-0.4,3.85-1.74h2.84c-0.65,6.85-0.95,13.71,0.46,20.35c1.02,4.79-1.75,1.12-2.18,0
		c-2.02-5.25-8.85-11.97-16.55-12.01c-9.88-0.04-20.06,16.18-19.94,35.91c0.1,17.3,4.56,34.21,17.1,34.73
		c5.28,0.22,8.27-3.18,8.27-6.46v-26.18c0-4.28-3.05-8.06-9.3-8.87V498.75L218.61,498.75z M249.2,545.48
		c3.6-1.05,6.61-3.73,6.61-6.92v-64.89c0-3.28-4.37-6.41-7.12-6.81v-1.68h7.12h14.48h28.14v1.68c0.21,5.35,0.94,10.95,1.82,16.62
		h-1.46c-4.37-7.37-16.68-13.41-28.49-9.81v25.52c0.25,0.08,0.52,0.12,0.77,0.1c1.6-0.17,5.78-5.38,11.75-5.5
		c4.62-0.09,7.26,2.3,11,2.19c2.09-0.06,3.81-1.33,5.62-2.69c-0.39,5.99-4.61,12.87-8.81,13.12c-5.09,0.3-9.53-2.44-15.12-2.37
		c-1.84,0.02-3.94,1.11-5.21,2.47v32.27c0,3.3,3.42,5.95,7.29,6.7v1.62H249.2V545.48L249.2,545.48z M300.45,545.48
		c3.73-1.01,7.23-3.64,7.23-6.99v-64.78c0-3.31-3.27-6.13-7.12-6.91v-1.62h7.12h14.46h6.47v1.62c-2.57,0.78-6.47,3.76-6.47,6.91
		v64.94c0,3.11,3.38,5.83,6.36,6.83v1.62h-6.36h-14.46h-7.23V545.48L300.45,545.48z M493.06,556.19c4.37-1.01,8.48-3.64,8.48-6.99
		v-86.94c0-3.31-3.83-6.13-8.36-6.91v-1.93h23.53h9.37h2.75c16.83,0,25.69,8.4,26.01,20.13c0.36,12.98-10.52,21.52-23.89,28.86
		l0.24,0.01c16.31,4.6,25.2,18.08,30.25,36.24c3.75,13.48,13,29.04,27.48,31.73c-28.75,11.06-40.29-7.69-46.87-31.73
		c-5.96-21.78-12.59-32.03-22.73-30.29l-0.84,0.41v40.59c0,3.11,3.96,5.83,7.46,6.83v1.62h-7.46h-16.96h-8.48V556.19L493.06,556.19z
		 M518.86,460.67c-0.24,0.52-0.37,1.05-0.37,1.59v36.99l0.13-0.03C541.9,490.56,549.67,461.18,518.86,460.67L518.86,460.67z
		 M446.54,545.48c3.73-1.01,7.23-3.64,7.23-6.99v-64.78c0-3.31-3.27-6.13-7.12-6.91v-1.62h7.12h14.46l19.68,0.02
		c1.3,0,3.13-0.02,3.82-1.36h1.57c0.54,5.68,1.13,11.83,3.08,17.05l-1.76-0.02c-7.88-9.04-20.75-10.2-26.39-7.16v25.5
		c2.92-3.48,6.35-6.44,10.52-6.59c3.16-0.12,6.96,2.34,10.55,2.21c2.25-0.09,4.09-1.89,6.14-2.84c-1.36,4.61-4.01,12.18-9.61,12.92
		c-4.39,0.58-8.93-2.73-13.55-2.83c-1.42-0.03-2.76,0.44-4.06,1.06v34.94c10.49,2.65,19.94,1.35,28.32-6.66
		c-1.4,5.49-2.68,10.98-3.6,16.47h-1.57c-1.27-0.78-2.52-0.78-3.82-0.78h-12.96h-6.34h-0.02h-14.46h-7.23V545.48L446.54,545.48z
		 M379.67,545.48c3.73-1.01,7.23-3.64,7.23-6.99v-64.78c0-3.31-3.27-6.13-7.12-6.91v-1.62h7.12h14.46h6.47v1.62
		c-2.57,0.78-6.47,3.76-6.47,6.91v23.3c3.51-3.68,7.57-5.18,10.83-5.43c3.87-0.3,7.11,3.63,10.99,3.86c0.24,0.01,0.47,0.01,0.7,0
		v-21.73c0-3.31-3.27-6.13-7.12-6.91v-1.62h7.12h14.46h6.47v1.62c-2.57,0.78-6.47,3.76-6.47,6.91v64.94c0,3.11,3.38,5.83,6.36,6.83
		v1.62h-6.36h-14.46h-7.23v-1.62c3.73-1.01,7.23-3.64,7.23-6.99v-37.07c-2.34,2.23-5.18,3.74-8.42,3.82
		c-3.95,0.11-7.73-2.82-11.58-2.52c-0.91,0.07-1.74,0.32-2.52,0.7v35.23c0,3.11,3.38,5.83,6.36,6.83v1.62h-6.36H386.9h-7.23V545.48
		L379.67,545.48z M164.97,465.18h23.66v1.62c-3.57,0.84-7.01,3.47-7.01,6.71v65.25c0,3.24,3.7,5.54,7.08,6.74v1.6h-22.42v-1.6
		c4.07-1.08,6.42-3.7,6.42-6.81v-13.17l-27.61-39.76l-0.31-0.84v53.84c0,3.24,3.7,5.54,7.08,6.74v1.6h-22.42v-1.6
		c4.07-1.08,6.42-3.7,6.42-6.81v-59.62c0-5.52-4.79-10.52-9.91-12.26v-1.62h23.36l23.39,32.87v-24.51c0-3.42-3.65-5.89-7.72-6.74
		V465.18L164.97,465.18z M95.16,545.48c3.73-1.01,7.23-3.64,7.23-6.99v-64.78c0-3.31-3.27-6.13-7.12-6.91v-1.62h7.12h14.46h6.47
		v1.62c-2.57,0.78-6.47,3.76-6.47,6.91v64.94c0,3.11,3.38,5.83,6.36,6.83v1.62h-6.36h-14.46h-7.23V545.48L95.16,545.48z
		 M73.85,453.09h29.8v2.23h-1.58c-5.57,2.41-10.42,5.84-14.28,10.74l-25.34,32.09c18.72,4.82,25.8,29.51,27.2,35.47
		c4.55,19.45,13.96,33.02,27.15,36.8c-4.65,2.03-9.21,3.02-15.28,2.97c-19.16-0.15-24.69-19.6-30.27-35.02
		c-3.94-10.88-5.77-31.51-14.62-31.11c-1.5,0.07-3.58,1.04-4.33,1.97v39.89c0,1.82,2.42,6.69,7.12,6.78v2.23H27.15v-2.23
		c4.85-0.17,8.79-4.17,8.79-6.7v-86.32c0-2.96-3.17-7.71-8.68-7.54v-2.23h32.38v2.23c-4.54,0.12-7.33,5.28-7.33,7.54l0.06,34.27
		l23.81-30.57c2.84-3.64,1.85-7.5-1.38-11.25h-0.93V453.09L73.85,453.09z M370.38,463.13h2.36c0.1,6.62,0.09,13.52,1.26,20.35
		c0.67,3.93-1.89,0.91-2.36,0c-3.69-7.07-9.15-11.97-17.64-11.97c-4.45,0-9.79,3.82-10.01,9.39c-0.3,7.62,10.17,14.19,18.36,19.59
		c13.18,8.68,16.88,12.46,17.53,24.4c0.84,15.53-10.2,23.41-25.14,23.95c-5.45,0.2-11.56-1.74-16.33-1.74c-1.06,0-1.94,0-2.84,0.69
		h-2.68c0.47-8.66,0.09-16.65-0.42-24.99h2.63c2.33,11.37,8.95,18.68,19.85,18.48c8.42-1.17,12.62-4.86,12.76-11.5
		c0.2-9.99-11.94-15.85-19.53-20.79c-5.29-3.45-16.02-7.85-16.22-25.52c-0.12-10.23,8.92-19.36,22.9-19.56
		c4.79-0.07,10.96,2.43,12.7,2.39C369.08,466.28,369.73,465.18,370.38,463.13L370.38,463.13z"/>
	<path class="st17" d="M213.47,494.79h27.32v1.86c-2.81,0.67-4.72,2.75-4.72,5.01v42.49c-2.93-1-5.85-1.12-8.79-1
		c-5.52,0.23-10.93,2.06-16.46,2.06c-17.33,0.02-26.63-18.35-27.55-40.82c-0.99-24.26,15.41-44.23,33.13-44.23
		c5.14,0,10.09,0.77,12.51,0.76c1.67,0,3.33-0.4,3.85-1.74h2.84c-0.65,6.85-0.95,13.71,0.46,20.35c1.02,4.79-1.75,1.12-2.18,0
		c-2.02-5.25-8.85-11.97-16.55-12c-9.88-0.04-20.06,16.18-19.94,35.91c0.1,17.3,4.56,34.21,17.1,34.73
		c5.28,0.22,8.27-3.18,8.27-6.46v-26.18c0-4.28-3.05-8.06-9.3-8.87V494.79L213.47,494.79z M244.05,541.52
		c3.6-1.05,6.61-3.73,6.61-6.92v-64.89c0-3.28-4.37-6.41-7.12-6.81v-1.68h7.12h14.48h28.14v1.68c0.21,5.35,0.94,10.95,1.82,16.62
		h-1.46c-4.37-7.37-16.68-13.41-28.49-9.81v25.52c0.25,0.08,0.52,0.12,0.77,0.1c1.6-0.17,5.78-5.38,11.75-5.5
		c4.62-0.09,7.26,2.3,11,2.19c2.09-0.06,3.81-1.33,5.62-2.69c-0.39,5.99-4.61,12.87-8.81,13.12c-5.09,0.3-9.53-2.44-15.12-2.37
		c-1.84,0.02-3.94,1.11-5.21,2.47v32.27c0,3.3,3.42,5.95,7.29,6.7v1.62h-28.38V541.52L244.05,541.52z M295.3,541.52
		c3.73-1.01,7.23-3.64,7.23-6.99v-64.78c0-3.31-3.27-6.13-7.12-6.91v-1.62h7.12h14.46h6.47v1.62c-2.57,0.78-6.47,3.76-6.47,6.91
		v64.94c0,3.11,3.38,5.83,6.36,6.83v1.62h-6.36h-14.46h-7.23V541.52L295.3,541.52z M487.91,552.23c4.37-1.01,8.48-3.64,8.48-6.99
		V458.3c0-3.31-3.83-6.13-8.36-6.91v-1.93h23.53h9.37h2.75c16.83,0,25.69,8.4,26.01,20.13c0.36,12.98-10.52,21.52-23.89,28.86
		l0.24,0.01c16.31,4.6,25.2,18.08,30.25,36.23c3.75,13.48,13,29.04,27.48,31.73c-28.75,11.06-40.29-7.69-46.87-31.73
		c-5.96-21.78-12.59-32.03-22.73-30.29l-0.84,0.41v40.59c0,3.11,3.96,5.83,7.46,6.83v1.62h-7.46h-16.96h-8.48V552.23L487.91,552.23z
		 M513.71,456.72c-0.24,0.52-0.37,1.05-0.37,1.59v36.99l0.13-0.03C536.75,486.6,544.52,457.22,513.71,456.72L513.71,456.72z
		 M441.39,541.52c3.73-1.01,7.23-3.64,7.23-6.99v-64.78c0-3.31-3.27-6.13-7.12-6.91v-1.62h7.12h14.46l19.68,0.02
		c1.3,0,3.13-0.02,3.82-1.36h1.57c0.54,5.68,1.13,11.83,3.08,17.05l-1.76-0.02c-7.88-9.04-20.75-10.2-26.39-7.16v25.5
		c2.92-3.48,6.35-6.44,10.52-6.59c3.16-0.12,6.96,2.34,10.55,2.21c2.25-0.09,4.09-1.89,6.14-2.84c-1.36,4.61-4.01,12.18-9.61,12.92
		c-4.39,0.58-8.93-2.73-13.55-2.84c-1.42-0.03-2.76,0.44-4.06,1.06v34.94c10.49,2.65,19.94,1.35,28.32-6.66
		c-1.4,5.49-2.68,10.98-3.6,16.47h-1.57c-1.27-0.78-2.52-0.78-3.82-0.78h-12.96h-6.34h-0.02h-14.46h-7.23V541.52L441.39,541.52z
		 M374.52,541.52c3.73-1.01,7.23-3.64,7.23-6.99v-64.78c0-3.31-3.27-6.13-7.12-6.91v-1.62h7.12h14.46h6.47v1.62
		c-2.57,0.78-6.47,3.76-6.47,6.91v23.3c3.51-3.68,7.57-5.18,10.83-5.43c3.87-0.3,7.11,3.63,10.99,3.86c0.24,0.01,0.47,0.01,0.7,0
		v-21.73c0-3.31-3.27-6.13-7.12-6.91v-1.62h7.12h14.46h6.47v1.62c-2.57,0.78-6.47,3.76-6.47,6.91v64.94c0,3.11,3.38,5.83,6.36,6.83
		v1.62h-6.36h-14.46h-7.23v-1.62c3.73-1.01,7.23-3.64,7.23-6.99v-37.07c-2.34,2.23-5.18,3.74-8.42,3.83
		c-3.95,0.11-7.73-2.82-11.58-2.53c-0.91,0.07-1.74,0.32-2.52,0.7v35.23c0,3.11,3.38,5.83,6.36,6.83v1.62h-6.36h-14.46h-7.23V541.52
		L374.52,541.52z M159.83,461.22h23.66v1.62c-3.57,0.84-7.01,3.47-7.01,6.71v65.25c0,3.24,3.7,5.54,7.08,6.74v1.6h-22.42v-1.6
		c4.07-1.08,6.42-3.7,6.42-6.81v-13.17l-27.61-39.76l-0.31-0.84v53.84c0,3.24,3.7,5.54,7.08,6.74v1.6h-22.42v-1.6
		c4.07-1.08,6.42-3.7,6.42-6.81v-59.62c0-5.52-4.78-10.52-9.9-12.26v-1.62h23.36l23.39,32.87v-24.51c0-3.42-3.65-5.89-7.72-6.74
		V461.22L159.83,461.22z M90.01,541.52c3.73-1.01,7.23-3.64,7.23-6.99v-64.78c0-3.31-3.27-6.13-7.12-6.91v-1.62h7.12h14.46h6.47
		v1.62c-2.57,0.78-6.47,3.76-6.47,6.91v64.94c0,3.11,3.38,5.83,6.36,6.83v1.62h-6.36H97.24h-7.23V541.52L90.01,541.52z
		 M68.71,449.13h29.8v2.23h-1.58c-5.57,2.41-10.42,5.84-14.28,10.74L57.3,494.19c18.72,4.82,25.8,29.51,27.2,35.47
		c4.55,19.45,13.96,33.02,27.15,36.8c-4.65,2.03-9.21,3.02-15.28,2.97c-19.16-0.15-24.69-19.6-30.27-35.02
		c-3.94-10.88-5.77-31.51-14.62-31.11c-1.5,0.07-3.58,1.04-4.33,1.97v39.89c0,1.82,2.42,6.69,7.12,6.78v2.23H22v-2.23
		c4.85-0.17,8.79-4.17,8.79-6.7V458.9c0-2.96-3.17-7.71-8.68-7.54v-2.23h32.38v2.23c-4.54,0.12-7.33,5.28-7.33,7.54l0.06,34.27
		l23.81-30.57c2.84-3.64,1.85-7.49-1.38-11.25h-0.93V449.13L68.71,449.13z M365.23,459.17h2.36c0.1,6.62,0.09,13.52,1.26,20.35
		c0.67,3.93-1.89,0.91-2.36,0c-3.69-7.07-9.15-11.97-17.64-11.97c-4.45,0-9.79,3.82-10.01,9.39c-0.3,7.62,10.17,14.19,18.36,19.59
		c13.18,8.68,16.88,12.46,17.53,24.4c0.84,15.53-10.2,23.41-25.14,23.95c-5.45,0.19-11.56-1.74-16.33-1.74c-1.06,0-1.94,0-2.83,0.69
		h-2.68c0.47-8.66,0.09-16.65-0.42-24.99h2.63c2.33,11.37,8.95,18.68,19.85,18.48c8.42-1.17,12.62-4.86,12.76-11.5
		c0.2-9.99-11.94-15.85-19.53-20.79c-5.29-3.45-16.02-7.85-16.22-25.52c-0.12-10.23,8.92-19.36,22.9-19.56
		c4.79-0.07,10.96,2.43,12.7,2.39C363.94,462.32,364.59,461.22,365.23,459.17L365.23,459.17z"/>
	<path class="st16" d="M153.3,604.54h-5.7l-2.27-7.27h-10.37l-2.14,7.27h-5.58l10.11-32.01h5.55L153.3,604.54L153.3,604.54z
		 M143.64,591.88l-3.57-11.88l-3.52,11.88H143.64L143.64,591.88z M182.42,604.54v-32.01h5.4v32.01H182.42L182.42,604.54z
		 M219.34,604.54v-32.01h11.16c2.85,0,4.9,0.29,6.12,0.86c1.22,0.57,2.23,1.57,3.01,2.99c0.79,1.42,1.18,3.12,1.18,5.1
		c0,2.5-0.6,4.52-1.8,6.05c-1.21,1.53-2.91,2.49-5.12,2.88c1.13,0.82,2.07,1.71,2.81,2.68c0.75,0.97,1.76,2.71,3.04,5.21l3.18,6.25
		h-6.31l-3.85-6.97c-1.38-2.51-2.32-4.09-2.82-4.73c-0.49-0.63-1.02-1.07-1.57-1.31c-0.55-0.24-1.44-0.36-2.66-0.36h-1.1v13.36
		H219.34L219.34,604.54z M224.62,586.06h3.94c2.4,0,3.93-0.1,4.58-0.31c0.66-0.21,1.19-0.63,1.6-1.27c0.4-0.64,0.61-1.5,0.61-2.56
		c0-1.02-0.21-1.84-0.61-2.46c-0.41-0.62-0.96-1.04-1.66-1.27c-0.49-0.16-1.93-0.24-4.3-0.24h-4.15V586.06L224.62,586.06z
		 M272.16,604.54v-31.75h5.28v26.36h13.19v5.4H272.16L272.16,604.54z M320.27,604.54v-32.01h5.28v32.01H320.27L320.27,604.54z
		 M356.89,604.54v-32.01h5.16l10.74,21.38v-21.38h4.93v32.01h-5.33l-10.57-20.88v20.88H356.89L356.89,604.54z M409.16,604.54v-32.01
		h19.48v5.42h-14.2v7.1h13.19v5.39h-13.19v8.71h14.68v5.4H409.16L409.16,604.54z M458.66,594.05l5.17-0.62
		c0.58,4.09,2.49,6.14,5.72,6.14c1.6,0,2.85-0.42,3.77-1.26c0.92-0.83,1.38-1.87,1.38-3.11c0-0.73-0.16-1.35-0.48-1.86
		c-0.32-0.51-0.81-0.93-1.47-1.26c-0.66-0.33-2.24-0.87-4.76-1.65c-2.26-0.69-3.91-1.42-4.96-2.23c-1.05-0.8-1.89-1.85-2.5-3.15
		c-0.62-1.3-0.92-2.71-0.92-4.2c0-1.74,0.4-3.32,1.19-4.72c0.8-1.39,1.89-2.45,3.29-3.17c1.4-0.71,3.12-1.07,5.18-1.07
		c3.09,0,5.49,0.83,7.22,2.51c1.74,1.67,2.65,4.07,2.75,7.18l-5.3,0.28c-0.24-1.72-0.74-2.92-1.51-3.61
		c-0.77-0.68-1.87-1.02-3.29-1.02s-2.53,0.3-3.29,0.89c-0.78,0.6-1.16,1.33-1.16,2.23c0,0.87,0.35,1.6,1.05,2.2
		c0.7,0.6,2.31,1.25,4.82,1.97c2.67,0.78,4.59,1.59,5.78,2.44c1.19,0.85,2.09,1.95,2.72,3.29c0.63,1.35,0.94,2.98,0.94,4.9
		c0,2.78-0.86,5.11-2.56,7.01c-1.71,1.89-4.39,2.84-8.03,2.84C462.97,605.03,459.39,601.37,458.66,594.05L458.66,594.05z"/>
</g>
</svg>
