<?xml version="1.0" encoding="utf-8"?>
<!-- Generator: Adobe Illustrator 25.2.1, SVG Export Plug-In . SVG Version: 6.00 Build 0)  -->
<svg version="1.1" id="Layer_1" xmlns="http://www.w3.org/2000/svg" xmlns:xlink="http://www.w3.org/1999/xlink" x="0px" y="0px"
	 viewBox="0 0 566.93 566.93" style="enable-background:new 0 0 566.93 566.93;" xml:space="preserve">
<style type="text/css">
	.st0{fill:#690D36;}
	.st1{fill:#F1F2F2;}
</style>
<rect x="100.29" y="86.15" class="st0" width="372.83" height="372.83"/>
<g>
	<g>
		<path class="st1" d="M171.73,318.18c4.6,1.49,8.6,3.72,12,6.7c3.4,2.98,6.08,6.75,8.05,11.32c1.97,4.56,2.95,9.89,2.95,15.98
			c0,3.99-0.58,7.78-1.75,11.37c-1.17,3.58-2.85,6.87-5.05,9.84c-2.2,2.98-4.87,5.6-8,7.86c-3.13,2.27-6.33,4.31-10.33,5.73
			c2.47,1.35,4.56,2.59,7.03,4.11c2.47,1.52,4.83,2.97,7.1,4.36c2.27,1.39,4.4,2.66,6.4,3.81c2,1.15,3.08,1.75,4.61,2.5
			c-2.33,0.34-3.91,1.32-6.11,2.27c-2.2,0.95-4.54,1.59-7.21,3.01c-2.27-1.83-14.31-12.52-14.31-12.53
			c-1.28-1.55-4.54-3.75-7.81-5.98c-4.87,0-13.6-0.9-18.07-2.25c-4.47-1.35-8.38-3.5-11.75-6.44c-3.37-2.94-6.05-6.7-8.05-11.26
			c-2-4.57-3-10-3-16.29c0-5.01,0.92-9.71,2.75-14.1c1.83-4.4,4.42-8.25,7.75-11.57c3.33-3.31,7.37-5.92,12.1-7.81
			c4.73-1.89,10-2.84,15.8-2.84C162.17,315.95,167.13,316.69,171.73,318.18z M178.88,338.64c-1.17-3.57-2.79-6.61-4.87-9.1
			c-2.08-2.5-4.6-4.43-7.56-5.78c-2.96-1.35-6.19-2.03-9.69-2.03c-3.72,0-7.06,0.85-10.02,2.55c-2.96,1.7-5.46,4.01-7.5,6.92
			c-2.05,2.92-3.6,6.33-4.66,10.25c-1.06,3.92-1.59,8.1-1.59,12.54c0,5.55,0.62,10.23,1.86,14.05c1.24,3.82,2.92,6.89,5.04,9.21
			c2.12,2.33,4.56,4.01,7.34,5.05c2.77,1.04,5.7,1.56,8.76,1.56c3.29,0,6.43-0.66,9.42-1.98c2.99-1.32,5.6-3.33,7.83-6.04
			c2.23-2.71,4.02-6.14,5.37-10.3c1.35-4.16,2.03-9.09,2.03-14.78C180.63,346.26,180.04,342.22,178.88,338.64z M167.11,396.83
			 M167.12,394.51"/>
		<path class="st1" d="M270.31,386.98c-1.67-0.14-3.26-0.2-4.75-0.2c-1.5,0-2.98,0-4.44,0c-1.46,0-2.94,0-4.44,0
			c-1.5,0-2.98,0.07-4.44,0.2c-1.11-3.31-2.26-6.7-3.45-10.15c-1.18-3.45-2.44-6.9-3.76-10.35c-2.23-0.07-4.46-0.12-6.69-0.15
			c-2.23-0.03-4.46-0.05-6.69-0.05c-1.81,0-3.62,0.02-5.43,0.05c-1.81,0.04-3.62,0.09-5.43,0.15c-1.39,3.45-2.68,6.9-3.87,10.35
			c-1.19,3.45-2.26,6.84-3.24,10.15c-0.84-0.14-1.65-0.2-2.45-0.2c-0.8,0-1.62,0-2.46,0c-0.84,0-1.67,0-2.51,0
			c-0.84,0-1.74,0.07-2.72,0.2c0.84-1.76,1.95-4.19,3.34-7.31c1.39-3.11,2.93-6.63,4.6-10.55c1.67-3.92,3.46-8.13,5.38-12.63
			c1.92-4.5,3.83-9.05,5.75-13.65c1.91-4.6,3.8-9.13,5.64-13.6c1.85-4.47,3.53-8.63,5.07-12.48c0.7,0.14,1.36,0.26,1.99,0.35
			c0.63,0.1,1.29,0.15,1.98,0.15c0.7,0,1.36-0.05,1.99-0.15c0.63-0.1,1.29-0.22,1.98-0.35c2.23,5.75,4.61,11.91,7.16,18.47
			c2.54,6.56,5.1,13.01,7.68,19.33c2.57,6.32,5.08,12.33,7.52,18.01C266.06,378.25,268.29,383.05,270.31,386.98z M233.77,336.34
			c-1.84,4.06-3.57,8.07-5.2,12.02c-1.63,3.96-3.22,8-4.77,12.13h19.41c-1.56-4.13-3.09-8.17-4.61-12.13
			C237.07,344.41,235.46,340.4,233.77,336.34z"/>
		<path class="st1" d="M386.11,386.98c-1.67-0.14-3.26-0.2-4.75-0.2c-1.5,0-2.98,0-4.44,0c-1.47,0-2.94,0-4.44,0
			c-1.5,0-2.98,0.07-4.44,0.2c-1.11-3.31-2.26-6.7-3.45-10.15c-1.18-3.45-2.44-6.9-3.76-10.35c-2.23-0.07-4.46-0.12-6.69-0.15
			c-2.23-0.03-4.46-0.05-6.69-0.05c-1.81,0-3.62,0.02-5.43,0.05c-1.81,0.04-3.62,0.09-5.43,0.15c-1.39,3.45-2.68,6.9-3.87,10.35
			c-1.18,3.45-2.26,6.84-3.24,10.15c-0.84-0.14-1.66-0.2-2.46-0.2c-0.8,0-1.62,0-2.45,0c-0.84,0-1.67,0-2.51,0
			c-0.84,0-1.74,0.07-2.72,0.2c0.84-1.76,1.95-4.19,3.34-7.31c1.39-3.11,2.93-6.63,4.6-10.55c1.67-3.92,3.46-8.13,5.38-12.63
			c1.91-4.5,3.83-9.05,5.75-13.65c1.91-4.6,3.8-9.13,5.64-13.6c1.85-4.47,3.53-8.63,5.07-12.48c0.7,0.14,1.36,0.26,1.99,0.35
			c0.63,0.1,1.29,0.15,1.99,0.15c0.69,0,1.36-0.05,1.98-0.15c0.63-0.1,1.29-0.22,1.98-0.35c2.23,5.75,4.61,11.91,7.16,18.47
			c2.54,6.56,5.1,13.01,7.68,19.33c2.57,6.32,5.08,12.33,7.52,18.01C381.86,378.25,384.09,383.05,386.11,386.98z M349.57,336.34
			c-1.84,4.06-3.57,8.07-5.2,12.02c-1.63,3.96-3.22,8-4.77,12.13h19.41c-1.56-4.13-3.09-8.17-4.61-12.13
			C352.87,344.41,351.27,340.4,349.57,336.34z"/>
		<path class="st1" d="M287.17,328.43c-0.03-1.62-0.11-2.81-0.24-3.55c-0.98,0-2.19,0.04-3.63,0.1c-1.44,0.07-2.97,0.15-4.6,0.26
			c-1.63,0.1-3.3,0.24-5,0.4c-1.7,0.17-3.27,0.35-4.7,0.56c0.13-0.74,0.25-1.49,0.34-2.23c0.1-0.74,0.15-1.49,0.15-2.23
			c0-0.74-0.05-1.49-0.15-2.23c-0.1-0.74-0.21-1.49-0.34-2.23c2.22,0.07,4.23,0.14,6.03,0.2c1.79,0.07,3.62,0.12,5.48,0.15
			c1.86,0.04,3.88,0.07,6.07,0.1c2.19,0.03,4.82,0.05,7.88,0.05c3.07,0,5.7-0.02,7.89-0.05c2.19-0.03,4.2-0.07,6.03-0.1
			c1.83-0.03,3.61-0.08,5.34-0.15c1.73-0.07,3.61-0.14,5.63-0.2c-0.13,0.75-0.24,1.49-0.34,2.23c-0.1,0.74-0.15,1.49-0.15,2.23
			c0,0.74,0.05,1.49,0.15,2.23c0.1,0.75,0.21,1.49,0.34,2.23c-1.31-0.2-2.78-0.39-4.41-0.56c-1.63-0.17-3.25-0.31-4.85-0.4
			c-1.6-0.1-3.12-0.19-4.56-0.26c-1.44-0.07-2.64-0.1-3.62-0.1c-0.06,0.34-0.11,0.81-0.14,1.42c-0.04,0.61-0.05,1.32-0.05,2.13v5.38
			v25.37c0,5.61,0.06,10.6,0.19,14.97c0.13,4.36,0.33,8.64,0.59,12.84c-1.11-0.14-2.32-0.2-3.62-0.2c-1.31,0-2.78,0-4.41,0
			c-1.63,0-3.1,0-4.41,0c-1.31,0-2.51,0.07-3.62,0.2c0.26-4.19,0.46-8.47,0.59-12.84c0.13-4.36,0.19-9.35,0.19-14.97v-25.37
			C287.22,331.85,287.2,330.05,287.17,328.43z"/>
		<path class="st1" d="M412.47,355.01v4.16c0,5.61,0.07,10.6,0.2,14.97c0.14,4.36,0.34,8.64,0.62,12.84
			c-1.17-0.14-2.44-0.2-3.82-0.2c-1.38,0-2.92,0-4.64,0c-1.72,0-3.27,0-4.65,0c-1.37,0-2.65,0.07-3.82,0.2
			c0.27-4.19,0.48-8.47,0.62-12.84c0.14-4.36,0.21-9.35,0.21-14.97v-13.8c0-5.61-0.07-10.6-0.21-14.97
			c-0.14-4.36-0.34-8.74-0.62-13.14c1.17,0.14,2.44,0.26,3.82,0.35c1.38,0.1,2.92,0.15,4.65,0.15c1.86,0,3.97-0.08,6.35-0.25
			c2.37-0.17,5.31-0.26,8.82-0.26c2.61,0,4.85,0.07,6.7,0.2c1.86,0.14,3.46,0.34,4.8,0.61c1.34,0.27,2.51,0.63,3.51,1.07
			c1,0.44,1.94,0.96,2.84,1.57c2.06,1.49,3.7,3.33,4.9,5.53c1.2,2.2,1.81,4.82,1.81,7.86c0,4.94-1.38,8.97-4.13,12.08
			c-2.75,3.11-6.71,5.31-11.87,6.6c3.3,5.75,6.84,11.48,10.63,17.2c3.79,5.72,7.57,11.38,11.35,17c-1.58-0.14-3.13-0.2-4.64-0.2
			c-1.52,0-3.06,0-4.65,0c-1.58,0-3.15,0-4.7,0c-1.55,0-3.11,0.07-4.7,0.2l-18.47-31.96H412.47z M430.78,329.24
			c-0.76-1.76-1.93-3.09-3.49-4.01c-1.56-0.91-3.6-1.51-6.09-1.78c-2.5-0.27-5.48-0.41-8.95-0.41c-0.25,9.2-0.38,18.4-0.38,27.6
			c0.51,0.07,0.99,0.12,1.46,0.15c0.46,0.03,0.91,0.05,1.33,0.05c5.59,0,9.86-1.2,12.82-3.6c2.96-2.4,4.44-6.04,4.44-10.91
			C431.92,333.37,431.54,331,430.78,329.24z"/>
		<g>
			<path class="st1" d="M219.08,422.5c-0.53-0.04-1.03-0.07-1.51-0.07c-0.48,0-0.94,0-1.41,0c-0.46,0-0.93,0-1.41,0
				c-0.47,0-0.94,0.02-1.41,0.07c-0.35-1.08-0.72-2.19-1.09-3.32c-0.38-1.13-0.77-2.25-1.19-3.38c-0.71-0.02-1.41-0.04-2.12-0.05
				c-0.71-0.01-1.41-0.01-2.12-0.01c-0.57,0-1.15,0-1.72,0.01c-0.57,0.01-1.15,0.03-1.72,0.05c-0.44,1.13-0.85,2.25-1.23,3.38
				c-0.38,1.13-0.72,2.23-1.03,3.32c-0.26-0.04-0.53-0.07-0.78-0.07c-0.26,0-0.51,0-0.78,0c-0.27,0-0.53,0-0.8,0
				s-0.55,0.02-0.86,0.07c0.26-0.57,0.62-1.37,1.06-2.39c0.44-1.02,0.93-2.16,1.46-3.45c0.53-1.28,1.1-2.66,1.71-4.13
				c0.61-1.47,1.22-2.95,1.82-4.46c0.61-1.5,1.2-2.98,1.79-4.44c0.59-1.46,1.12-2.82,1.61-4.08c0.22,0.04,0.43,0.08,0.63,0.12
				c0.2,0.03,0.41,0.05,0.63,0.05c0.22,0,0.43-0.02,0.63-0.05c0.2-0.03,0.41-0.07,0.63-0.12c0.71,1.88,1.46,3.89,2.27,6.03
				c0.81,2.14,1.62,4.25,2.44,6.31c0.82,2.06,1.61,4.03,2.39,5.88C217.74,419.64,218.44,421.21,219.08,422.5z M207.35,405.96
				c-0.57,1.33-1.12,2.64-1.62,3.93c-0.51,1.29-1.01,2.61-1.49,3.96h6.07c-0.49-1.35-0.97-2.67-1.44-3.96
				C208.38,408.59,207.88,407.28,207.35,405.96z"/>
			<path class="st1" d="M222.56,404.02c-0.04-1.43-0.11-2.86-0.2-4.29c0.38,0.04,0.79,0.08,1.23,0.12c0.44,0.03,0.94,0.05,1.49,0.05
				c0.55,0,1.05-0.02,1.49-0.05c0.44-0.03,0.85-0.07,1.23-0.12c-0.09,1.44-0.16,2.87-0.2,4.29c-0.05,1.42-0.07,3.05-0.07,4.89v4.51
				c0,1.83,0.02,3.46,0.07,4.89c0.04,1.43,0.11,2.82,0.2,4.19c-0.38-0.04-0.78-0.07-1.23-0.07c-0.44,0-0.94,0-1.49,0
				c-0.55,0-1.05,0-1.49,0c-0.44,0-0.85,0.02-1.23,0.07c0.09-1.37,0.16-2.77,0.2-4.19c0.04-1.43,0.07-3.06,0.07-4.89v-4.51
				C222.63,407.07,222.61,405.44,222.56,404.02z"/>
			<path class="st1" d="M238.44,412.06v1.36c0,1.83,0.02,3.46,0.07,4.89c0.04,1.43,0.11,2.82,0.2,4.19
				c-0.38-0.04-0.78-0.07-1.23-0.07c-0.44,0-0.94,0-1.49,0c-0.55,0-1.05,0-1.49,0c-0.44,0-0.85,0.02-1.23,0.07
				c0.09-1.37,0.15-2.77,0.2-4.19c0.04-1.43,0.07-3.06,0.07-4.89v-4.51c0-1.83-0.02-3.46-0.07-4.89c-0.04-1.43-0.11-2.86-0.2-4.29
				c0.38,0.04,0.78,0.08,1.23,0.12c0.44,0.03,0.94,0.05,1.49,0.05c0.6,0,1.28-0.03,2.04-0.08c0.76-0.06,1.71-0.08,2.83-0.08
				c0.84,0,1.56,0.02,2.15,0.07c0.6,0.04,1.11,0.11,1.54,0.2c0.43,0.09,0.81,0.21,1.13,0.35c0.32,0.14,0.63,0.31,0.91,0.51
				c0.66,0.49,1.19,1.09,1.57,1.81c0.39,0.72,0.58,1.57,0.58,2.57c0,1.62-0.44,2.93-1.32,3.95c-0.88,1.02-2.15,1.73-3.81,2.15
				c1.06,1.88,2.2,3.75,3.41,5.62c1.22,1.87,2.43,3.72,3.64,5.55c-0.51-0.04-1.01-0.07-1.49-0.07c-0.49,0-0.98,0-1.49,0
				c-0.51,0-1.01,0-1.51,0c-0.5,0-1,0.02-1.51,0.07l-5.93-10.44H238.44z M243.38,403.64c-0.2-0.57-0.5-1.01-0.91-1.31
				c-0.41-0.3-0.94-0.49-1.59-0.58c-0.65-0.09-1.43-0.13-2.34-0.13c-0.07,3.01-0.1,6.01-0.1,9.01c0.13,0.02,0.26,0.04,0.38,0.05
				c0.12,0.01,0.24,0.02,0.35,0.02c1.46,0,2.57-0.39,3.35-1.18c0.77-0.79,1.16-1.97,1.16-3.56
				C243.68,404.99,243.57,404.21,243.38,403.64z"/>
			<path class="st1" d="M265.32,410.12c-0.51,1.4-1.02,2.83-1.54,4.29c-0.52,1.46-1.02,2.89-1.51,4.31
				c-0.49,1.42-0.91,2.68-1.26,3.78c-0.51-0.04-1.07-0.07-1.69-0.07c-0.29,0-0.57,0-0.86,0c-0.29,0-0.57,0.02-0.86,0.07
				c-0.24-0.9-0.56-2.08-0.96-3.51c-0.4-1.44-0.83-2.96-1.29-4.57c-0.46-1.61-0.94-3.24-1.43-4.89c-0.49-1.65-0.94-3.15-1.36-4.52
				s-0.77-2.54-1.06-3.5c-0.29-0.96-0.47-1.55-0.56-1.77c0.49,0.04,0.96,0.08,1.43,0.12c0.46,0.03,0.92,0.05,1.36,0.05
				c0.44,0,0.89-0.02,1.34-0.05c0.45-0.03,0.9-0.07,1.34-0.12c0.33,1.41,0.69,2.87,1.06,4.36c0.37,1.49,0.76,2.96,1.14,4.41
				c0.39,1.45,0.76,2.85,1.13,4.21c0.36,1.36,0.7,2.61,1.01,3.76h0.07c0.48-1.39,1.01-2.9,1.57-4.52c0.56-1.62,1.11-3.21,1.64-4.77
				c0.53-1.56,1.02-2.99,1.46-4.31c0.44-1.32,0.78-2.36,1.03-3.13c0.29,0.04,0.56,0.08,0.83,0.12c0.27,0.03,0.54,0.05,0.83,0.05
				c0.29,0,0.56-0.02,0.83-0.05c0.26-0.03,0.54-0.07,0.83-0.12c0.09,0.49,0.25,1.14,0.5,1.95c0.24,0.82,0.52,1.73,0.85,2.72
				c0.32,0.99,0.66,2.04,1.03,3.15c0.36,1.11,0.73,2.2,1.09,3.28c0.36,1.08,0.7,2.11,1.01,3.08c0.31,0.97,0.56,1.82,0.76,2.55h0.07
				c0.44-1.39,0.91-2.93,1.41-4.61c0.5-1.68,0.98-3.3,1.44-4.87c0.46-1.57,0.88-3,1.26-4.31c0.38-1.3,0.64-2.29,0.79-2.95
				c0.55,0.11,1.02,0.17,1.39,0.17c0.24,0,0.49-0.02,0.75-0.05c0.25-0.03,0.51-0.07,0.78-0.12c-0.15,0.42-0.4,1.1-0.73,2.05
				c-0.33,0.95-0.72,2.07-1.16,3.37c-0.44,1.29-0.92,2.7-1.43,4.22c-0.51,1.53-1.02,3.06-1.52,4.61c-0.51,1.55-1,3.06-1.48,4.54
				c-0.47,1.48-0.89,2.81-1.24,3.98c-0.51-0.04-1.07-0.07-1.69-0.07c-0.29,0-0.57,0-0.86,0c-0.29,0-0.57,0.02-0.86,0.07
				c-0.71-2.7-1.51-5.37-2.4-8.04c-0.9-2.66-1.84-5.37-2.84-8.14h-0.07C266.28,407.45,265.82,408.71,265.32,410.12z"/>
			<path class="st1" d="M303.53,422.5c-0.53-0.04-1.03-0.07-1.51-0.07c-0.47,0-0.94,0-1.41,0c-0.46,0-0.93,0-1.41,0
				c-0.48,0-0.95,0.02-1.41,0.07c-0.35-1.08-0.72-2.19-1.09-3.32c-0.38-1.13-0.77-2.25-1.19-3.38c-0.71-0.02-1.42-0.04-2.12-0.05
				c-0.71-0.01-1.42-0.01-2.12-0.01c-0.57,0-1.15,0-1.72,0.01c-0.57,0.01-1.15,0.03-1.72,0.05c-0.44,1.13-0.85,2.25-1.23,3.38
				c-0.38,1.13-0.72,2.23-1.03,3.32c-0.27-0.04-0.52-0.07-0.78-0.07c-0.25,0-0.51,0-0.78,0c-0.27,0-0.53,0-0.79,0
				s-0.55,0.02-0.86,0.07c0.26-0.57,0.62-1.37,1.06-2.39c0.44-1.02,0.93-2.16,1.46-3.45c0.53-1.28,1.1-2.66,1.71-4.13
				c0.61-1.47,1.21-2.95,1.82-4.46c0.61-1.5,1.2-2.98,1.79-4.44c0.59-1.46,1.12-2.82,1.61-4.08c0.22,0.04,0.43,0.08,0.63,0.12
				c0.2,0.03,0.41,0.05,0.63,0.05c0.22,0,0.43-0.02,0.63-0.05c0.2-0.03,0.41-0.07,0.63-0.12c0.7,1.88,1.46,3.89,2.27,6.03
				c0.81,2.14,1.62,4.25,2.44,6.31c0.82,2.06,1.61,4.03,2.38,5.88C302.18,419.64,302.89,421.21,303.53,422.5z M291.8,405.96
				c-0.57,1.33-1.12,2.64-1.62,3.93c-0.51,1.29-1.01,2.61-1.49,3.96h6.06c-0.49-1.35-0.97-2.67-1.44-3.96
				C292.83,408.59,292.33,407.28,291.8,405.96z"/>
			<path class="st1" d="M314.56,407.5c0.44-0.8,0.87-1.65,1.29-2.53c0.42-0.89,0.83-1.77,1.23-2.67c0.4-0.89,0.78-1.75,1.16-2.57
				c0.24,0.04,0.49,0.08,0.74,0.12c0.26,0.03,0.51,0.05,0.78,0.05s0.52-0.02,0.78-0.05c0.25-0.03,0.52-0.07,0.81-0.12
				c-0.38,0.62-0.84,1.43-1.41,2.44c-0.56,1-1.17,2.09-1.81,3.26c-0.64,1.17-1.29,2.37-1.94,3.6s-1.24,2.36-1.77,3.4
				c0,0.53-0.01,1.07-0.03,1.61c-0.02,0.54-0.03,1.08-0.03,1.64c0,1.13,0.02,2.24,0.05,3.35c0.03,1.1,0.13,2.26,0.28,3.48
				c-0.46-0.04-0.93-0.07-1.41-0.07c-0.47,0-0.94,0-1.41,0c-0.47,0-0.93,0-1.41,0c-0.47,0-0.94,0.02-1.41,0.07
				c0.04-1.02,0.12-2.06,0.23-3.12c0.11-1.06,0.17-2.12,0.17-3.18c0-0.51-0.01-1.02-0.02-1.54c-0.01-0.52-0.03-1.03-0.05-1.54
				c-0.55-1.1-1.19-2.34-1.91-3.7c-0.72-1.36-1.41-2.68-2.09-3.96c-0.67-1.28-1.29-2.44-1.86-3.48c-0.56-1.04-0.98-1.79-1.24-2.25
				c0.51,0.04,1,0.08,1.49,0.12c0.49,0.03,0.98,0.05,1.49,0.05c0.51,0,1-0.02,1.47-0.05c0.47-0.03,0.97-0.07,1.48-0.12
				c0.37,0.82,0.8,1.72,1.28,2.72c0.47,1,0.94,1.97,1.41,2.92c0.47,0.95,0.9,1.81,1.29,2.59c0.4,0.77,0.72,1.35,0.96,1.72h0.07
				C313.68,409.03,314.12,408.3,314.56,407.5z"/>
			<path class="st1" d="M330.51,401.35c-1.02,0-1.85,0.3-2.49,0.89c-0.64,0.6-0.96,1.29-0.96,2.09c0,0.82,0.25,1.49,0.75,2.01
				c0.5,0.52,1.12,0.99,1.87,1.41c0.75,0.42,1.56,0.82,2.42,1.21c0.86,0.39,1.67,0.86,2.42,1.43c0.75,0.56,1.38,1.25,1.88,2.05
				c0.5,0.81,0.74,1.84,0.74,3.1c0,1.1-0.21,2.11-0.63,3.03c-0.42,0.92-1.02,1.7-1.79,2.36c-0.77,0.65-1.7,1.15-2.77,1.49
				c-1.07,0.34-2.27,0.51-3.6,0.51c-1.19,0-2.26-0.13-3.2-0.38c-0.94-0.26-1.65-0.57-2.14-0.95c0.22-0.77,0.41-1.48,0.56-2.12
				c0.15-0.64,0.29-1.34,0.4-2.09h0.63c0.09,0.49,0.26,0.94,0.5,1.37c0.24,0.43,0.55,0.81,0.93,1.14c0.37,0.33,0.83,0.59,1.36,0.78
				c0.53,0.19,1.13,0.28,1.79,0.28c1.33,0,2.3-0.33,2.93-1c0.63-0.66,0.94-1.46,0.94-2.39c0-0.84-0.24-1.52-0.73-2.05
				c-0.49-0.53-1.09-1-1.82-1.41c-0.73-0.41-1.53-0.8-2.39-1.19c-0.86-0.39-1.66-0.85-2.39-1.41c-0.73-0.55-1.34-1.23-1.82-2.04
				c-0.49-0.81-0.73-1.84-0.73-3.1c0-1.15,0.2-2.16,0.61-3.05c0.41-0.88,0.95-1.63,1.64-2.22c0.69-0.59,1.48-1.05,2.37-1.36
				c0.89-0.31,1.84-0.46,2.83-0.46c1.19,0,2.24,0.14,3.13,0.43c0.89,0.29,1.66,0.69,2.3,1.19c-0.2,0.51-0.37,1-0.51,1.47
				c-0.14,0.48-0.33,1.08-0.55,1.81h-0.5C333.81,402.3,332.47,401.35,330.51,401.35z"/>
		</g>
		<g>
			<path class="st1" d="M357.87,402.02c1.22,0,2.23-0.95,2.23-2.23c0-1.17-1.12-2.23-2.28-2.23c-1.27,0-2.28,1.01-2.28,2.28
				C355.54,401.12,356.65,402.02,357.87,402.02z"/>
			<path class="st1" d="M352.62,402.02c1.38,0,2.28-0.85,2.28-2.23c0-1.28-0.95-2.23-2.28-2.23c-1.16,0-2.23,1.06-2.23,2.23
				C350.39,401.01,351.46,402.02,352.62,402.02z"/>
			<path class="st1" d="M372.09,424.03v-13.95c0-0.21-0.37-0.37-0.53-0.37c-0.37,0-4.67,3.66-4.67,4.14c0,0.32,0.42,0.58,0.42,0.9
				c0,0,0,4.03,0,4.3h-2.12h-1.17h-3.5c0,0.16,0-14.96,0-14.96l-0.48-0.32c-0.37,0.11-4.03,3.13-4.62,3.61l-0.1,0.53
				c0.32,0.53,0.48,1.22,0.43,1.86v1.12l-0.11,0.11c-11.93-0.05-6.58,6.84-9.81,13.05h18.19h1.17H372.09z M355.7,419.26h-3.98v-1.65
				c0-1.11,1.33-1.96,2.39-1.96h1.59V419.26z"/>
			<path class="st1" d="M371.61,426.58c-1.22,0-2.28,1.06-2.28,2.28c0,1.22,1.06,2.33,2.28,2.33c1.27,0,2.28-1.11,2.28-2.39
				C373.89,427.64,372.83,426.58,371.61,426.58z"/>
			<path class="st1" d="M366.46,426.58c-1.01,0-2.23,1.01-2.23,2.12c0,0.21,0,0.48,0.05,0.74c0.05,0.9,1.33,1.75,2.17,1.75
				c1.27,0,2.23-1.11,2.23-2.33C368.69,427.64,367.73,426.58,366.46,426.58z"/>
			<path class="st1" d="M425.97,399.48c1.43,0,2.23-0.85,2.23-2.28c0-1.06-0.74-2.17-1.96-2.17c-1.32,0-2.54,0.69-2.54,2.17
				C423.69,398.47,424.74,399.48,425.97,399.48z"/>
			<path class="st1" d="M430.95,399.48c1.38,0,2.44-0.74,2.44-2.28c0-1.54-1.17-2.17-2.54-2.17c-1.06,0-2.02,1.17-2.02,2.17
				C428.83,398.36,429.73,399.48,430.95,399.48z"/>
			<path class="st1" d="M445.69,397.57c-1.48,1.28-3.29,2.44-4.61,3.87l-0.06,0.32c0,0.27,0.43,0.74,0.43,1.01c0,0,0,16.5,0,16.28
				h-1.7h-1.49h-3.23c0,0.16,0-17.61,0-17.61c-5.14,2.07-13.36-0.58-13.36,8.01v6.36h8.59c0,0,0,3.45,0,3.24h-10.08h-1.54h-3.44
				c0.9-10.71-10.71-8.27-17.87-8.27v-12.84l-0.42-0.37c-0.42,0.11-4.51,3.66-4.77,4.19c0.11,0.21,0.53,0.96,0.53,1.12
				c0,0,0,16.39,0,16.18h-1.43h-1.75h-2.75c-0.32-1.75-2.28-8.32-4.67-8.81l-0.58,0.32c-0.95,1.64-1.86,3.34-2.6,5.09
				c0.16,1.06,2.97,2.76,2.97,6.37c0,4.61-3.24,5.73-7,6.31l-0.11,0.32c1.06,1.38,2.33,1.38,3.87,1.38c3.24,0,7.69-2.12,7.96-5.78
				l0.16-0.21h2.75h1.75h27.42h1.54h18.08h1.49h6.47v-25.78c0-0.05-0.21-0.42-0.21-0.53L445.69,397.57z M410.32,419.26h-12.94v-3.71
				h10.98c0.85,0,1.96,0.64,1.96,1.65V419.26z M430.26,410.88h-3.76v-1.43c0-0.8,0.64-2.02,1.48-2.17c0.48-0.05,0.95-0.21,1.43-0.21
				h0.85V410.88z"/>
			<path class="st1" d="M454.44,397.3c-0.37,0.05-4.51,3.71-4.66,4.19c0.85,0.74,0.42,20.15,0.42,22.54h4.77v-26.26L454.44,397.3z"
				/>
		</g>
	</g>
	<g>
		<g>
			<path class="st1" d="M234.96,170.31c8.36,0.08,22.45-0.15,37.52-0.49c7.56-0.1,11.78-0.24,20.07-0.43
				c0.08-0.06,0.17-0.13,0.24-0.19c1.44-1.09,2.32-1.75,2.32-1.75c1.64-1.17,3.26-2.31,4.86-3.42c-1.65-0.06-3.29-0.12-4.92-0.17
				c-15.56-0.36-32.08-0.68-59.42-0.91c-0.11,0-0.22,0-0.34,0c0,0-1.81,0.06-3.82,0.45c-6.13,1.01-5.36,2.91-5.36,2.91
				C226.35,170.67,234.96,170.31,234.96,170.31z"/>
			<path class="st1" d="M339.13,182.7c7.95-0.47,12.13-1.04,15.41-1.72c0,0,5.18-0.93-12.48-1.97
				C341.38,180.54,340.36,181.75,339.13,182.7z"/>
			<path class="st1" d="M236.65,184.97c0,0,15-0.07,38-0.45c2.34-2.33,5.2-4.87,8.04-7.25c-15.6-0.3-30.64-0.57-54.16-0.78
				c0,0-10.06,0.36-10.3,4.48C218.24,180.97,217.75,185.82,236.65,184.97z"/>
			<path class="st1" d="M340.75,167.46c2.66-0.46,4.95-1.03,5.37-1.13c-0.03-0.01-0.06-0.02-0.1-0.03
				c-5.32-0.42-8.81-0.78-14.46-1.1c-2.17,1.18-4.11,2.26-5.8,3.22c2.48-0.08,2.63-0.14,4.49-0.2
				C334.29,167.99,337.86,167.74,340.75,167.46z"/>
			<path class="st1" d="M238.56,152.82c0,0-0.31,3.4,11.81,2.81c0,0,48.74-0.19,68.8-1.92c0.94-0.62,1.86-1.24,2.78-1.84
				c-7.18-0.73-26.34-1.7-76.78-2.18C245.17,149.68,238.72,149.93,238.56,152.82z"/>
			<path class="st1" d="M267.27,143.38c0,0,40.1-0.18,47.06-2c0,0,4.4-1.64-50.3-2.24c0,0-4.01,0.18-4.11,2.24
				C259.92,141.38,259.72,143.8,267.27,143.38z"/>
			<path class="st1" d="M326.45,192.01c2.51,2.19,5.29,4.02,8.15,5.56c12-0.61,21.6-1.4,26.07-2.4
				C360.68,195.18,365.86,193.52,326.45,192.01z"/>
			<path class="st1" d="M233.43,199.74c0,0,8.73-0.05,26.28-0.29c3.2-3.61,6.01-6.53,8.3-8.78c-13.56-0.23-25.1-0.44-43.2-0.61
				c0,0-10.68,0.41-10.94,5.12C213.87,195.18,213.36,200.71,233.43,199.74z"/>
			<path class="st1" d="M231.73,214.04c0,0,4.05-0.03,16.25-0.16c2.48-3.32,4.88-6.34,7.15-9.08c-10.82-0.16-18.7-0.31-32.02-0.44
				c0,0-10.68,0.42-10.94,5.12C212.18,209.47,211.66,215,231.73,214.04z"/>
			<path class="st1" d="M232.27,227.87c0,0-0.19-0.02,6.24-0.07c0.33-1.42,1.62-2.83,1.62-2.83c1.4-2.1,2.79-4.12,4.16-6.05
				c-7.56-0.1-11.54-0.19-20.23-0.27c0,0-10.17,0.39-10.42,4.87C213.65,223.53,213.16,228.8,232.27,227.87z"/>
			<path class="st1" d="M251,227.72c0.37,0,0.74-0.01,1.11-0.01C252.19,227.13,251.52,227.42,251,227.72z"/>
			<path class="st1" d="M250.86,241.07c-3.6-1.99-7.2-6.37-8.24-7.7c-5.81-0.06-7.81-0.12-14.28-0.18c0,0-9.87,0.35-10.1,4.33
				c0,0-0.48,4.69,18.07,3.87"/>
			<path class="st1" d="M292.57,234.12c-7.42-0.18-13.81-0.35-23.45-0.5c-3.55,5.02-5.89,6.68-8.78,7.22l-1.68,0.42
				c10.77-0.12,23.36-0.33,37.75-0.71C294.7,237.76,293.38,235.51,292.57,234.12z"/>
			<path class="st1" d="M306.06,253.86c-1.25-1.62-2.46-3.23-3.6-4.78c-15.62-0.45-35.88-0.85-67.74-1.13c0,0-8.44,0.3-8.64,3.71
				c0,0-0.41,4.01,15.45,3.31C241.53,254.97,276.78,254.84,306.06,253.86z"/>
			<path class="st1" d="M246.19,262.51c0,0-6.83,0.26-7,3.2c0,0-0.33,3.46,12.52,2.85c0,0,41.91-0.17,65.4-1.57
				c-0.91-0.97-1.81-1.97-2.71-2.98C302.41,263.43,283.34,262.85,246.19,262.51z"/>
			<path class="st1" d="M263.09,275.07c0,0-3.99,0.17-4.09,2.04c0,0-0.19,2.2,7.31,1.82c0,0,39.86-0.17,46.78-1.82
				C313.09,277.11,317.47,275.62,263.09,275.07z"/>
		</g>
		<path class="st1" d="M314.95,173.64c0,0,2.9-1.89,8.52-5.09c0.07-0.04,0.15-0.09,0.22-0.13c1.69-0.96,3.63-2.04,5.8-3.22
			c0.19-0.1,0.39-0.21,0.58-0.32c14.55-7.88,39.3-20.07,72.92-32.32c0,0,1.18-3.36-3.18-2.27c0,0-44.39,11.34-84.49,34.01
			c-0.1,0.06-0.2,0.11-0.3,0.17c-2.53,1.43-5.04,2.91-7.52,4.43c-0.12,0.07-0.24,0.15-0.35,0.22c-1.82,1.12-3.61,2.26-5.38,3.42
			c0,0-5,2,0.09-2c0,0,0.74-0.5,1.99-1.33c0.11-0.07,0.21-0.14,0.32-0.21c1.73-1.14,4.27-2.82,7.17-4.69
			c0.07-0.04,0.14-0.09,0.2-0.13c6.03-3.88,13.49-8.51,18.12-10.81c0,0,9.82-4.91,15.81-9.36c0,0,40.26-24.54,48.8-26.81
			c0,0,2.72-1.36-0.27-3.27c0,0-21.02,4.22-72.06,37.93c-0.92,0.6-1.84,1.22-2.78,1.84c-4.75,3.17-9.75,6.59-15.02,10.28
			c-0.03,0.02-0.05,0.03-0.07,0.05c-1.6,1.12-3.21,2.26-4.86,3.42c0,0-0.89,0.65-2.32,1.75c-0.08,0.06-0.16,0.12-0.24,0.19
			c-2.37,1.81-6.09,4.71-9.86,7.88c-2.84,2.38-5.7,4.92-8.04,7.25c-0.15,0.15-0.3,0.3-0.44,0.44c0,0-2.33,1.89-6.2,5.71
			c-2.28,2.25-5.1,5.17-8.3,8.78c-1.45,1.64-2.98,3.42-4.58,5.34c-2.27,2.74-4.67,5.76-7.15,9.08c-1.21,1.62-2.44,3.3-3.69,5.06
			c-1.37,1.93-2.76,3.95-4.16,6.05c0,0-1.29,1.41-1.62,2.83c-0.24,1.02,0.02,2.04,1.62,2.54c0,0,2.54,0.95,6.18-2.25
			c0,0,0.26-0.19,0.57-0.37c0.52-0.3,1.19-0.59,1.11-0.01c-0.04,0.3-0.29,0.84-0.87,1.72c0,0-0.91,2.09-4.82,3.54
			c0,0,0.11,0.14,0.3,0.39c1.04,1.33,4.64,5.71,8.24,7.7c0,0,4.79,0.74,11.16-7.45c1.29-1.66,2.64-3.68,4.03-6.15
			c1.3-2.31,2.63-4.99,3.98-8.14c0.76-1.78,1.53-3.72,2.29-5.8c0.94-2.56,1.87-5.34,2.8-8.39c0.36-1.19,0.72-2.42,1.08-3.69
			c0,0-6.36,3.82-4.45-1c0,0,0.24-0.48,0.7-1.19c1.06-1.63,3.28-4.44,6.38-5.26l0.72-3.11l1.19-5.16c0,0,2.02,0.89,3.21,5.25
			c0.53,1.93,0.89,4.53,0.84,8.04c-0.01,1.04-0.06,2.14-0.15,3.34c0,0,1.55-0.84,3.13-3.4c0.81-1.31,1.62-3.07,2.23-5.41
			c0,0,0.89,2.07,1.48,5.32c0.34,1.87,0.59,4.14,0.52,6.63c-0.07,2.39-0.43,4.99-1.29,7.64c-0.7,2.17-1.73,4.38-3.2,6.55
			c-1.77,2.61-4.18,5.16-7.41,7.51c-2.27,1.65-4.95,3.19-8.1,4.59c0,0,0.73,2.46,11.27-1.63c0,0,3.36-1.36,5.82,2.37
			c0,0,0.35,0.57,1,1.59c0.89,1.4,2.35,3.64,4.24,6.42c1.7,2.5,3.75,5.42,6.04,8.55c1.14,1.55,2.34,3.15,3.6,4.78
			c2.6,3.37,5.42,6.83,8.34,10.14c0.89,1.01,1.8,2.01,2.71,2.98c1.7,1.81,3.41,3.54,5.14,5.16c0,0,11.9-6.9,14.72-11.63
			c0,0-30.26-1.45,4.73-4.27c0,0,5.73-7.27,5.82-8.81c0,0-65.52-2.54,3.54-6c0,0,2.36-4.91,3.09-7.72c0,0-87.6-3.09,2.09-7
			c0,0,1.27-3.82,1.54-7.54c0,0-92.87-3,0.64-7.18c0,0,0.54-2.09,0.46-6.54c0,0-15.13-0.74-28.39-7.87
			c-2.86-1.54-5.64-3.38-8.15-5.56c-1.08-0.94-2.11-1.94-3.08-3.02c0,0-3.91-3.27,2.36-2.82c0,0,8.34,0.46,13.4-3.48
			c1.23-0.95,2.25-2.16,2.93-3.7c0.04-0.09,0.09-0.18,0.12-0.27l-27.53-1.09C312.59,177.64,308.68,177.64,314.95,173.64z"/>
	</g>
</g>
</svg>
