<?xml version="1.0" encoding="utf-8"?>
<!-- Generator: Adobe Illustrator 25.2.1, SVG Export Plug-In . SVG Version: 6.00 Build 0)  -->
<svg version="1.1" id="Layer_1" xmlns="http://www.w3.org/2000/svg" xmlns:xlink="http://www.w3.org/1999/xlink" x="0px" y="0px"
	 viewBox="0 0 288 560" style="enable-background:new 0 0 288 560;" xml:space="preserve">
<style type="text/css">
	.st0{fill-rule:evenodd;clip-rule:evenodd;fill:#C41230;}
	.st1{fill-rule:evenodd;clip-rule:evenodd;fill:#FFFFFF;}
	.st2{fill-rule:evenodd;clip-rule:evenodd;fill:#F79718;}
	.st3{fill-rule:evenodd;clip-rule:evenodd;fill:#F68E1B;}
	.st4{fill-rule:evenodd;clip-rule:evenodd;fill:#F68D1A;}
	.st5{fill-rule:evenodd;clip-rule:evenodd;fill:#F7AD10;}
	.st6{fill-rule:evenodd;clip-rule:evenodd;fill:#F7A413;}
	.st7{fill-rule:evenodd;clip-rule:evenodd;fill:#F8A512;}
	.st8{fill-rule:evenodd;clip-rule:evenodd;fill:#FAC009;}
	.st9{fill-rule:evenodd;clip-rule:evenodd;fill:#FDCC05;}
	.st10{fill-rule:evenodd;clip-rule:evenodd;fill:#FBBD0B;}
	.st11{fill-rule:evenodd;clip-rule:evenodd;fill:#FFFF00;}
</style>
<g>
	<polygon class="st0" points="2,229 285.46,229 285.46,331.91 2,331.91 2,229 	"/>
	<path class="st1" d="M200.16,282.23l-0.88,2.84c-1.13,3.66,0.88,4.5,2.7,4.53c1.24,0.02,4.23-0.25,5.2-3.73h7.04
		c-1.82,5.99-7.79,8.9-13.04,8.97c-5.37,0.07-10.32-2.95-8.97-8.54l2.83-10.16c2.93-8.51,9.93-9.27,14.27-9.23
		c6.12,0.07,9.19,3.87,7.66,9.21l-1.76,6.13L200.16,282.23L200.16,282.23z M201.68,277.16h7.97c1.39-3.19,0.83-5.23-2.46-5.27
		C204.46,271.86,202.46,273.18,201.68,277.16L201.68,277.16z M188.55,284.37c-1.68,7.74-8.45,10.13-13.7,10.2
		c-5.37,0.07-10.39-2.15-8.82-8.54l2.69-10.16c2.93-8.51,9.93-9.26,14.27-9.23c7.5,0.07,9.11,4.45,7.58,9.79l-7.08,0.02
		c1.39-3.19,0.32-4.28-2.53-4.32c-2.74-0.04-4.74,1.04-5.51,5.02l-2.19,7.64c-1.05,3.68,0.81,4.33,2.63,4.38
		c2.79,0.09,5.02-1.38,5.56-4.82H188.55L188.55,284.37z M241.33,282.06l-0.88,2.84c-1.13,3.66,0.88,4.5,2.7,4.53
		c1.24,0.02,4.23-0.25,5.2-3.73h7.04c-1.82,5.99-7.79,8.9-13.04,8.97c-5.37,0.07-10.32-2.95-8.97-8.54l2.83-10.16
		c2.93-8.51,9.93-9.27,14.27-9.23c6.12,0.07,9.19,3.87,7.66,9.21l-1.76,6.13L241.33,282.06L241.33,282.06z M242.86,276.99h7.97
		c1.39-3.18,0.83-5.23-2.46-5.27C245.63,271.69,243.63,273.01,242.86,276.99L242.86,276.99z M157.96,267.28h6.98l-7.61,27.09h-6.98
		L157.96,267.28L157.96,267.28z M160.24,258.97h6.98l-1.59,5.71h-7.04L160.24,258.97L160.24,258.97z M118.1,275.15l6.32-1.98
		c-0.16-4.66-4.97-6.72-8.61-6.7c-6.93,0.03-12.25,4.66-11.96,10.7c0.1,2.16,3.95,4.82,6.17,5.53c1.78,0.56,4.24,2.17,4.19,3.73
		c-0.11,3.26-7.84,5.26-8.15-1.22l-6.48,1.6c1.14,3.82,2.06,7.52,9.22,7.62c5.27,0.07,12.12-3.56,12.27-9.98
		c0.07-3.05-2.94-4.74-6.25-6.48c-1.53-0.8-4.19-1.94-4.11-3.58C110.83,271.91,117.01,269.04,118.1,275.15L118.1,275.15z
		 M130.73,267.2h6.4l-0.89,3.2c2.75-2.3,6.31-3.86,9.09-3.71c3.42,0.18,6.02,2.96,4.49,8.8c-1.03,3.94-2.11,7.87-3.51,11.81
		c-2.59,7.26-10.59,9.92-15.49,4.54l-4.33,15.01h-6.82L130.73,267.2L130.73,267.2z M135.95,273.32L131.77,288
		c2.71,3.99,6.98,1.57,7.93-1.6l2.78-9.24C144.24,270.81,140.64,269.98,135.95,273.32L135.95,273.32z M228.46,259.11h6.93
		L224.7,296.5c-1.46,5.11-4.68,11.11-13.89,10.93c-8.47-0.17-10.24-4.12-8.13-10.24l6.57-0.01c-0.69,3.46,0.08,4.65,2.72,4.68
		c3.82,0.04,4.91-2.23,5.81-5.38L228.46,259.11L228.46,259.11z M268.21,259.01h6.83l-2.63,9.44h4.64l-1.5,5.02H271l-3.51,12.58
		c-0.57,2.04-0.95,3.38,3.59,3.21l-1.48,5.26c-3.94,0.49-6.81,0.23-8.29-0.47c-2.94-1.39-1.6-4.6-0.71-7.8l3.57-12.78h-3.69
		l1.5-5.02h3.59L268.21,259.01L268.21,259.01z M169.47,315.07c-0.17-0.04-0.34-0.07-0.52-0.1c-0.18-0.03-0.35-0.04-0.51-0.04
		c-0.17,0-0.32,0.02-0.46,0.06c-0.13,0.04-0.24,0.1-0.34,0.19c-0.09,0.09-0.16,0.2-0.21,0.34c-0.05,0.14-0.07,0.31-0.07,0.51v0.77
		h1.74v1.18h-1.74v4.67h-1.53v-4.67h-1.06v-1.18h1.06v-0.69c0-0.41,0.06-0.76,0.18-1.06c0.12-0.3,0.3-0.54,0.51-0.73
		c0.22-0.19,0.48-0.33,0.78-0.42c0.3-0.09,0.62-0.13,0.97-0.13c0.22,0,0.43,0.02,0.64,0.05c0.21,0.03,0.4,0.08,0.55,0.13V315.07
		L169.47,315.07z M169.95,322.65v-8.73h1.53v8.73H169.95L169.95,322.65z M172.46,316.8h1.64l0.94,2.12c0.35,0.8,0.61,1.4,0.75,1.79
		h0.03c0.11-0.3,0.34-0.86,0.68-1.68l0.97-2.23h1.66l-4.04,8.65h-1.51l1.44-3.13L172.46,316.8L172.46,316.8z M180.08,316.8h1.53
		v5.84h-1.53V316.8L180.08,316.8z M180.04,313.92h1.61v1.55h-1.61V313.92L180.04,313.92z M184.74,317.62h0.02
		c0.09-0.12,0.21-0.24,0.34-0.36c0.14-0.12,0.29-0.22,0.47-0.31c0.18-0.09,0.37-0.16,0.59-0.21c0.21-0.05,0.44-0.08,0.68-0.08
		c0.23,0,0.45,0.02,0.66,0.07c0.21,0.05,0.41,0.12,0.59,0.23c0.18,0.1,0.33,0.23,0.47,0.4c0.14,0.16,0.24,0.36,0.32,0.58
		c0.04,0.12,0.07,0.26,0.09,0.41c0.02,0.15,0.02,0.31,0.02,0.51v3.79h-1.53v-3.57c0-0.16-0.01-0.29-0.02-0.41
		c-0.01-0.11-0.04-0.21-0.07-0.29c-0.08-0.19-0.19-0.32-0.35-0.4c-0.16-0.08-0.35-0.12-0.57-0.12c-0.3,0-0.58,0.07-0.86,0.2
		c-0.27,0.13-0.52,0.32-0.73,0.57v4.02h-1.53v-5.84h1.27L184.74,317.62L184.74,317.62z M194.75,322.8c0-0.08,0-0.18,0-0.3
		c0-0.12,0.01-0.22,0.02-0.3h-0.01c-0.09,0.07-0.21,0.14-0.33,0.21c-0.12,0.07-0.26,0.14-0.4,0.19c-0.15,0.06-0.31,0.1-0.49,0.14
		c-0.18,0.04-0.36,0.05-0.54,0.05c-0.33,0-0.66-0.06-0.97-0.16c-0.32-0.11-0.6-0.29-0.85-0.52c-0.25-0.24-0.44-0.55-0.59-0.92
		c-0.15-0.37-0.23-0.82-0.23-1.35c0-0.53,0.08-0.99,0.23-1.39c0.15-0.4,0.36-0.73,0.61-0.99c0.25-0.26,0.55-0.47,0.88-0.6
		c0.33-0.13,0.67-0.2,1.02-0.2c0.38,0,0.72,0.07,1.02,0.23c0.3,0.15,0.54,0.34,0.73,0.57h0.02l0.07-0.66h1.34v5.95
		c0,0.34-0.03,0.63-0.09,0.88c-0.06,0.25-0.15,0.46-0.27,0.65c-0.14,0.22-0.31,0.41-0.53,0.58c-0.21,0.16-0.46,0.3-0.73,0.41
		c-0.27,0.11-0.57,0.19-0.9,0.24c-0.33,0.05-0.67,0.08-1.04,0.08c-0.21,0-0.41-0.01-0.61-0.02c-0.2-0.01-0.38-0.03-0.56-0.06
		c-0.17-0.03-0.34-0.06-0.48-0.09c-0.14-0.04-0.27-0.07-0.36-0.11v-1.16c0.28,0.09,0.58,0.16,0.89,0.2
		c0.31,0.05,0.64,0.07,0.99,0.07c0.69,0,1.22-0.12,1.59-0.37c0.38-0.25,0.56-0.62,0.56-1.12V322.8L194.75,322.8z M193.38,321.66
		c0.15,0,0.3-0.02,0.44-0.06c0.14-0.03,0.27-0.08,0.38-0.14c0.11-0.06,0.22-0.12,0.31-0.19c0.09-0.07,0.17-0.14,0.24-0.21v-2.61
		c-0.17-0.18-0.37-0.33-0.61-0.45c-0.24-0.12-0.5-0.18-0.77-0.19c-0.1,0-0.2,0.01-0.3,0.03c-0.1,0.02-0.21,0.06-0.32,0.12
		c-0.11,0.06-0.21,0.13-0.31,0.23c-0.1,0.09-0.18,0.21-0.26,0.36c-0.07,0.14-0.13,0.32-0.18,0.52c-0.05,0.2-0.07,0.43-0.07,0.7
		c0,0.29,0.03,0.56,0.09,0.79c0.06,0.23,0.15,0.43,0.27,0.59c0.12,0.16,0.27,0.29,0.45,0.37
		C192.93,321.62,193.14,321.66,193.38,321.66L193.38,321.66z M206,315.07c-0.16-0.04-0.33-0.07-0.51-0.1
		c-0.17-0.03-0.34-0.04-0.5-0.04c-0.17,0-0.32,0.02-0.45,0.06c-0.13,0.04-0.24,0.1-0.33,0.19c-0.09,0.09-0.16,0.2-0.21,0.34
		c-0.05,0.14-0.07,0.31-0.07,0.51v0.77h1.7v1.18h-1.7v4.67h-1.5v-4.67h-1.04v-1.18h1.04v-0.69c0-0.41,0.06-0.76,0.18-1.06
		c0.12-0.3,0.29-0.54,0.5-0.73c0.22-0.19,0.47-0.33,0.76-0.42c0.29-0.09,0.61-0.13,0.95-0.13c0.21,0,0.42,0.02,0.63,0.05
		c0.21,0.03,0.39,0.08,0.54,0.13V315.07L206,315.07z M210.7,319.73c0-0.31-0.04-0.58-0.11-0.82c-0.08-0.24-0.18-0.44-0.32-0.6
		c-0.14-0.16-0.3-0.28-0.49-0.36c-0.19-0.08-0.39-0.12-0.62-0.12c-0.22,0-0.42,0.04-0.61,0.12c-0.19,0.08-0.35,0.2-0.48,0.36
		c-0.13,0.16-0.24,0.36-0.32,0.6c-0.08,0.24-0.11,0.51-0.11,0.82c0,0.31,0.04,0.58,0.11,0.82c0.08,0.24,0.18,0.44,0.32,0.6
		c0.14,0.16,0.3,0.28,0.49,0.36c0.19,0.08,0.4,0.12,0.62,0.12c0.22,0,0.43-0.04,0.61-0.12c0.19-0.08,0.35-0.2,0.48-0.36
		c0.13-0.16,0.24-0.36,0.32-0.6C210.67,320.31,210.7,320.04,210.7,319.73L210.7,319.73z M212.25,319.73c0,0.46-0.07,0.88-0.22,1.25
		c-0.14,0.38-0.35,0.7-0.62,0.97c-0.27,0.27-0.59,0.48-0.97,0.62c-0.38,0.15-0.8,0.22-1.27,0.22c-0.48,0-0.91-0.07-1.29-0.22
		c-0.38-0.15-0.71-0.35-0.97-0.62c-0.27-0.27-0.47-0.59-0.61-0.97c-0.14-0.38-0.21-0.79-0.21-1.25c0-0.46,0.07-0.88,0.22-1.25
		c0.14-0.38,0.35-0.7,0.62-0.97c0.27-0.27,0.59-0.48,0.97-0.62c0.38-0.15,0.8-0.22,1.27-0.22c0.48,0,0.91,0.07,1.29,0.22
		c0.38,0.15,0.71,0.35,0.97,0.62c0.27,0.27,0.47,0.59,0.61,0.97C212.18,318.85,212.25,319.27,212.25,319.73L212.25,319.73z
		 M217.22,317.94h-0.13c-0.46,0-0.86,0.07-1.21,0.2c-0.35,0.13-0.62,0.33-0.81,0.6v3.91h-1.5v-5.84h1.24l0.14,0.82h0.02
		c0.18-0.3,0.42-0.53,0.73-0.7c0.31-0.17,0.68-0.26,1.12-0.26c0.15,0,0.28,0.01,0.39,0.02V317.94L217.22,317.94z M225.56,321.65
		c0.28,0,0.57-0.03,0.88-0.08c0.31-0.06,0.62-0.14,0.93-0.24v1.14c-0.19,0.08-0.48,0.16-0.86,0.23c-0.39,0.07-0.79,0.11-1.21,0.11
		c-0.42,0-0.82-0.05-1.2-0.16c-0.38-0.11-0.71-0.28-0.99-0.52c-0.28-0.24-0.51-0.55-0.67-0.92c-0.16-0.38-0.25-0.84-0.25-1.37
		c0-0.53,0.08-0.99,0.23-1.39c0.15-0.4,0.36-0.73,0.62-0.99c0.26-0.26,0.56-0.46,0.9-0.59c0.34-0.13,0.68-0.2,1.04-0.2
		c0.38,0,0.72,0.06,1.04,0.17c0.32,0.11,0.59,0.29,0.82,0.53c0.23,0.24,0.41,0.55,0.54,0.93c0.13,0.38,0.19,0.83,0.19,1.35
		c0,0.2-0.01,0.37-0.02,0.51h-3.89c0.02,0.27,0.08,0.5,0.18,0.69c0.1,0.19,0.24,0.35,0.4,0.46c0.17,0.12,0.36,0.21,0.58,0.26
		S225.3,321.65,225.56,321.65L225.56,321.65z M224.97,317.77c-0.18,0-0.35,0.03-0.49,0.1c-0.14,0.07-0.27,0.16-0.37,0.27
		c-0.1,0.12-0.19,0.25-0.25,0.4c-0.06,0.15-0.1,0.31-0.12,0.49h2.33c0-0.17-0.02-0.34-0.07-0.49c-0.05-0.15-0.12-0.29-0.21-0.4
		c-0.09-0.12-0.21-0.21-0.34-0.27C225.32,317.81,225.16,317.77,224.97,317.77L224.97,317.77z M234.17,316.8l-2.3,5.84h-1.44
		l-2.3-5.84h1.53l0.83,2.23c0.24,0.63,0.45,1.25,0.65,1.88h0.02c0.17-0.54,0.38-1.16,0.64-1.84l0.83-2.27H234.17L234.17,316.8z
		 M238.08,321.65c0.28,0,0.57-0.03,0.88-0.08c0.3-0.06,0.62-0.14,0.93-0.24v1.14c-0.19,0.08-0.48,0.16-0.86,0.23
		c-0.39,0.07-0.79,0.11-1.21,0.11c-0.42,0-0.82-0.05-1.2-0.16c-0.38-0.11-0.71-0.28-0.99-0.52c-0.28-0.24-0.51-0.55-0.67-0.92
		c-0.16-0.38-0.25-0.84-0.25-1.37c0-0.53,0.08-0.99,0.23-1.39c0.15-0.4,0.36-0.73,0.62-0.99c0.26-0.26,0.56-0.46,0.9-0.59
		c0.34-0.13,0.68-0.2,1.04-0.2c0.38,0,0.72,0.06,1.04,0.17c0.32,0.11,0.59,0.29,0.82,0.53c0.23,0.24,0.41,0.55,0.54,0.93
		c0.13,0.38,0.19,0.83,0.19,1.35c0,0.2-0.01,0.37-0.02,0.51h-3.89c0.02,0.27,0.08,0.5,0.18,0.69c0.1,0.19,0.24,0.35,0.4,0.46
		c0.16,0.12,0.36,0.21,0.58,0.26C237.58,321.62,237.83,321.65,238.08,321.65L238.08,321.65z M237.5,317.77
		c-0.18,0-0.35,0.03-0.49,0.1c-0.14,0.07-0.27,0.16-0.37,0.27c-0.1,0.12-0.19,0.25-0.25,0.4c-0.06,0.15-0.1,0.31-0.12,0.49h2.33
		c0-0.17-0.02-0.34-0.07-0.49c-0.05-0.15-0.12-0.29-0.21-0.4c-0.09-0.12-0.21-0.21-0.34-0.27
		C237.84,317.81,237.68,317.77,237.5,317.77L237.5,317.77z M244.98,317.94h-0.12c-0.45,0-0.84,0.07-1.17,0.2
		c-0.34,0.13-0.6,0.33-0.78,0.6v3.91h-1.45v-5.84h1.2l0.14,0.82h0.02c0.17-0.3,0.41-0.53,0.71-0.7c0.3-0.17,0.66-0.26,1.08-0.26
		c0.15,0,0.27,0.01,0.38,0.02V317.94L244.98,317.94z M245.1,316.8h1.55l0.89,2.12c0.33,0.8,0.57,1.4,0.71,1.79h0.03
		c0.1-0.3,0.32-0.86,0.65-1.68l0.92-2.23h1.57l-3.82,8.65h-1.43l1.36-3.13L245.1,316.8L245.1,316.8z M256.44,319.73
		c0-0.31-0.04-0.58-0.11-0.82c-0.07-0.24-0.18-0.44-0.3-0.6c-0.13-0.16-0.29-0.28-0.47-0.36c-0.18-0.08-0.38-0.12-0.6-0.12
		c-0.21,0-0.41,0.04-0.59,0.12c-0.18,0.08-0.34,0.2-0.47,0.36c-0.13,0.16-0.23,0.36-0.31,0.6c-0.07,0.24-0.11,0.51-0.11,0.82
		c0,0.31,0.04,0.58,0.11,0.82c0.07,0.24,0.18,0.44,0.31,0.6c0.13,0.16,0.29,0.28,0.47,0.36c0.18,0.08,0.38,0.12,0.6,0.12
		c0.22,0,0.41-0.04,0.59-0.12c0.18-0.08,0.33-0.2,0.47-0.36c0.13-0.16,0.23-0.36,0.3-0.6C256.4,320.31,256.44,320.04,256.44,319.73
		L256.44,319.73z M257.94,319.73c0,0.46-0.07,0.88-0.21,1.25c-0.14,0.38-0.34,0.7-0.6,0.97c-0.26,0.27-0.57,0.48-0.94,0.62
		c-0.37,0.15-0.78,0.22-1.23,0.22c-0.47,0-0.88-0.07-1.25-0.22c-0.37-0.15-0.68-0.35-0.94-0.62c-0.26-0.27-0.45-0.59-0.59-0.97
		c-0.14-0.38-0.21-0.79-0.21-1.25c0-0.46,0.07-0.88,0.21-1.25c0.14-0.38,0.34-0.7,0.6-0.97c0.26-0.27,0.57-0.48,0.94-0.62
		c0.37-0.15,0.78-0.22,1.23-0.22c0.47,0,0.88,0.07,1.25,0.22c0.37,0.15,0.68,0.35,0.94,0.62c0.26,0.27,0.45,0.59,0.59,0.97
		C257.87,318.85,257.94,319.27,257.94,319.73L257.94,319.73z M260.56,317.62h0.02c0.09-0.12,0.19-0.24,0.33-0.36
		c0.13-0.12,0.28-0.22,0.45-0.31c0.17-0.09,0.35-0.16,0.56-0.21c0.2-0.05,0.42-0.08,0.65-0.08c0.22,0,0.42,0.02,0.63,0.07
		c0.2,0.05,0.39,0.12,0.55,0.23c0.17,0.1,0.32,0.23,0.44,0.4c0.13,0.16,0.23,0.36,0.3,0.58c0.04,0.12,0.07,0.26,0.08,0.41
		c0.01,0.15,0.02,0.31,0.02,0.51v3.79h-1.45v-3.57c0-0.16-0.01-0.29-0.02-0.41c-0.01-0.11-0.03-0.21-0.07-0.29
		c-0.07-0.19-0.18-0.32-0.33-0.4c-0.15-0.08-0.33-0.12-0.54-0.12c-0.28,0-0.55,0.07-0.81,0.2c-0.26,0.13-0.49,0.32-0.69,0.57v4.02
		h-1.45v-5.84h1.2L260.56,317.62L260.56,317.62z M269.23,321.65c0.28,0,0.57-0.03,0.88-0.08c0.3-0.06,0.62-0.14,0.93-0.24v1.14
		c-0.19,0.08-0.48,0.16-0.86,0.23c-0.39,0.07-0.79,0.11-1.21,0.11c-0.42,0-0.82-0.05-1.2-0.16c-0.38-0.11-0.71-0.28-0.99-0.52
		c-0.28-0.24-0.51-0.55-0.67-0.92c-0.17-0.38-0.25-0.84-0.25-1.37c0-0.53,0.08-0.99,0.23-1.39c0.15-0.4,0.36-0.73,0.62-0.99
		c0.26-0.26,0.56-0.46,0.9-0.59c0.34-0.13,0.68-0.2,1.04-0.2c0.38,0,0.72,0.06,1.04,0.17c0.32,0.11,0.59,0.29,0.82,0.53
		c0.23,0.24,0.41,0.55,0.54,0.93c0.13,0.38,0.19,0.83,0.19,1.35c0,0.2-0.01,0.37-0.02,0.51h-3.89c0.02,0.27,0.08,0.5,0.18,0.69
		c0.1,0.19,0.24,0.35,0.4,0.46c0.17,0.12,0.36,0.21,0.58,0.26S268.98,321.65,269.23,321.65L269.23,321.65z M268.65,317.77
		c-0.18,0-0.35,0.03-0.49,0.1c-0.14,0.07-0.27,0.16-0.37,0.27c-0.1,0.12-0.19,0.25-0.25,0.4c-0.06,0.15-0.1,0.31-0.12,0.49h2.33
		c0-0.17-0.02-0.34-0.07-0.49c-0.05-0.15-0.12-0.29-0.21-0.4c-0.09-0.12-0.21-0.21-0.34-0.27
		C268.99,317.81,268.83,317.77,268.65,317.77L268.65,317.77z"/>
	<path class="st2" d="M57.62,236.65c2.62,4.28-0.93,11.09-6.15,13.89c-5.22,2.81-10.52,3.21-13.6-0.89
		c-2.9-3.85-0.21-10.84,4.87-13.89C47.89,232.67,54.35,231.3,57.62,236.65L57.62,236.65z"/>
	<path class="st3" d="M38.77,266.69c2.77,3.85-1.68,10.11-6.9,12.92c-5.22,2.81-10.9,3.28-13.98-0.36
		c-3.11-3.68,0.77-10.24,5.85-13.29C28.89,262.86,35.38,261.97,38.77,266.69L38.77,266.69z"/>
	<path class="st4" d="M20.91,307.92c-4.22,2.27-11.86,3.33-13.72-0.57c-1.8-3.77,2.22-8.85,6.65-11.51
		c4.25-2.55,9.96-3.67,12.93-1.46C31.86,298.19,25.92,305.23,20.91,307.92L20.91,307.92z"/>
	<path class="st5" d="M68.97,247.18c1.71,2.79-0.96,8.38-4.37,10.21c-3.41,1.83-6.73,3.06-9.6,0.63c-3.18-2.7,0.01-8.25,3.11-10.57
		C61.48,244.93,66.83,243.68,68.97,247.18L68.97,247.18z"/>
	<path class="st6" d="M54.17,270.53c1.8,2.74-1.21,8.05-4.62,9.88c-3.41,1.83-7.06,2.89-9.6,0.87c-3.26-2.59,0.26-8.17,3.36-10.49
		C46.68,268.28,52.19,267.52,54.17,270.53L54.17,270.53z"/>
	<path class="st7" d="M45.87,292.97c2.2,2.64-1.17,7.39-4.54,9.37c-3.34,1.96-7.32,2.72-9.47,1.08c-3.02-2.3,0.42-7.34,3.75-9.64
		C39.06,291.39,43.99,290.72,45.87,292.97L45.87,292.97z"/>
	<path class="st8" d="M79.27,256.49c1.31,2.14-0.25,5.15-2.69,7.1c-2.35,1.89-5.51,2.78-7.68,0.94c-2.36-2,0.15-5.98,2.45-7.7
		C73.85,254.96,77.68,253.89,79.27,256.49L79.27,256.49z"/>
	<path class="st9" d="M68.41,273.92c1.4,2.07-0.25,5.15-2.69,7.1c-2.35,1.89-5.51,2.78-7.68,0.94c-2.36-2,0.32-5.81,2.62-7.54
		C63.16,272.56,66.83,271.57,68.41,273.92L68.41,273.92z"/>
	<path class="st10" d="M62.5,290.69c1.46,1.66-0.42,4.98-2.85,6.93c-2.35,1.89-5.77,2.54-7.51,1.11c-2.07-1.7,0.56-5.57,2.86-7.29
		C57.49,289.58,60.96,288.94,62.5,290.69L62.5,290.69z"/>
	<path class="st8" d="M86.62,263.01c0.96,1.59-0.4,3.89-2.14,5.39c-1.69,1.46-4.2,2.21-5.54,1.03c-1.53-1.34,0.09-4.33,1.7-5.72
		C82.5,262.11,85.56,261.25,86.62,263.01L86.62,263.01z"/>
	<path class="st9" d="M78.73,276.41c0.96,1.59-0.4,3.89-2.14,5.39c-1.69,1.46-4.2,2.21-5.54,1.03c-1.53-1.34,0.09-4.33,1.7-5.72
		C74.61,275.51,77.67,274.65,78.73,276.41L78.73,276.41z"/>
	<path class="st9" d="M74.42,289.29c0.89,1.48-0.21,3.7-1.82,5.09c-1.58,1.36-4.48,2.14-5.72,1.04c-1.42-1.25,0.25-4.1,1.75-5.4
		C70.34,288.54,73.43,287.65,74.42,289.29L74.42,289.29z"/>
	<path class="st11" d="M92.06,267.89c0.74,1.23-0.31,3-1.65,4.16c-1.31,1.13-3.24,1.71-4.27,0.8c-1.18-1.04,0.12-3.31,1.36-4.39
		C88.93,267.22,91.24,266.53,92.06,267.89L92.06,267.89z"/>
	<path class="st11" d="M86.3,278.32c0.74,1.23-0.31,3-1.65,4.16c-1.31,1.13-3.24,1.71-4.27,0.8c-1.18-1.04,0.11-3.31,1.36-4.39
		C83.17,277.65,85.48,276.96,86.3,278.32L86.3,278.32z"/>
	<path class="st11" d="M83.75,288.02c0.74,1.23-0.31,3-1.65,4.16c-1.31,1.13-3.24,1.71-4.27,0.8c-1.18-1.04,0.12-3.31,1.36-4.39
		C80.62,287.35,82.93,286.66,83.75,288.02L83.75,288.02z"/>
</g>
</svg>
