<?xml version="1.0" encoding="utf-8"?>
<!-- Generator: Adobe Illustrator 25.2.1, SVG Export Plug-In . SVG Version: 6.00 Build 0)  -->
<svg version="1.1" xmlns="http://www.w3.org/2000/svg" xmlns:xlink="http://www.w3.org/1999/xlink" x="0px" y="0px"
	 viewBox="0 0 841.89 595.28" style="enable-background:new 0 0 841.89 595.28;" xml:space="preserve">
<style type="text/css">
	.st0{display:none;}
	.st1{display:inline;}
	.st2{fill:#010101;}
	.st3{fill:#FFFFFF;}
	.st4{fill-rule:evenodd;clip-rule:evenodd;fill:#009247;}
	.st5{fill-rule:evenodd;clip-rule:evenodd;fill:#F16122;}
	.st6{fill-rule:evenodd;clip-rule:evenodd;fill:#D71440;}
	.st7{fill-rule:evenodd;clip-rule:evenodd;fill:#0087BF;}
	.st8{fill-rule:evenodd;clip-rule:evenodd;fill:#034694;}
</style>
<g id="FreeVector.com_Background">
</g>
<g id="Visit_FreeVector.com" class="st0">
	<g class="st1">
		<path class="st2" d="M194.71,615.61c-0.03-1.49-1.35-2.54-2.81-2.54c-3.21,0-3.72,2.74-3.72,5.17c0,2.26,0.98,4.6,3.42,4.6
			c1.99,0,3-1.15,3.27-3.01h5.58c-0.51,4.69-4.16,7.4-8.82,7.4c-5.27,0-9.19-3.62-9.19-8.99c0-5.58,3.55-9.57,9.19-9.57
			c4.36,0,8.24,2.3,8.65,6.93H194.71z"/>
		<path class="st2" d="M209.63,608.8c-5.42,0-9.19,4.01-9.19,9.26c0,5.25,3.77,9.23,9.19,9.23c5.42,0,9.23-3.98,9.23-9.23
			C218.85,612.81,215.04,608.8,209.63,608.8"/>
		<path class="st2" d="M179.58,621.81c-1.49,0-2.53,1.1-2.53,2.54c0,1.44,1.04,2.53,2.53,2.53c1.49,0,2.53-1.09,2.53-2.53
			C182.11,622.91,181.06,621.81,179.58,621.81"/>
		<path class="st2" d="M219.26,609.93h5.44v2.34h0.06c1.02-1.71,2.83-2.83,4.91-2.83c2.14,0,4.05,0.69,4.97,2.77
			c1.35-1.81,3.03-2.77,5.34-2.77c5.44,0,6.03,4.12,6.03,7.38v10.21h-5.6v-10.05c0-1.85-0.89-2.93-2.34-2.93
			c-2.41,0-2.64,1.84-2.64,4.61v8.37h-5.6v-9.72c0-2.01-0.6-3.26-2.11-3.26c-2.01,0-2.87,1.15-2.87,4.65v8.33h-5.61V609.93z"/>
		<polygon class="st2" points="105.37,626.85 98.98,626.85 93.34,609.93 99.11,609.93 102.21,621.12 102.27,621.12 105.4,609.93 
			111.05,609.93 		"/>
		<path class="st2" d="M114.06,619.75c0.1,2.31,1.44,3.84,3.78,3.84c1.33,0,2.63-0.62,3.15-1.86h5.19
			c-1.01,3.91-4.63,5.61-8.41,5.61c-5.5,0-9.26-3.33-9.26-9c0-5.18,4.15-8.89,9.13-8.89c6.06,0,9.1,4.56,8.84,10.29H114.06z"/>
		<path class="st2" d="M138.33,616.13c-0.03-1.43-1.3-2.45-2.71-2.45c-3.1,0-3.58,2.65-3.58,4.99c0,2.19,0.95,4.43,3.3,4.43
			c1.92,0,2.89-1.11,3.16-2.91h5.37c-0.48,4.53-4.01,7.14-8.5,7.14c-5.09,0-8.86-3.49-8.86-8.67c0-5.38,3.42-9.22,8.86-9.22
			c4.2,0,7.95,2.21,8.34,6.68H138.33z"/>
		<path class="st2" d="M154.4,613.52h-3.41v7.69c0,1.34,0.78,1.63,1.98,1.63c0.45,0,0.95-0.07,1.43-0.07v4.08
			c-1,0.03-2.01,0.16-3.03,0.16c-4.72,0-5.93-1.37-5.93-5.97v-7.52h-2.8v-3.59h2.8v-5.12h5.55v5.12h3.41V613.52z"/>
		<path class="st2" d="M162.01,609.45c-5.25,0-8.9,3.88-8.9,8.96c0,5.08,3.65,8.93,8.9,8.93s8.93-3.85,8.93-8.93
			C170.94,613.33,167.25,609.45,162.01,609.45"/>
		<path class="st2" d="M170.56,609.93h5.38v2.96h0.06c0.81-2.14,2.7-3.29,5.08-3.29c0.42,0,0.88,0.04,1.3,0.12v5.05
			c-0.72-0.19-1.37-0.32-2.12-0.32c-2.74,0-4.17,1.89-4.17,4v8.38h-5.54V609.93z"/>
		<path class="st2" d="M49.83,609.93h5.38v2.96h0.06c0.81-2.14,2.71-3.29,5.09-3.29c0.42,0,0.88,0.04,1.3,0.12v5.05
			c-0.71-0.19-1.36-0.32-2.12-0.32c-2.73,0-4.17,1.89-4.17,4v8.38h-5.54V609.93z"/>
		<path class="st2" d="M65.21,619.75c0.1,2.31,1.43,3.84,3.78,3.84c1.33,0,2.64-0.62,3.16-1.86h5.19c-1.01,3.91-4.63,5.61-8.41,5.61
			c-5.51,0-9.26-3.33-9.26-9c0-5.18,4.14-8.89,9.13-8.89c6.06,0,9.09,4.56,8.83,10.29H65.21z"/>
		<path class="st2" d="M82.68,619.75c0.1,2.31,1.43,3.84,3.78,3.84c1.33,0,2.64-0.62,3.16-1.86h5.18c-1.01,3.91-4.63,5.61-8.41,5.61
			c-5.51,0-9.25-3.33-9.25-9c0-5.18,4.13-8.89,9.13-8.89c6.06,0,9.09,4.56,8.83,10.29H82.68z"/>
		<path class="st2" d="M48.82,607.5c0.49,0,0.98,0.03,1.5,0.09v-3.91c-0.88-0.03-1.79-0.1-2.67-0.1c-4.72,0-6.42,1.5-6.42,6.35
			h-2.67v3.59h2.67v13.33h5.54v-13.33h3.32v-3.59h-3.32v-0.75C46.76,607.65,47.54,607.5,48.82,607.5"/>
		<path class="st3" d="M33.09,615.31c0,6.9-5.59,12.5-12.5,12.5c-6.9,0-12.5-5.59-12.5-12.5c0-6.9,5.6-12.5,12.5-12.5
			C27.5,602.82,33.09,608.41,33.09,615.31"/>
		<path class="st2" d="M20.56,602.77c-1.14,0-2.24,0.15-3.29,0.42c0.43,0.04,0.71,0.31,0.86,0.85c0,0,2.35,7.77,2.63,8.64
			c0.28,0.88,0.61,1.83,0.61,1.83c-0.19,0.16-0.36,0.36-0.48,0.62c-0.24,0.5-0.37,0.91-0.43,1.32c-0.37-0.62-1.79-2.37-2.75-3.53
			c0,0-0.06-0.78-0.27-1.52c-0.21-0.74-1.54-5.73-1.54-5.73c-0.24-0.93-0.14-1.74,0.37-2.18c-4.9,1.73-8.41,6.36-8.41,11.79
			c0,4.94,2.9,9.21,7.12,11.25c-0.43-0.64-0.93-1.62-1.17-3.02c-0.39-2.3-0.46-3.78-0.75-5.06c-0.39-1.71-0.27-2.11,0.32-2.86
			c0.29-0.37,0.62-0.6,0.93-0.7c0.31-0.08,0.63,0.1,0.75,0.23c0.74,0.79,2.16,2.32,2.33,2.54c0.34,0.4,0.39,0.91,0.14,1.51
			c-0.1,0.24-0.38,0.36-0.59,0.4c-0.49,0.11-1.05,0.01-1.24-0.15c-0.4-0.34-2.34-2.11-2.34-2.02c0,0.46,1.44,1.61,2.13,2.26
			c0.28,0.27,0.97,0.35,1.52,0.22c0.41-0.1,0.69-0.3,0.82-0.59c0.19-0.45,0.23-0.87,0.13-1.24c0.45,0.26,1.03,0.48,1.54,0.3
			c0.5-0.17,0.8-0.44,0.96-0.73c0.03,0.33,0.09,0.7,0.16,1.15c0.17,1.12,0.38,1.75,0.51,2.12c0.05,0.14,0.09,0.28,0.09,0.33
			c0,0.01-0.01,0.02-0.02,0.03c-0.3,0.41-0.73,1.09-1.01,1.92c-0.18,0.56-0.32,1.31-0.34,2.03c-0.01,0.25,0,0.64,0.07,0.64
			c0.08,0,0.07-0.4,0.09-0.64c0.08-0.72,0.19-1.45,0.4-1.97c0.28-0.68,0.64-1.24,1.04-1.79c0.02-0.02,0.02-0.04,0.03-0.05
			c0.09-0.14,0.04-0.29-0.06-0.59c-0.12-0.36-0.32-0.97-0.5-2.07c-0.25-1.62-0.34-2.22,0.25-3.45c0.48-1,1.75-1.01,2.02-0.9
			c0.11,0.06,0.11,0.67,0.13,1.21c0.01,0.6,0.03,1.36,0.12,2.27c0.13,1.15,0.6,2.05,1.02,2.57c0.34,0.42,0.62,0.6,0.69,0.54
			c0.06-0.06-0.24-0.29-0.54-0.76c-0.34-0.53-0.73-1.32-0.84-2.38c-0.1-0.9-0.11-1.64-0.12-2.24c-0.02-0.91-0.03-1.37-0.32-1.49
			c-0.15-0.06-0.46-0.09-0.82-0.05l2.34-7.85c0.41-1.42,0.84-1.99,1.75-1.9c0.01,0,0.02,0.01,0.03,0.01
			C24.83,603.32,22.76,602.77,20.56,602.77 M19.38,618.06c-0.61,0.21-1.41-0.34-1.77-0.62c-0.31-0.35-2.15-2.32-2.37-2.57
			c-0.46-0.53-0.11-1.63,1.03-2.01c0.32-0.11,0.82-0.12,1.12,0.22c1.34,1.61,2.75,3.32,2.85,3.65
			C20.41,617.32,20.09,617.81,19.38,618.06 M24.93,620.99l0.03,0.02c0,0-0.01-0.01-0.02-0.02C24.94,621,24.94,621,24.93,620.99"/>
		<path class="st2" d="M27.31,604.68c0.3,0.31,0.43,0.75,0.3,1.21l-2.11,9.36c-0.13,0.73-0.34,2.23-0.15,3.26
			c0.26,1.4,0.81,3.29,0.41,5.38c-0.22,1.11-0.55,2.31-1.11,3.25c5.01-1.68,8.61-6.35,8.61-11.86
			C33.26,610.82,30.88,606.9,27.31,604.68"/>
	</g>
	<g class="st1">
		<path class="st2" d="M264.79,611.78h3.98l-5.12,14.18h-3.91l-5.08-14.18h4.16l2.95,10.46L264.79,611.78z"/>
		<path class="st2" d="M274.68,610.09h-3.76v-3.41h3.76V610.09z M270.92,611.78h3.76v14.18h-3.76V611.78z"/>
		<path class="st2" d="M281.14,621.43c0.08,0.66,0.25,1.13,0.51,1.41c0.46,0.5,1.31,0.74,2.55,0.74c0.73,0,1.31-0.11,1.74-0.33
			c0.43-0.22,0.64-0.54,0.64-0.98c0-0.42-0.18-0.73-0.53-0.95c-0.35-0.22-1.64-0.59-3.87-1.12c-1.6-0.4-2.73-0.89-3.39-1.49
			c-0.66-0.59-0.99-1.44-0.99-2.55c0-1.31,0.51-2.43,1.54-3.37c1.03-0.94,2.47-1.41,4.34-1.41c1.77,0,3.21,0.35,4.32,1.06
			c1.11,0.71,1.75,1.93,1.92,3.67h-3.71c-0.05-0.48-0.19-0.85-0.4-1.13c-0.41-0.5-1.1-0.76-2.07-0.76c-0.8,0-1.37,0.13-1.71,0.38
			c-0.34,0.25-0.51,0.55-0.51,0.89c0,0.42,0.18,0.73,0.54,0.92c0.36,0.2,1.65,0.54,3.85,1.02c1.47,0.35,2.58,0.87,3.31,1.57
			c0.73,0.71,1.09,1.6,1.09,2.66c0,1.4-0.52,2.55-1.57,3.43c-1.05,0.89-2.66,1.33-4.85,1.33c-2.23,0-3.88-0.47-4.94-1.41
			c-1.06-0.94-1.59-2.14-1.59-3.6H281.14z"/>
		<path class="st2" d="M296.88,610.09h-3.76v-3.41h3.76V610.09z M293.12,611.78h3.76v14.18h-3.76V611.78z"/>
		<path class="st2" d="M299.01,614.55v-2.63h1.98v-3.95h3.68v3.95h2.31v2.63h-2.31v7.49c0,0.58,0.07,0.94,0.22,1.09
			c0.15,0.14,0.6,0.21,1.36,0.21c0.11,0,0.23,0,0.36-0.01c0.13,0,0.25-0.01,0.37-0.03v2.77l-1.76,0.07
			c-1.76,0.06-2.95-0.24-3.6-0.91c-0.42-0.42-0.62-1.08-0.62-1.96v-8.72H299.01z"/>
		<path class="st2" d="M322.59,606.62c0.19,0.01,0.45,0.04,0.78,0.07v3.02c-0.21-0.03-0.56-0.06-1.05-0.07
			c-0.49-0.01-0.83,0.1-1.01,0.33c-0.19,0.23-0.28,0.48-0.28,0.76s0,0.68,0,1.2h2.43v2.62h-2.43v11.42h-3.68v-11.42h-2.08v-2.62
			h2.03v-0.91c0-1.51,0.26-2.56,0.77-3.13c0.54-0.85,1.83-1.28,3.89-1.28C322.19,606.59,322.4,606.6,322.59,606.62z"/>
		<path class="st2" d="M333.48,611.46c0.05,0.01,0.15,0.01,0.32,0.02v3.8c-0.23-0.03-0.44-0.05-0.63-0.06
			c-0.18-0.01-0.33-0.01-0.44-0.01c-1.49,0-2.5,0.49-3.01,1.45c-0.29,0.55-0.43,1.39-0.43,2.52v6.77h-3.73v-14.18h3.54v2.48
			c0.57-0.95,1.07-1.59,1.5-1.94c0.69-0.58,1.6-0.87,2.71-0.87C333.37,611.45,333.43,611.45,333.48,611.46z"/>
		<path class="st2" d="M345.18,612.06c0.99,0.44,1.8,1.14,2.45,2.1c0.58,0.84,0.96,1.82,1.13,2.93c0.1,0.65,0.14,1.59,0.12,2.82
			h-10.32c0.06,1.43,0.55,2.43,1.48,3c0.56,0.36,1.24,0.53,2.04,0.53c0.84,0,1.53-0.22,2.05-0.65c0.29-0.24,0.54-0.56,0.76-0.98
			h3.79c-0.1,0.84-0.56,1.69-1.37,2.56c-1.27,1.38-3.04,2.07-5.33,2.07c-1.88,0-3.55-0.58-4.99-1.75c-1.44-1.16-2.16-3.06-2.16-5.68
			c0-2.46,0.65-4.34,1.95-5.65c1.3-1.31,2.99-1.97,5.07-1.97C343.08,611.4,344.19,611.62,345.18,612.06z M339.63,615.26
			c-0.52,0.54-0.85,1.28-0.99,2.2h6.38c-0.07-0.99-0.4-1.74-0.99-2.25c-0.59-0.51-1.32-0.77-2.19-0.77
			C340.89,614.45,340.16,614.72,339.63,615.26z"/>
		<path class="st2" d="M359.99,612.06c0.99,0.44,1.8,1.14,2.45,2.1c0.58,0.84,0.96,1.82,1.13,2.93c0.1,0.65,0.14,1.59,0.12,2.82
			h-10.32c0.06,1.43,0.55,2.43,1.48,3c0.56,0.36,1.24,0.53,2.04,0.53c0.84,0,1.53-0.22,2.05-0.65c0.29-0.24,0.54-0.56,0.76-0.98
			h3.79c-0.1,0.84-0.56,1.69-1.37,2.56c-1.27,1.38-3.04,2.07-5.33,2.07c-1.88,0-3.55-0.58-4.99-1.75c-1.44-1.16-2.16-3.06-2.16-5.68
			c0-2.46,0.65-4.34,1.95-5.65c1.3-1.31,2.99-1.97,5.07-1.97C357.89,611.4,359,611.62,359.99,612.06z M354.44,615.26
			c-0.52,0.54-0.85,1.28-0.99,2.2h6.38c-0.07-0.99-0.4-1.74-0.99-2.25c-0.59-0.51-1.32-0.77-2.2-0.77
			C355.7,614.45,354.96,614.72,354.44,615.26z"/>
		<path class="st2" d="M374.31,611.78h3.98l-5.12,14.18h-3.9l-5.08-14.18h4.16l2.95,10.46L374.31,611.78z"/>
		<path class="st2" d="M389.61,612.06c0.99,0.44,1.8,1.14,2.45,2.1c0.58,0.84,0.96,1.82,1.13,2.93c0.1,0.65,0.14,1.59,0.12,2.82
			h-10.32c0.06,1.43,0.55,2.43,1.48,3c0.56,0.36,1.25,0.53,2.04,0.53c0.84,0,1.53-0.22,2.05-0.65c0.29-0.24,0.54-0.56,0.76-0.98
			h3.79c-0.1,0.84-0.56,1.69-1.37,2.56c-1.27,1.38-3.04,2.07-5.33,2.07c-1.89,0-3.55-0.58-4.99-1.75c-1.44-1.16-2.16-3.06-2.16-5.68
			c0-2.46,0.65-4.34,1.95-5.65c1.3-1.31,2.99-1.97,5.07-1.97C387.51,611.4,388.62,611.62,389.61,612.06z M384.06,615.26
			c-0.52,0.54-0.85,1.28-0.99,2.2h6.38c-0.07-0.99-0.39-1.74-0.99-2.25c-0.59-0.51-1.32-0.77-2.19-0.77
			C385.32,614.45,384.58,614.72,384.06,615.26z"/>
		<path class="st2" d="M403.67,616.87c-0.07-0.53-0.25-1-0.53-1.43c-0.42-0.57-1.06-0.86-1.94-0.86c-1.25,0-2.11,0.62-2.57,1.86
			c-0.24,0.66-0.37,1.53-0.37,2.62c0,1.04,0.12,1.87,0.36,2.5c0.44,1.18,1.28,1.77,2.5,1.77c0.87,0,1.48-0.23,1.85-0.7
			c0.36-0.47,0.59-1.08,0.66-1.83h3.78c-0.09,1.13-0.5,2.19-1.22,3.2c-1.16,1.62-2.88,2.43-5.17,2.43c-2.28,0-3.96-0.67-5.03-2.03
			c-1.08-1.35-1.61-3.1-1.61-5.26c0-2.43,0.59-4.33,1.78-5.68c1.19-1.35,2.83-2.03,4.92-2.03c1.78,0,3.24,0.4,4.37,1.2
			c1.13,0.8,1.8,2.21,2.01,4.23H403.67z"/>
		<path class="st2" d="M408.54,614.55v-2.63h1.98v-3.95h3.67v3.95h2.31v2.63h-2.31v7.49c0,0.58,0.07,0.94,0.22,1.09
			c0.15,0.14,0.6,0.21,1.35,0.21c0.11,0,0.23,0,0.36-0.01c0.13,0,0.25-0.01,0.37-0.03v2.77l-1.76,0.07
			c-1.76,0.06-2.95-0.24-3.6-0.91c-0.42-0.42-0.62-1.08-0.62-1.96v-8.72H408.54z"/>
		<path class="st2" d="M430.7,624.23c-1.2,1.48-3.01,2.22-5.45,2.22c-2.44,0-4.25-0.74-5.45-2.22c-1.2-1.48-1.8-3.26-1.8-5.33
			c0-2.05,0.6-3.82,1.8-5.32c1.2-1.5,3.01-2.25,5.45-2.25c2.44,0,4.25,0.75,5.45,2.25c1.2,1.5,1.79,3.27,1.79,5.32
			C432.49,620.97,431.89,622.75,430.7,624.23z M427.74,622.18c0.58-0.77,0.87-1.87,0.87-3.29c0-1.42-0.29-2.51-0.87-3.28
			c-0.58-0.76-1.42-1.15-2.5-1.15c-1.08,0-1.92,0.38-2.51,1.15c-0.59,0.77-0.88,1.86-0.88,3.28c0,1.42,0.29,2.52,0.88,3.29
			c0.59,0.77,1.42,1.16,2.51,1.16C426.32,623.34,427.15,622.95,427.74,622.18z"/>
		<path class="st2" d="M443.01,611.46c0.05,0.01,0.15,0.01,0.32,0.02v3.8c-0.24-0.03-0.44-0.05-0.63-0.06
			c-0.18-0.01-0.33-0.01-0.44-0.01c-1.5,0-2.5,0.49-3.01,1.45c-0.29,0.55-0.43,1.39-0.43,2.52v6.77h-3.73v-14.18h3.54v2.48
			c0.57-0.95,1.07-1.59,1.5-1.94c0.69-0.58,1.6-0.87,2.71-0.87C442.9,611.45,442.96,611.45,443.01,611.46z"/>
		<path class="st2" d="M443.97,622.07h3.94v3.88h-3.94V622.07z"/>
		<path class="st2" d="M459.91,616.87c-0.07-0.53-0.25-1-0.54-1.43c-0.42-0.57-1.06-0.86-1.94-0.86c-1.25,0-2.11,0.62-2.57,1.86
			c-0.24,0.66-0.36,1.53-0.36,2.62c0,1.04,0.12,1.87,0.36,2.5c0.44,1.18,1.28,1.77,2.5,1.77c0.87,0,1.48-0.23,1.85-0.7
			c0.37-0.47,0.59-1.08,0.66-1.83h3.78c-0.09,1.13-0.5,2.19-1.22,3.2c-1.16,1.62-2.89,2.43-5.16,2.43c-2.28,0-3.96-0.67-5.04-2.03
			c-1.08-1.35-1.61-3.1-1.61-5.26c0-2.43,0.59-4.33,1.78-5.68c1.19-1.35,2.83-2.03,4.92-2.03c1.78,0,3.24,0.4,4.37,1.2
			c1.13,0.8,1.8,2.21,2.01,4.23H459.91z"/>
		<path class="st2" d="M478.07,624.23c-1.2,1.48-3.01,2.22-5.45,2.22s-4.25-0.74-5.45-2.22c-1.2-1.48-1.79-3.26-1.79-5.33
			c0-2.05,0.6-3.82,1.79-5.32c1.2-1.5,3.01-2.25,5.45-2.25s4.25,0.75,5.45,2.25c1.2,1.5,1.79,3.27,1.79,5.32
			C479.87,620.97,479.27,622.75,478.07,624.23z M475.11,622.18c0.58-0.77,0.87-1.87,0.87-3.29c0-1.42-0.29-2.51-0.87-3.28
			c-0.58-0.76-1.42-1.15-2.5-1.15c-1.09,0-1.92,0.38-2.51,1.15c-0.59,0.77-0.88,1.86-0.88,3.28c0,1.42,0.29,2.52,0.88,3.29
			c0.59,0.77,1.42,1.16,2.51,1.16C473.7,623.34,474.53,622.95,475.11,622.18z"/>
		<path class="st2" d="M500.2,611.83c0.61,0.24,1.16,0.67,1.65,1.28c0.4,0.49,0.67,1.1,0.81,1.82c0.09,0.48,0.13,1.17,0.13,2.09
			l-0.03,8.93h-3.8v-9.02c0-0.54-0.09-0.98-0.26-1.33c-0.33-0.66-0.94-0.99-1.82-0.99c-1.03,0-1.73,0.43-2.12,1.27
			c-0.2,0.45-0.3,0.99-0.3,1.62v8.44h-3.73v-8.44c0-0.84-0.09-1.45-0.26-1.84c-0.31-0.68-0.92-1.03-1.83-1.03
			c-1.06,0-1.77,0.34-2.13,1.03c-0.2,0.39-0.3,0.97-0.3,1.74v8.53h-3.76v-14.14h3.6v2.07c0.46-0.74,0.89-1.27,1.3-1.58
			c0.72-0.56,1.65-0.84,2.79-0.84c1.08,0,1.96,0.24,2.62,0.72c0.54,0.44,0.95,1.01,1.22,1.71c0.49-0.84,1.09-1.45,1.81-1.84
			c0.76-0.39,1.62-0.59,2.55-0.59C498.97,611.46,499.59,611.59,500.2,611.83z"/>
		<path class="st2" d="M512.12,614.55v-2.63h1.98v-3.95h3.67v3.95h2.31v2.63h-2.31v7.49c0,0.58,0.07,0.94,0.22,1.09
			c0.15,0.14,0.6,0.21,1.36,0.21c0.11,0,0.23,0,0.36-0.01c0.13,0,0.25-0.01,0.37-0.03v2.77l-1.76,0.07
			c-1.76,0.06-2.95-0.24-3.6-0.91c-0.42-0.42-0.62-1.08-0.62-1.96v-8.72H512.12z"/>
		<path class="st2" d="M534.28,624.23c-1.2,1.48-3.01,2.22-5.45,2.22c-2.44,0-4.25-0.74-5.45-2.22c-1.2-1.48-1.8-3.26-1.8-5.33
			c0-2.05,0.6-3.82,1.8-5.32c1.2-1.5,3.01-2.25,5.45-2.25c2.44,0,4.25,0.75,5.45,2.25c1.19,1.5,1.79,3.27,1.79,5.32
			C536.07,620.97,535.47,622.75,534.28,624.23z M531.31,622.18c0.58-0.77,0.87-1.87,0.87-3.29c0-1.42-0.29-2.51-0.87-3.28
			c-0.58-0.76-1.42-1.15-2.5-1.15c-1.08,0-1.92,0.38-2.51,1.15c-0.59,0.77-0.88,1.86-0.88,3.28c0,1.42,0.29,2.52,0.88,3.29
			c0.59,0.77,1.42,1.16,2.51,1.16C529.9,623.34,530.73,622.95,531.31,622.18z"/>
		<path class="st2" d="M551.96,606.62c0.19,0.01,0.45,0.04,0.78,0.07v3.02c-0.21-0.03-0.56-0.06-1.05-0.07
			c-0.49-0.01-0.83,0.1-1.02,0.33c-0.18,0.23-0.28,0.48-0.28,0.76s0,0.68,0,1.2h2.43v2.62h-2.43v11.42h-3.67v-11.42h-2.08v-2.62
			h2.03v-0.91c0-1.51,0.25-2.56,0.76-3.13c0.54-0.85,1.83-1.28,3.89-1.28C551.56,606.59,551.77,606.6,551.96,606.62z"/>
		<path class="st2" d="M558.79,610.09h-3.76v-3.41h3.76V610.09z M555.02,611.78h3.76v14.18h-3.76V611.78z"/>
		<path class="st2" d="M573.79,612.6c0.93,0.77,1.39,2.04,1.39,3.82v9.54h-3.8v-8.62c0-0.74-0.1-1.32-0.3-1.72
			c-0.36-0.73-1.05-1.09-2.06-1.09c-1.25,0-2.1,0.53-2.57,1.6c-0.24,0.56-0.36,1.28-0.36,2.16v7.67h-3.71v-14.14h3.59v2.07
			c0.48-0.73,0.92-1.26,1.35-1.58c0.76-0.57,1.72-0.86,2.89-0.86C571.67,611.45,572.86,611.83,573.79,612.6z"/>
		<path class="st2" d="M586.13,612.01c0.67,0.38,1.21,0.9,1.62,1.57v-6.76h3.76v19.14h-3.61V624c-0.53,0.84-1.13,1.45-1.8,1.83
			c-0.68,0.38-1.52,0.57-2.52,0.57c-1.65,0-3.04-0.67-4.17-2.01c-1.13-1.34-1.69-3.06-1.69-5.16c0-2.42,0.55-4.32,1.67-5.71
			c1.11-1.39,2.6-2.08,4.46-2.08C584.7,611.45,585.46,611.64,586.13,612.01z M587.04,622.12c0.54-0.78,0.82-1.79,0.82-3.03
			c0-1.73-0.44-2.97-1.31-3.72c-0.54-0.45-1.16-0.67-1.87-0.67c-1.08,0-1.87,0.41-2.38,1.23c-0.5,0.82-0.76,1.84-0.76,3.05
			c0,1.31,0.26,2.36,0.77,3.14c0.51,0.79,1.29,1.18,2.34,1.18C585.7,623.29,586.49,622.9,587.04,622.12z"/>
		<path class="st2" d="M619.99,611.83c0.61,0.24,1.16,0.67,1.65,1.28c0.4,0.49,0.67,1.1,0.81,1.82c0.09,0.48,0.13,1.17,0.13,2.09
			l-0.03,8.93h-3.8v-9.02c0-0.54-0.09-0.98-0.26-1.33c-0.33-0.66-0.94-0.99-1.82-0.99c-1.03,0-1.73,0.43-2.12,1.27
			c-0.2,0.45-0.3,0.99-0.3,1.62v8.44h-3.73v-8.44c0-0.84-0.09-1.45-0.26-1.84c-0.31-0.68-0.92-1.03-1.83-1.03
			c-1.06,0-1.77,0.34-2.13,1.03c-0.2,0.39-0.3,0.97-0.3,1.74v8.53h-3.76v-14.14h3.61v2.07c0.46-0.74,0.89-1.27,1.3-1.58
			c0.72-0.56,1.65-0.84,2.79-0.84c1.08,0,1.96,0.24,2.62,0.72c0.54,0.44,0.94,1.01,1.22,1.71c0.49-0.84,1.09-1.45,1.81-1.84
			c0.76-0.39,1.62-0.59,2.55-0.59C618.76,611.46,619.38,611.59,619.99,611.83z"/>
		<path class="st2" d="M637.8,624.23c-1.2,1.48-3.01,2.22-5.45,2.22c-2.44,0-4.26-0.74-5.45-2.22c-1.2-1.48-1.8-3.26-1.8-5.33
			c0-2.05,0.6-3.82,1.8-5.32c1.19-1.5,3.01-2.25,5.45-2.25c2.44,0,4.25,0.75,5.45,2.25c1.2,1.5,1.79,3.27,1.79,5.32
			C639.59,620.97,639,622.75,637.8,624.23z M634.84,622.18c0.58-0.77,0.87-1.87,0.87-3.29c0-1.42-0.29-2.51-0.87-3.28
			c-0.58-0.76-1.42-1.15-2.5-1.15c-1.09,0-1.92,0.38-2.51,1.15c-0.58,0.77-0.88,1.86-0.88,3.28c0,1.42,0.29,2.52,0.88,3.29
			c0.59,0.77,1.42,1.16,2.51,1.16C633.42,623.34,634.26,622.95,634.84,622.18z"/>
		<path class="st2" d="M650.12,611.46c0.05,0.01,0.15,0.01,0.32,0.02v3.8c-0.23-0.03-0.44-0.05-0.62-0.06
			c-0.18-0.01-0.33-0.01-0.44-0.01c-1.49,0-2.5,0.49-3.01,1.45c-0.29,0.55-0.43,1.39-0.43,2.52v6.77h-3.73v-14.18h3.54v2.48
			c0.57-0.95,1.07-1.59,1.5-1.94c0.69-0.58,1.6-0.87,2.71-0.87C650.01,611.45,650.07,611.45,650.12,611.46z"/>
		<path class="st2" d="M661.82,612.06c0.99,0.44,1.8,1.14,2.45,2.1c0.58,0.84,0.96,1.82,1.13,2.93c0.1,0.65,0.14,1.59,0.12,2.82
			H655.2c0.06,1.43,0.55,2.43,1.48,3c0.57,0.36,1.25,0.53,2.04,0.53c0.84,0,1.53-0.22,2.06-0.65c0.29-0.24,0.54-0.56,0.76-0.98h3.79
			c-0.1,0.84-0.56,1.69-1.37,2.56c-1.27,1.38-3.04,2.07-5.33,2.07c-1.89,0-3.55-0.58-4.99-1.75c-1.44-1.16-2.16-3.06-2.16-5.68
			c0-2.46,0.65-4.34,1.95-5.65c1.3-1.31,2.99-1.97,5.06-1.97C659.72,611.4,660.83,611.62,661.82,612.06z M656.27,615.26
			c-0.52,0.54-0.85,1.28-0.99,2.2h6.38c-0.07-0.99-0.39-1.74-0.99-2.25c-0.59-0.51-1.32-0.77-2.2-0.77
			C657.53,614.45,656.79,614.72,656.27,615.26z"/>
		<path class="st2" d="M683.53,611.78h3.98l-5.12,14.18h-3.9l-5.08-14.18h4.16l2.95,10.46L683.53,611.78z"/>
		<path class="st2" d="M698.83,612.06c0.99,0.44,1.8,1.14,2.45,2.1c0.58,0.84,0.96,1.82,1.13,2.93c0.1,0.65,0.14,1.59,0.12,2.82
			h-10.32c0.06,1.43,0.55,2.43,1.48,3c0.56,0.36,1.25,0.53,2.04,0.53c0.84,0,1.53-0.22,2.05-0.65c0.29-0.24,0.54-0.56,0.76-0.98
			h3.79c-0.1,0.84-0.56,1.69-1.37,2.56c-1.27,1.38-3.04,2.07-5.33,2.07c-1.88,0-3.55-0.58-4.99-1.75c-1.44-1.16-2.16-3.06-2.16-5.68
			c0-2.46,0.65-4.34,1.95-5.65c1.3-1.31,2.99-1.97,5.07-1.97C696.73,611.4,697.84,611.62,698.83,612.06z M693.28,615.26
			c-0.52,0.54-0.85,1.28-0.99,2.2h6.38c-0.07-0.99-0.39-1.74-0.99-2.25c-0.59-0.51-1.32-0.77-2.2-0.77
			C694.54,614.45,693.81,614.72,693.28,615.26z"/>
		<path class="st2" d="M712.89,616.87c-0.07-0.53-0.25-1-0.53-1.43c-0.42-0.57-1.06-0.86-1.94-0.86c-1.25,0-2.11,0.62-2.57,1.86
			c-0.24,0.66-0.36,1.53-0.36,2.62c0,1.04,0.12,1.87,0.36,2.5c0.44,1.18,1.27,1.77,2.5,1.77c0.87,0,1.48-0.23,1.85-0.7
			c0.37-0.47,0.59-1.08,0.66-1.83h3.78c-0.09,1.13-0.49,2.19-1.22,3.2c-1.16,1.62-2.88,2.43-5.16,2.43c-2.28,0-3.96-0.67-5.04-2.03
			c-1.07-1.35-1.61-3.1-1.61-5.26c0-2.43,0.59-4.33,1.79-5.68c1.19-1.35,2.83-2.03,4.92-2.03c1.78,0,3.24,0.4,4.37,1.2
			c1.13,0.8,1.8,2.21,2.01,4.23H712.89z"/>
		<path class="st2" d="M717.77,614.55v-2.63h1.98v-3.95h3.67v3.95h2.3v2.63h-2.3v7.49c0,0.58,0.08,0.94,0.22,1.09
			c0.15,0.14,0.6,0.21,1.36,0.21c0.11,0,0.23,0,0.36-0.01c0.13,0,0.25-0.01,0.37-0.03v2.77l-1.76,0.07
			c-1.76,0.06-2.95-0.24-3.6-0.91c-0.42-0.42-0.63-1.08-0.63-1.96v-8.72H717.77z"/>
		<path class="st2" d="M739.92,624.23c-1.2,1.48-3.01,2.22-5.45,2.22s-4.25-0.74-5.45-2.22c-1.2-1.48-1.79-3.26-1.79-5.33
			c0-2.05,0.6-3.82,1.79-5.32c1.2-1.5,3.01-2.25,5.45-2.25s4.25,0.75,5.45,2.25c1.2,1.5,1.8,3.27,1.8,5.32
			C741.72,620.97,741.12,622.75,739.92,624.23z M736.96,622.18c0.58-0.77,0.87-1.87,0.87-3.29c0-1.42-0.29-2.51-0.87-3.28
			c-0.58-0.76-1.42-1.15-2.5-1.15c-1.09,0-1.92,0.38-2.51,1.15c-0.58,0.77-0.88,1.86-0.88,3.28c0,1.42,0.29,2.52,0.88,3.29
			c0.59,0.77,1.42,1.16,2.51,1.16C735.55,623.34,736.38,622.95,736.96,622.18z"/>
		<path class="st2" d="M752.24,611.46c0.05,0.01,0.15,0.01,0.32,0.02v3.8c-0.24-0.03-0.44-0.05-0.63-0.06
			c-0.18-0.01-0.33-0.01-0.44-0.01c-1.5,0-2.5,0.49-3.01,1.45c-0.29,0.55-0.43,1.39-0.43,2.52v6.77h-3.73v-14.18h3.54v2.48
			c0.57-0.95,1.07-1.59,1.5-1.94c0.69-0.58,1.6-0.87,2.71-0.87C752.13,611.45,752.19,611.45,752.24,611.46z"/>
		<path class="st2" d="M765.89,625.96h-3.71v-19.17h3.71V625.96z"/>
		<path class="st2" d="M781.34,624.23c-1.2,1.48-3.01,2.22-5.45,2.22c-2.44,0-4.25-0.74-5.45-2.22c-1.2-1.48-1.8-3.26-1.8-5.33
			c0-2.05,0.6-3.82,1.8-5.32c1.2-1.5,3.01-2.25,5.45-2.25c2.44,0,4.25,0.75,5.45,2.25c1.2,1.5,1.79,3.27,1.79,5.32
			C783.14,620.97,782.54,622.75,781.34,624.23z M778.38,622.18c0.58-0.77,0.87-1.87,0.87-3.29c0-1.42-0.29-2.51-0.87-3.28
			c-0.58-0.76-1.42-1.15-2.5-1.15c-1.08,0-1.92,0.38-2.51,1.15c-0.59,0.77-0.88,1.86-0.88,3.28c0,1.42,0.29,2.52,0.88,3.29
			c0.59,0.77,1.42,1.16,2.51,1.16C776.97,623.34,777.8,622.95,778.38,622.18z"/>
		<path class="st2" d="M792.78,611.77c0.9,0.37,1.63,1.06,2.18,2.05v-2.05h3.62v13.46c0,1.83-0.31,3.21-0.92,4.14
			c-1.06,1.6-3.08,2.39-6.08,2.39c-1.81,0-3.29-0.35-4.43-1.06c-1.14-0.71-1.78-1.77-1.9-3.18h4.04c0.1,0.43,0.27,0.74,0.5,0.93
			c0.4,0.34,1.06,0.51,2.01,0.51c1.33,0,2.22-0.45,2.67-1.34c0.29-0.57,0.44-1.54,0.44-2.89v-0.91c-0.36,0.61-0.74,1.06-1.14,1.36
			c-0.74,0.56-1.69,0.84-2.87,0.84c-1.82,0-3.27-0.64-4.36-1.92c-1.09-1.28-1.63-3.01-1.63-5.19c0-2.11,0.52-3.88,1.57-5.31
			c1.05-1.43,2.53-2.15,4.45-2.15C791.64,611.45,792.26,611.56,792.78,611.77z M794.04,621.94c0.59-0.65,0.89-1.7,0.89-3.13
			c0-1.34-0.28-2.37-0.85-3.07c-0.56-0.7-1.32-1.05-2.26-1.05c-1.29,0-2.18,0.61-2.67,1.83c-0.26,0.65-0.39,1.45-0.39,2.41
			c0,0.82,0.14,1.56,0.41,2.2c0.5,1.2,1.39,1.79,2.69,1.79C792.72,622.92,793.45,622.6,794.04,621.94z"/>
		<path class="st2" d="M813.87,624.23c-1.2,1.48-3.01,2.22-5.45,2.22c-2.44,0-4.25-0.74-5.45-2.22c-1.2-1.48-1.79-3.26-1.79-5.33
			c0-2.05,0.6-3.82,1.79-5.32c1.2-1.5,3.01-2.25,5.45-2.25c2.44,0,4.25,0.75,5.45,2.25c1.2,1.5,1.8,3.27,1.8,5.32
			C815.67,620.97,815.07,622.75,813.87,624.23z M810.91,622.18c0.58-0.77,0.87-1.87,0.87-3.29c0-1.42-0.29-2.51-0.87-3.28
			c-0.58-0.76-1.42-1.15-2.5-1.15c-1.08,0-1.92,0.38-2.51,1.15c-0.59,0.77-0.88,1.86-0.88,3.28c0,1.42,0.29,2.52,0.88,3.29
			c0.59,0.77,1.42,1.16,2.51,1.16C809.5,623.34,810.33,622.95,810.91,622.18z"/>
		<path class="st2" d="M821.18,621.43c0.08,0.66,0.25,1.13,0.51,1.41c0.46,0.5,1.31,0.74,2.55,0.74c0.73,0,1.31-0.11,1.74-0.33
			c0.43-0.22,0.64-0.54,0.64-0.98c0-0.42-0.17-0.73-0.53-0.95c-0.35-0.22-1.64-0.59-3.86-1.12c-1.6-0.4-2.73-0.89-3.39-1.49
			c-0.66-0.59-0.99-1.44-0.99-2.55c0-1.31,0.51-2.43,1.54-3.37c1.03-0.94,2.47-1.41,4.34-1.41c1.77,0,3.21,0.35,4.32,1.06
			c1.11,0.71,1.75,1.93,1.92,3.67h-3.71c-0.05-0.48-0.19-0.85-0.4-1.13c-0.41-0.5-1.1-0.76-2.07-0.76c-0.8,0-1.37,0.13-1.71,0.38
			c-0.34,0.25-0.51,0.55-0.51,0.89c0,0.42,0.18,0.73,0.54,0.92c0.36,0.2,1.65,0.54,3.85,1.02c1.47,0.35,2.58,0.87,3.31,1.57
			c0.73,0.71,1.09,1.6,1.09,2.66c0,1.4-0.52,2.55-1.57,3.43c-1.05,0.89-2.66,1.33-4.85,1.33c-2.23,0-3.88-0.47-4.94-1.41
			c-1.06-0.94-1.59-2.14-1.59-3.6H821.18z"/>
	</g>
	<g class="st1">
		<path class="st2" d="M7.46,637.86h2.29v9.03h5.49v1.98H7.46V637.86z"/>
		<path class="st2" d="M25.28,647.9c-0.83,0.86-2.03,1.29-3.61,1.29c-1.57,0-2.78-0.43-3.61-1.29c-1.12-1.05-1.67-2.57-1.67-4.54
			c0-2.02,0.56-3.53,1.67-4.54c0.83-0.86,2.03-1.29,3.61-1.29c1.57,0,2.78,0.43,3.61,1.29c1.11,1.01,1.67,2.53,1.67,4.54
			C26.94,645.33,26.39,646.84,25.28,647.9z M23.84,646.22c0.53-0.67,0.8-1.63,0.8-2.87c0-1.24-0.27-2.19-0.8-2.87
			c-0.54-0.68-1.26-1.01-2.17-1.01c-0.91,0-1.64,0.34-2.18,1.01c-0.54,0.67-0.81,1.63-0.81,2.87c0,1.24,0.27,2.2,0.81,2.87
			c0.54,0.67,1.27,1.01,2.18,1.01C22.58,647.23,23.31,646.89,23.84,646.22z"/>
		<path class="st2" d="M36.1,641.31c-0.17-0.75-0.6-1.28-1.28-1.57c-0.38-0.16-0.8-0.25-1.26-0.25c-0.89,0-1.62,0.33-2.19,1
			c-0.57,0.67-0.86,1.67-0.86,3.01c0,1.35,0.31,2.3,0.93,2.86c0.62,0.56,1.32,0.84,2.11,0.84c0.77,0,1.41-0.22,1.9-0.66
			c0.49-0.44,0.8-1.02,0.91-1.73h-2.55v-1.84h4.59v5.9h-1.52l-0.23-1.37c-0.44,0.52-0.84,0.88-1.19,1.1
			c-0.61,0.37-1.35,0.55-2.24,0.55c-1.46,0-2.65-0.5-3.58-1.51c-0.97-1.01-1.46-2.4-1.46-4.16c0-1.78,0.49-3.21,1.47-4.28
			c0.98-1.07,2.28-1.61,3.89-1.61c1.4,0,2.52,0.36,3.37,1.07c0.85,0.71,1.34,1.6,1.46,2.66H36.1z"/>
		<path class="st2" d="M49.06,647.9c-0.83,0.86-2.03,1.29-3.61,1.29c-1.57,0-2.78-0.43-3.61-1.29c-1.12-1.05-1.67-2.57-1.67-4.54
			c0-2.02,0.56-3.53,1.67-4.54c0.83-0.86,2.03-1.29,3.61-1.29c1.57,0,2.78,0.43,3.61,1.29c1.11,1.01,1.67,2.53,1.67,4.54
			C50.73,645.33,50.18,646.84,49.06,647.9z M47.63,646.22c0.53-0.67,0.8-1.63,0.8-2.87c0-1.24-0.27-2.19-0.8-2.87
			c-0.53-0.68-1.26-1.01-2.17-1.01c-0.91,0-1.64,0.34-2.18,1.01c-0.54,0.67-0.81,1.63-0.81,2.87c0,1.24,0.27,2.2,0.81,2.87
			c0.54,0.67,1.27,1.01,2.18,1.01C46.37,647.23,47.09,646.89,47.63,646.22z"/>
		<path class="st2" d="M58.83,648.87h-2.29v-11.01h2.29V648.87z"/>
		<path class="st2" d="M62.64,645.47c0.07,0.5,0.21,0.88,0.42,1.13c0.38,0.45,1.03,0.68,1.95,0.68c0.55,0,1-0.06,1.35-0.18
			c0.65-0.23,0.98-0.66,0.98-1.28c0-0.36-0.16-0.65-0.48-0.85c-0.32-0.19-0.83-0.37-1.52-0.51l-1.19-0.26
			c-1.17-0.26-1.97-0.54-2.41-0.84c-0.74-0.51-1.12-1.3-1.12-2.38c0-0.99,0.36-1.8,1.09-2.46c0.73-0.65,1.79-0.98,3.2-0.98
			c1.17,0,2.17,0.31,3,0.92c0.83,0.62,1.26,1.51,1.3,2.68H67c-0.04-0.66-0.34-1.13-0.89-1.41c-0.37-0.18-0.82-0.28-1.37-0.28
			c-0.61,0-1.09,0.12-1.45,0.36c-0.36,0.24-0.54,0.57-0.54,1c0,0.39,0.18,0.69,0.53,0.88c0.23,0.13,0.72,0.28,1.46,0.46l1.93,0.45
			c0.84,0.2,1.48,0.47,1.9,0.8c0.66,0.52,0.98,1.27,0.98,2.25c0,1-0.39,1.84-1.16,2.5c-0.78,0.66-1.87,1-3.29,1
			c-1.45,0-2.59-0.33-3.42-0.98c-0.83-0.65-1.24-1.55-1.24-2.7H62.64z"/>
		<path class="st2" d="M83.43,637.86v1.95h-3.29v9.06h-2.32v-9.06h-3.3v-1.95H83.43z"/>
		<path class="st2" d="M84.75,648.87v-11.01h2.29v4.2h4.27v-4.2h2.29v11.01h-2.29v-4.91h-4.27v4.91H84.75z"/>
		<path class="st2" d="M103.95,639.81h-5.82v2.34h5.35v1.91h-5.35v2.83h6.09v1.98h-8.34v-11.01h8.07V639.81z"/>
		<path class="st2" d="M111.31,639.01c0.89-0.91,2.01-1.36,3.38-1.36c1.83,0,3.17,0.61,4.02,1.82c0.47,0.68,0.72,1.37,0.75,2.05
			h-2.3c-0.15-0.53-0.33-0.93-0.56-1.2c-0.41-0.48-1.02-0.72-1.82-0.72c-0.82,0-1.47,0.34-1.94,1.01c-0.47,0.67-0.71,1.63-0.71,2.87
			c0,1.24,0.25,2.16,0.75,2.78c0.5,0.62,1.13,0.92,1.9,0.92c0.79,0,1.39-0.26,1.8-0.79c0.23-0.28,0.42-0.71,0.57-1.27h2.29
			c-0.2,1.2-0.7,2.17-1.51,2.92c-0.81,0.75-1.85,1.13-3.11,1.13c-1.57,0-2.8-0.51-3.69-1.52c-0.9-1.02-1.35-2.42-1.35-4.2
			C109.78,641.54,110.29,640.05,111.31,639.01z"/>
		<path class="st2" d="M129.77,647.9c-0.83,0.86-2.03,1.29-3.61,1.29c-1.57,0-2.78-0.43-3.61-1.29c-1.12-1.05-1.67-2.57-1.67-4.54
			c0-2.02,0.56-3.53,1.67-4.54c0.83-0.86,2.03-1.29,3.61-1.29c1.57,0,2.78,0.43,3.61,1.29c1.11,1.01,1.67,2.53,1.67,4.54
			C131.44,645.33,130.89,646.84,129.77,647.9z M128.34,646.22c0.53-0.67,0.8-1.63,0.8-2.87c0-1.24-0.27-2.19-0.8-2.87
			c-0.53-0.68-1.26-1.01-2.17-1.01c-0.91,0-1.64,0.34-2.18,1.01c-0.54,0.67-0.81,1.63-0.81,2.87c0,1.24,0.27,2.2,0.81,2.87
			c0.54,0.67,1.27,1.01,2.18,1.01C127.08,647.23,127.8,646.89,128.34,646.22z"/>
		<path class="st2" d="M140.58,644.11c-0.64,0.54-1.57,0.81-2.76,0.81h-2.29v3.95h-2.29v-11.01h4.73c1.09,0,1.96,0.29,2.61,0.85
			c0.65,0.57,0.97,1.45,0.97,2.64C141.55,642.66,141.23,643.57,140.58,644.11z M138.83,640.13c-0.29-0.25-0.7-0.37-1.22-0.37h-2.07
			v3.25h2.07c0.52,0,0.93-0.13,1.22-0.4c0.29-0.26,0.44-0.68,0.44-1.26C139.26,640.79,139.12,640.38,138.83,640.13z"/>
		<path class="st2" d="M149.67,637.86h2.61l-3.68,6.89v4.12h-2.29v-4.11l-3.81-6.9h2.71l2.28,4.8L149.67,637.86z"/>
		<path class="st2" d="M160.64,638.15c0.41,0.17,0.75,0.43,1.03,0.77c0.23,0.28,0.42,0.59,0.55,0.93c0.14,0.34,0.2,0.72,0.2,1.16
			c0,0.52-0.13,1.04-0.4,1.54c-0.26,0.5-0.7,0.86-1.31,1.07c0.51,0.2,0.87,0.5,1.08,0.87c0.21,0.38,0.32,0.95,0.32,1.72v0.74
			c0,0.5,0.02,0.84,0.06,1.02c0.06,0.28,0.2,0.49,0.43,0.63v0.28h-2.54c-0.07-0.25-0.12-0.44-0.15-0.59
			c-0.06-0.31-0.09-0.62-0.1-0.95l-0.01-1.02c-0.01-0.7-0.13-1.17-0.36-1.41c-0.23-0.23-0.67-0.35-1.31-0.35h-2.24v4.32h-2.25
			v-11.01h5.27C159.65,637.88,160.23,637.97,160.64,638.15z M155.89,639.76v2.97h2.47c0.49,0,0.86-0.06,1.11-0.18
			c0.44-0.21,0.65-0.62,0.65-1.25c0-0.67-0.21-1.12-0.63-1.35c-0.24-0.13-0.59-0.19-1.06-0.19H155.89z"/>
		<path class="st2" d="M166.73,648.87h-2.29v-11.01h2.29V648.87z"/>
		<path class="st2" d="M176.28,641.31c-0.17-0.75-0.6-1.28-1.28-1.57c-0.38-0.16-0.8-0.25-1.26-0.25c-0.89,0-1.62,0.33-2.19,1
			c-0.57,0.67-0.86,1.67-0.86,3.01c0,1.35,0.31,2.3,0.93,2.86c0.62,0.56,1.32,0.84,2.11,0.84c0.77,0,1.41-0.22,1.9-0.66
			c0.49-0.44,0.8-1.02,0.91-1.73H174v-1.84h4.59v5.9h-1.52l-0.23-1.37c-0.44,0.52-0.84,0.88-1.2,1.1c-0.61,0.37-1.35,0.55-2.24,0.55
			c-1.46,0-2.65-0.5-3.58-1.51c-0.97-1.01-1.46-2.4-1.46-4.16c0-1.78,0.49-3.21,1.47-4.28c0.98-1.07,2.28-1.61,3.89-1.61
			c1.4,0,2.52,0.36,3.37,1.07c0.85,0.71,1.34,1.6,1.46,2.66H176.28z"/>
		<path class="st2" d="M180.76,648.87v-11.01h2.29v4.2h4.27v-4.2h2.29v11.01h-2.29v-4.91h-4.27v4.91H180.76z"/>
		<path class="st2" d="M199.82,637.86v1.95h-3.3v9.06h-2.32v-9.06h-3.3v-1.95H199.82z"/>
		<path class="st2" d="M213.88,647.9c-0.83,0.86-2.03,1.29-3.61,1.29c-1.57,0-2.78-0.43-3.61-1.29c-1.12-1.05-1.67-2.57-1.67-4.54
			c0-2.02,0.56-3.53,1.67-4.54c0.83-0.86,2.03-1.29,3.61-1.29c1.57,0,2.78,0.43,3.61,1.29c1.11,1.01,1.67,2.53,1.67,4.54
			C215.55,645.33,214.99,646.84,213.88,647.9z M212.45,646.22c0.53-0.67,0.8-1.63,0.8-2.87c0-1.24-0.27-2.19-0.8-2.87
			c-0.54-0.68-1.26-1.01-2.17-1.01c-0.91,0-1.64,0.34-2.18,1.01c-0.54,0.67-0.81,1.63-0.81,2.87c0,1.24,0.27,2.2,0.81,2.87
			c0.54,0.67,1.27,1.01,2.18,1.01C211.19,647.23,211.91,646.89,212.45,646.22z"/>
		<path class="st2" d="M217.3,637.88h7.84v1.93h-5.55v2.53h4.87v1.9h-4.87v4.63h-2.29V637.88z"/>
		<path class="st2" d="M238.89,637.86v1.95h-3.29v9.06h-2.32v-9.06h-3.3v-1.95H238.89z"/>
		<path class="st2" d="M240.22,648.87v-11.01h2.29v4.2h4.27v-4.2h2.29v11.01h-2.29v-4.91h-4.27v4.91H240.22z"/>
		<path class="st2" d="M259.41,639.81h-5.82v2.34h5.35v1.91h-5.35v2.83h6.09v1.98h-8.34v-11.01h8.07V639.81z"/>
		<path class="st2" d="M272.77,638.15c0.41,0.17,0.75,0.43,1.03,0.77c0.23,0.28,0.42,0.59,0.55,0.93c0.14,0.34,0.2,0.72,0.2,1.16
			c0,0.52-0.13,1.04-0.4,1.54c-0.26,0.5-0.7,0.86-1.31,1.07c0.51,0.2,0.87,0.5,1.08,0.87c0.21,0.38,0.32,0.95,0.32,1.72v0.74
			c0,0.5,0.02,0.84,0.06,1.02c0.06,0.28,0.2,0.49,0.43,0.63v0.28h-2.54c-0.07-0.25-0.12-0.44-0.15-0.59
			c-0.06-0.31-0.09-0.62-0.1-0.95l-0.02-1.02c-0.01-0.7-0.13-1.17-0.36-1.41c-0.23-0.23-0.67-0.35-1.31-0.35h-2.24v4.32h-2.25
			v-11.01h5.27C271.78,637.88,272.36,637.97,272.77,638.15z M268.02,639.76v2.97h2.47c0.49,0,0.86-0.06,1.11-0.18
			c0.43-0.21,0.65-0.62,0.65-1.25c0-0.67-0.21-1.12-0.63-1.35c-0.24-0.13-0.59-0.19-1.06-0.19H268.02z"/>
		<path class="st2" d="M284.9,639.81h-5.82v2.34h5.35v1.91h-5.35v2.83h6.09v1.98h-8.34v-11.01h8.07V639.81z"/>
		<path class="st2" d="M288.62,645.47c0.07,0.5,0.21,0.88,0.42,1.13c0.38,0.45,1.03,0.68,1.95,0.68c0.55,0,1-0.06,1.35-0.18
			c0.65-0.23,0.98-0.66,0.98-1.28c0-0.36-0.16-0.65-0.48-0.85c-0.32-0.19-0.83-0.37-1.52-0.51l-1.19-0.26
			c-1.17-0.26-1.97-0.54-2.41-0.84c-0.74-0.51-1.12-1.3-1.12-2.38c0-0.99,0.36-1.8,1.09-2.46c0.73-0.65,1.79-0.98,3.2-0.98
			c1.17,0,2.17,0.31,3,0.92c0.83,0.62,1.26,1.51,1.3,2.68h-2.21c-0.04-0.66-0.34-1.13-0.89-1.41c-0.37-0.18-0.82-0.28-1.37-0.28
			c-0.61,0-1.09,0.12-1.45,0.36c-0.36,0.24-0.54,0.57-0.54,1c0,0.39,0.18,0.69,0.54,0.88c0.23,0.13,0.72,0.28,1.46,0.46l1.93,0.45
			c0.85,0.2,1.48,0.47,1.9,0.8c0.66,0.52,0.98,1.27,0.98,2.25c0,1-0.39,1.84-1.17,2.5c-0.78,0.66-1.87,1-3.29,1
			c-1.45,0-2.59-0.33-3.42-0.98c-0.83-0.65-1.24-1.55-1.24-2.7H288.62z"/>
		<path class="st2" d="M304.55,644.11c-0.64,0.54-1.57,0.81-2.76,0.81h-2.29v3.95h-2.29v-11.01h4.73c1.09,0,1.96,0.29,2.61,0.85
			c0.65,0.57,0.97,1.45,0.97,2.64C305.52,642.66,305.2,643.57,304.55,644.11z M302.79,640.13c-0.29-0.25-0.7-0.37-1.22-0.37h-2.07
			v3.25h2.07c0.52,0,0.93-0.13,1.22-0.4c0.29-0.26,0.44-0.68,0.44-1.26C303.23,640.79,303.08,640.38,302.79,640.13z"/>
		<path class="st2" d="M315.5,639.81h-5.82v2.34h5.35v1.91h-5.35v2.83h6.09v1.98h-8.34v-11.01h8.07V639.81z"/>
		<path class="st2" d="M318.61,639.01c0.89-0.91,2.01-1.36,3.38-1.36c1.83,0,3.17,0.61,4.02,1.82c0.47,0.68,0.72,1.37,0.75,2.05
			h-2.3c-0.15-0.53-0.33-0.93-0.56-1.2c-0.41-0.48-1.02-0.72-1.82-0.72c-0.82,0-1.47,0.34-1.94,1.01c-0.47,0.67-0.71,1.63-0.71,2.87
			c0,1.24,0.25,2.16,0.75,2.78c0.5,0.62,1.13,0.92,1.9,0.92c0.79,0,1.39-0.26,1.81-0.79c0.23-0.28,0.42-0.71,0.57-1.27h2.29
			c-0.2,1.2-0.7,2.17-1.51,2.92c-0.81,0.75-1.85,1.13-3.11,1.13c-1.57,0-2.8-0.51-3.7-1.52c-0.9-1.02-1.35-2.42-1.35-4.2
			C317.08,641.54,317.58,640.05,318.61,639.01z"/>
		<path class="st2" d="M336.6,637.86v1.95h-3.29v9.06h-2.32v-9.06h-3.31v-1.95H336.6z"/>
		<path class="st2" d="M340.04,648.87h-2.29v-11.01h2.29V648.87z"/>
		<path class="st2" d="M348.62,637.86H351l-3.75,11.01h-2.17l-3.72-11.01h2.46l2.39,8.36L348.62,637.86z"/>
		<path class="st2" d="M360.53,639.81h-5.82v2.34h5.35v1.91h-5.35v2.83h6.09v1.98h-8.34v-11.01h8.07V639.81z"/>
		<path class="st2" d="M375.31,647.9c-0.83,0.86-2.03,1.29-3.61,1.29c-1.57,0-2.78-0.43-3.61-1.29c-1.12-1.05-1.67-2.57-1.67-4.54
			c0-2.02,0.56-3.53,1.67-4.54c0.83-0.86,2.03-1.29,3.61-1.29c1.57,0,2.78,0.43,3.61,1.29c1.11,1.01,1.67,2.53,1.67,4.54
			C376.97,645.33,376.42,646.84,375.31,647.9z M373.87,646.22c0.53-0.67,0.8-1.63,0.8-2.87c0-1.24-0.27-2.19-0.8-2.87
			c-0.53-0.68-1.26-1.01-2.17-1.01c-0.91,0-1.64,0.34-2.18,1.01c-0.54,0.67-0.81,1.63-0.81,2.87c0,1.24,0.27,2.2,0.81,2.87
			c0.54,0.67,1.27,1.01,2.18,1.01C372.61,647.23,373.34,646.89,373.87,646.22z"/>
		<path class="st2" d="M380.23,637.86l1.45,6.31l0.32,1.75l0.32-1.72l1.24-6.34h2.43l1.31,6.3l0.34,1.75l0.34-1.69l1.47-6.37h2.35
			l-3.09,11.01h-2.21l-1.33-6.44l-0.39-2.13l-0.39,2.13l-1.33,6.44h-2.14l-3.12-11.01H380.23z"/>
		<path class="st2" d="M393.12,637.86h2.41l4.38,7.68v-7.68h2.14v11.01h-2.3l-4.49-7.82v7.82h-2.14V637.86z"/>
		<path class="st2" d="M412.34,639.81h-5.82v2.34h5.35v1.91h-5.35v2.83h6.09v1.98h-8.34v-11.01h8.07V639.81z"/>
		<path class="st2" d="M421.45,638.15c0.41,0.17,0.75,0.43,1.03,0.77c0.23,0.28,0.42,0.59,0.55,0.93c0.14,0.34,0.2,0.72,0.2,1.16
			c0,0.52-0.13,1.04-0.4,1.54c-0.26,0.5-0.7,0.86-1.31,1.07c0.51,0.2,0.87,0.5,1.08,0.87c0.21,0.38,0.32,0.95,0.32,1.72v0.74
			c0,0.5,0.02,0.84,0.06,1.02c0.06,0.28,0.2,0.49,0.43,0.63v0.28h-2.54c-0.07-0.25-0.12-0.44-0.15-0.59
			c-0.06-0.31-0.09-0.62-0.1-0.95l-0.01-1.02c-0.01-0.7-0.13-1.17-0.36-1.41c-0.23-0.23-0.67-0.35-1.31-0.35h-2.24v4.32h-2.25
			v-11.01h5.27C420.46,637.88,421.04,637.97,421.45,638.15z M416.7,639.76v2.97h2.47c0.49,0,0.86-0.06,1.11-0.18
			c0.44-0.21,0.65-0.62,0.65-1.25c0-0.67-0.21-1.12-0.63-1.35c-0.23-0.13-0.59-0.19-1.06-0.19H416.7z"/>
		<path class="st2" d="M425.23,646.64h2.26v2.23h-2.26V646.64z"/>
		<path class="st2" d="M433.94,637.86h2.29v9.03h5.49v1.98h-7.78V637.86z"/>
		<path class="st2" d="M445.38,648.87h-2.29v-11.01h2.29V648.87z"/>
		<path class="st2" d="M448.58,639.01c0.89-0.91,2.01-1.36,3.38-1.36c1.83,0,3.17,0.61,4.02,1.82c0.47,0.68,0.72,1.37,0.75,2.05
			h-2.3c-0.15-0.53-0.33-0.93-0.56-1.2c-0.41-0.48-1.02-0.72-1.82-0.72c-0.82,0-1.47,0.34-1.94,1.01c-0.47,0.67-0.71,1.63-0.71,2.87
			c0,1.24,0.25,2.16,0.75,2.78c0.5,0.62,1.13,0.92,1.9,0.92c0.79,0,1.39-0.26,1.8-0.79c0.23-0.28,0.42-0.71,0.57-1.27h2.29
			c-0.2,1.2-0.7,2.17-1.51,2.92c-0.81,0.75-1.85,1.13-3.12,1.13c-1.57,0-2.8-0.51-3.7-1.52c-0.9-1.02-1.34-2.42-1.34-4.2
			C447.05,641.54,447.56,640.05,448.58,639.01z"/>
		<path class="st2" d="M466.71,639.81h-5.82v2.34h5.35v1.91h-5.35v2.83h6.09v1.98h-8.34v-11.01h8.07V639.81z"/>
		<path class="st2" d="M468.73,637.86h2.41l4.38,7.68v-7.68h2.14v11.01h-2.3l-4.49-7.82v7.82h-2.14V637.86z"/>
		<path class="st2" d="M481.47,645.47c0.07,0.5,0.21,0.88,0.42,1.13c0.38,0.45,1.03,0.68,1.96,0.68c0.55,0,1-0.06,1.35-0.18
			c0.65-0.23,0.98-0.66,0.98-1.28c0-0.36-0.16-0.65-0.48-0.85c-0.32-0.19-0.83-0.37-1.52-0.51l-1.19-0.26
			c-1.17-0.26-1.97-0.54-2.41-0.84c-0.74-0.51-1.11-1.3-1.11-2.38c0-0.99,0.36-1.8,1.09-2.46c0.73-0.65,1.79-0.98,3.2-0.98
			c1.17,0,2.17,0.31,3,0.92c0.83,0.62,1.26,1.51,1.3,2.68h-2.21c-0.04-0.66-0.33-1.13-0.89-1.41c-0.37-0.18-0.82-0.28-1.37-0.28
			c-0.61,0-1.09,0.12-1.45,0.36c-0.36,0.24-0.54,0.57-0.54,1c0,0.39,0.18,0.69,0.53,0.88c0.23,0.13,0.72,0.28,1.46,0.46l1.93,0.45
			c0.84,0.2,1.48,0.47,1.9,0.8c0.66,0.52,0.98,1.27,0.98,2.25c0,1-0.39,1.84-1.16,2.5c-0.78,0.66-1.88,1-3.29,1
			c-1.45,0-2.59-0.33-3.42-0.98c-0.83-0.65-1.24-1.55-1.24-2.7H481.47z"/>
		<path class="st2" d="M498.15,639.81h-5.82v2.34h5.35v1.91h-5.35v2.83h6.09v1.98h-8.34v-11.01h8.07V639.81z"/>
		<path class="st2" d="M500.77,641.05h2.26v2.23h-2.26V641.05z M500.77,646.64h2.26v2.23h-2.26V646.64z"/>
		<path class="st2" d="M510.6,639.01c0.89-0.91,2.01-1.36,3.38-1.36c1.83,0,3.17,0.61,4.02,1.82c0.47,0.68,0.72,1.37,0.75,2.05h-2.3
			c-0.15-0.53-0.33-0.93-0.56-1.2c-0.41-0.48-1.02-0.72-1.82-0.72c-0.82,0-1.47,0.34-1.94,1.01c-0.47,0.67-0.71,1.63-0.71,2.87
			c0,1.24,0.25,2.16,0.75,2.78c0.5,0.62,1.13,0.92,1.9,0.92c0.79,0,1.39-0.26,1.8-0.79c0.23-0.28,0.42-0.71,0.57-1.27h2.29
			c-0.2,1.2-0.7,2.17-1.51,2.92c-0.81,0.75-1.85,1.13-3.12,1.13c-1.57,0-2.8-0.51-3.69-1.52c-0.9-1.02-1.35-2.42-1.35-4.2
			C509.07,641.54,509.58,640.05,510.6,639.01z"/>
		<path class="st2" d="M521.64,639.01c0.89-0.91,2.01-1.36,3.38-1.36c1.83,0,3.17,0.61,4.02,1.82c0.47,0.68,0.72,1.37,0.75,2.05
			h-2.3c-0.15-0.53-0.33-0.93-0.56-1.2c-0.41-0.48-1.02-0.72-1.82-0.72c-0.82,0-1.47,0.34-1.94,1.01c-0.47,0.67-0.71,1.63-0.71,2.87
			c0,1.24,0.25,2.16,0.75,2.78c0.5,0.62,1.13,0.92,1.9,0.92c0.79,0,1.39-0.26,1.8-0.79c0.23-0.28,0.42-0.71,0.57-1.27h2.29
			c-0.2,1.2-0.7,2.17-1.51,2.92c-0.81,0.75-1.85,1.13-3.11,1.13c-1.57,0-2.8-0.51-3.7-1.52c-0.9-1.02-1.34-2.42-1.34-4.2
			C520.11,641.54,520.62,640.05,521.64,639.01z"/>
		<path class="st2" d="M537.21,645.56c0,0.43,0.07,0.79,0.21,1.08c0.26,0.52,0.73,0.79,1.41,0.79c0.42,0,0.78-0.14,1.09-0.43
			c0.31-0.29,0.47-0.7,0.47-1.24c0-0.71-0.29-1.19-0.86-1.43c-0.33-0.13-0.84-0.2-1.54-0.2v-1.52c0.69-0.01,1.17-0.08,1.44-0.2
			c0.47-0.21,0.7-0.63,0.7-1.27c0-0.41-0.12-0.75-0.36-1.01c-0.24-0.26-0.58-0.39-1.02-0.39c-0.5,0-0.87,0.16-1.1,0.48
			c-0.24,0.32-0.35,0.74-0.34,1.27h-1.99c0.02-0.54,0.11-1.05,0.28-1.53c0.17-0.42,0.45-0.81,0.82-1.17
			c0.28-0.25,0.61-0.45,0.99-0.58c0.38-0.13,0.85-0.2,1.41-0.2c1.03,0,1.87,0.27,2.5,0.8c0.63,0.54,0.95,1.26,0.95,2.16
			c0,0.64-0.19,1.18-0.57,1.62c-0.24,0.27-0.49,0.46-0.75,0.56c0.19,0,0.47,0.17,0.84,0.5c0.54,0.5,0.82,1.19,0.82,2.06
			c0,0.92-0.32,1.72-0.95,2.42c-0.63,0.7-1.57,1.04-2.82,1.04c-1.53,0-2.6-0.5-3.19-1.5c-0.31-0.53-0.49-1.23-0.52-2.09H537.21z"/>
		<path class="st2" d="M544.18,646.64h2.26v2.23h-2.26V646.64z"/>
		<path class="st2" d="M554.58,639.43c0.55,0.97,0.83,2.35,0.83,4.14c0,1.79-0.28,3.17-0.83,4.13c-0.56,0.96-1.52,1.45-2.9,1.45
			c-1.38,0-2.35-0.48-2.9-1.45c-0.56-0.97-0.83-2.34-0.83-4.13c0-1.79,0.28-3.17,0.83-4.14c0.55-0.97,1.52-1.46,2.9-1.46
			C553.06,637.97,554.02,638.46,554.58,639.43z M550.42,646.43c0.2,0.66,0.62,0.99,1.25,0.99c0.63,0,1.05-0.33,1.24-0.99
			c0.2-0.66,0.29-1.61,0.29-2.86c0-1.31-0.1-2.27-0.29-2.9c-0.2-0.63-0.61-0.94-1.24-0.94c-0.63,0-1.05,0.31-1.25,0.94
			c-0.2,0.63-0.3,1.6-0.3,2.9C550.12,644.81,550.22,645.77,550.42,646.43z"/>
		<path class="st2" d="M561.34,637.86h2.41l4.38,7.68v-7.68h2.14v11.01h-2.3l-4.49-7.82v7.82h-2.14V637.86z"/>
		<path class="st2" d="M580.91,647.9c-0.83,0.86-2.03,1.29-3.61,1.29c-1.57,0-2.78-0.43-3.61-1.29c-1.12-1.05-1.67-2.57-1.67-4.54
			c0-2.02,0.56-3.53,1.67-4.54c0.83-0.86,2.03-1.29,3.61-1.29c1.57,0,2.78,0.43,3.61,1.29c1.11,1.01,1.66,2.53,1.66,4.54
			C582.57,645.33,582.02,646.84,580.91,647.9z M579.47,646.22c0.53-0.67,0.8-1.63,0.8-2.87c0-1.24-0.27-2.19-0.8-2.87
			c-0.53-0.68-1.26-1.01-2.17-1.01c-0.91,0-1.64,0.34-2.18,1.01c-0.54,0.67-0.81,1.63-0.81,2.87c0,1.24,0.27,2.2,0.81,2.87
			c0.54,0.67,1.27,1.01,2.18,1.01C578.21,647.23,578.94,646.89,579.47,646.22z"/>
		<path class="st2" d="M584.28,637.86h2.41l4.38,7.68v-7.68h2.14v11.01h-2.3l-4.49-7.82v7.82h-2.14V637.86z"/>
		<path class="st2" d="M594.55,643.6h4.16v2.02h-4.16V643.6z"/>
		<path class="st2" d="M601.51,639.01c0.89-0.91,2.01-1.36,3.38-1.36c1.83,0,3.17,0.61,4.02,1.82c0.47,0.68,0.72,1.37,0.75,2.05
			h-2.3c-0.15-0.53-0.33-0.93-0.56-1.2c-0.41-0.48-1.02-0.72-1.82-0.72c-0.82,0-1.47,0.34-1.94,1.01c-0.47,0.67-0.71,1.63-0.71,2.87
			c0,1.24,0.25,2.16,0.75,2.78c0.5,0.62,1.13,0.92,1.9,0.92c0.79,0,1.39-0.26,1.8-0.79c0.23-0.28,0.42-0.71,0.57-1.27h2.29
			c-0.2,1.2-0.7,2.17-1.51,2.92c-0.81,0.75-1.85,1.13-3.12,1.13c-1.57,0-2.8-0.51-3.69-1.52c-0.9-1.02-1.34-2.42-1.34-4.2
			C599.98,641.54,600.49,640.05,601.51,639.01z"/>
		<path class="st2" d="M619.98,647.9c-0.83,0.86-2.03,1.29-3.61,1.29c-1.57,0-2.78-0.43-3.61-1.29c-1.12-1.05-1.67-2.57-1.67-4.54
			c0-2.02,0.56-3.53,1.67-4.54c0.83-0.86,2.03-1.29,3.61-1.29c1.57,0,2.78,0.43,3.61,1.29c1.11,1.01,1.67,2.53,1.67,4.54
			C621.64,645.33,621.09,646.84,619.98,647.9z M618.54,646.22c0.54-0.67,0.8-1.63,0.8-2.87c0-1.24-0.27-2.19-0.8-2.87
			c-0.54-0.68-1.26-1.01-2.17-1.01c-0.91,0-1.64,0.34-2.18,1.01c-0.54,0.67-0.81,1.63-0.81,2.87c0,1.24,0.27,2.2,0.81,2.87
			c0.54,0.67,1.27,1.01,2.18,1.01C617.28,647.23,618.01,646.89,618.54,646.22z"/>
		<path class="st2" d="M630.69,637.86H634v11.01h-2.14v-7.45c0-0.21,0-0.51,0.01-0.9c0-0.39,0.01-0.68,0.01-0.89l-2.09,9.24h-2.23
			l-2.07-9.24c0,0.21,0,0.51,0.01,0.89c0,0.39,0.01,0.69,0.01,0.9v7.45h-2.14v-11.01h3.34l2,8.66L630.69,637.86z"/>
		<path class="st2" d="M643.43,637.86h3.31v11.01h-2.14v-7.45c0-0.21,0-0.51,0.01-0.9c0-0.39,0.01-0.68,0.01-0.89l-2.08,9.24h-2.24
			l-2.07-9.24c0,0.21,0,0.51,0.01,0.89c0,0.39,0.01,0.69,0.01,0.9v7.45h-2.14v-11.01h3.34l2,8.66L643.43,637.86z"/>
		<path class="st2" d="M657.01,639.81h-5.82v2.34h5.35v1.91h-5.35v2.83h6.09v1.98h-8.34v-11.01h8.07V639.81z"/>
		<path class="st2" d="M666.12,638.15c0.41,0.17,0.75,0.43,1.03,0.77c0.23,0.28,0.42,0.59,0.55,0.93c0.14,0.34,0.2,0.72,0.2,1.16
			c0,0.52-0.13,1.04-0.4,1.54c-0.26,0.5-0.7,0.86-1.31,1.07c0.51,0.2,0.87,0.5,1.08,0.87c0.21,0.38,0.32,0.95,0.32,1.72v0.74
			c0,0.5,0.02,0.84,0.06,1.02c0.06,0.28,0.2,0.49,0.43,0.63v0.28h-2.54c-0.07-0.25-0.12-0.44-0.15-0.59
			c-0.06-0.31-0.09-0.62-0.1-0.95l-0.01-1.02c-0.01-0.7-0.13-1.17-0.36-1.41c-0.23-0.23-0.67-0.35-1.31-0.35h-2.24v4.32h-2.25
			v-11.01h5.27C665.13,637.88,665.71,637.97,666.12,638.15z M661.37,639.76v2.97h2.47c0.49,0,0.86-0.06,1.1-0.18
			c0.44-0.21,0.65-0.62,0.65-1.25c0-0.67-0.21-1.12-0.63-1.35c-0.24-0.13-0.59-0.19-1.06-0.19H661.37z"/>
		<path class="st2" d="M671.16,639.01c0.89-0.91,2.02-1.36,3.38-1.36c1.83,0,3.17,0.61,4.02,1.82c0.47,0.68,0.72,1.37,0.75,2.05
			h-2.3c-0.15-0.53-0.33-0.93-0.56-1.2c-0.41-0.48-1.02-0.72-1.82-0.72c-0.82,0-1.47,0.34-1.94,1.01c-0.47,0.67-0.71,1.63-0.71,2.87
			c0,1.24,0.25,2.16,0.75,2.78c0.5,0.62,1.13,0.92,1.9,0.92c0.79,0,1.39-0.26,1.8-0.79c0.23-0.28,0.42-0.71,0.57-1.27h2.29
			c-0.2,1.2-0.7,2.17-1.51,2.92c-0.81,0.75-1.85,1.13-3.12,1.13c-1.57,0-2.8-0.51-3.7-1.52c-0.9-1.02-1.34-2.42-1.34-4.2
			C669.63,641.54,670.14,640.05,671.16,639.01z"/>
		<path class="st2" d="M683.25,648.87h-2.29v-11.01h2.29V648.87z"/>
		<path class="st2" d="M688.54,637.86h2.61l3.89,11.01h-2.49l-0.72-2.26h-4.05l-0.75,2.26h-2.41L688.54,637.86z M688.4,644.71h2.82
			l-1.39-4.33L688.4,644.71z"/>
		<path class="st2" d="M696.44,637.86h2.29v9.03h5.5v1.98h-7.79V637.86z"/>
		<path class="st2" d="M717.16,644.11c-0.65,0.54-1.57,0.81-2.76,0.81h-2.29v3.95h-2.29v-11.01h4.73c1.09,0,1.96,0.29,2.61,0.85
			c0.65,0.57,0.97,1.45,0.97,2.64C718.12,642.66,717.8,643.57,717.16,644.11z M715.4,640.13c-0.29-0.25-0.7-0.37-1.22-0.37h-2.07
			v3.25h2.07c0.52,0,0.93-0.13,1.22-0.4c0.29-0.26,0.44-0.68,0.44-1.26C715.84,640.79,715.69,640.38,715.4,640.13z"/>
		<path class="st2" d="M728.1,639.81h-5.82v2.34h5.35v1.91h-5.35v2.83h6.09v1.98h-8.34v-11.01h8.07V639.81z"/>
		<path class="st2" d="M737.21,638.15c0.41,0.17,0.75,0.43,1.03,0.77c0.23,0.28,0.42,0.59,0.55,0.93c0.13,0.34,0.2,0.72,0.2,1.16
			c0,0.52-0.13,1.04-0.4,1.54c-0.26,0.5-0.7,0.86-1.31,1.07c0.51,0.2,0.87,0.5,1.08,0.87c0.21,0.38,0.32,0.95,0.32,1.72v0.74
			c0,0.5,0.02,0.84,0.06,1.02c0.06,0.28,0.2,0.49,0.43,0.63v0.28h-2.54c-0.07-0.25-0.12-0.44-0.15-0.59
			c-0.06-0.31-0.09-0.62-0.1-0.95l-0.02-1.02c-0.01-0.7-0.13-1.17-0.36-1.41c-0.23-0.23-0.67-0.35-1.31-0.35h-2.24v4.32h-2.25
			v-11.01h5.26C736.23,637.88,736.81,637.97,737.21,638.15z M732.46,639.76v2.97h2.47c0.49,0,0.86-0.06,1.11-0.18
			c0.43-0.21,0.65-0.62,0.65-1.25c0-0.67-0.21-1.12-0.63-1.35c-0.24-0.13-0.59-0.19-1.06-0.19H732.46z"/>
		<path class="st2" d="M742.86,645.47c0.07,0.5,0.21,0.88,0.42,1.13c0.38,0.45,1.03,0.68,1.95,0.68c0.55,0,1-0.06,1.35-0.18
			c0.65-0.23,0.98-0.66,0.98-1.28c0-0.36-0.16-0.65-0.48-0.85c-0.32-0.19-0.83-0.37-1.52-0.51l-1.19-0.26
			c-1.17-0.26-1.97-0.54-2.41-0.84c-0.74-0.51-1.12-1.3-1.12-2.38c0-0.99,0.36-1.8,1.09-2.46c0.72-0.65,1.79-0.98,3.2-0.98
			c1.17,0,2.17,0.31,3,0.92c0.83,0.62,1.26,1.51,1.3,2.68h-2.21c-0.04-0.66-0.34-1.13-0.89-1.41c-0.37-0.18-0.82-0.28-1.37-0.28
			c-0.61,0-1.09,0.12-1.45,0.36c-0.36,0.24-0.54,0.57-0.54,1c0,0.39,0.18,0.69,0.54,0.88c0.23,0.13,0.72,0.28,1.46,0.46l1.93,0.45
			c0.85,0.2,1.48,0.47,1.9,0.8c0.66,0.52,0.99,1.27,0.99,2.25c0,1-0.39,1.84-1.17,2.5c-0.78,0.66-1.87,1-3.29,1
			c-1.45,0-2.59-0.33-3.42-0.98c-0.83-0.65-1.24-1.55-1.24-2.7H742.86z"/>
		<path class="st2" d="M759.88,647.9c-0.83,0.86-2.03,1.29-3.61,1.29c-1.57,0-2.78-0.43-3.61-1.29c-1.11-1.05-1.67-2.57-1.67-4.54
			c0-2.02,0.56-3.53,1.67-4.54c0.83-0.86,2.03-1.29,3.61-1.29c1.57,0,2.77,0.43,3.61,1.29c1.11,1.01,1.67,2.53,1.67,4.54
			C761.54,645.33,760.99,646.84,759.88,647.9z M758.44,646.22c0.54-0.67,0.8-1.63,0.8-2.87c0-1.24-0.27-2.19-0.8-2.87
			c-0.53-0.68-1.26-1.01-2.17-1.01c-0.91,0-1.64,0.34-2.18,1.01c-0.54,0.67-0.81,1.63-0.81,2.87c0,1.24,0.27,2.2,0.81,2.87
			c0.54,0.67,1.27,1.01,2.18,1.01C757.19,647.23,757.91,646.89,758.44,646.22z"/>
		<path class="st2" d="M763.25,637.86h2.41l4.38,7.68v-7.68h2.14v11.01h-2.3l-4.49-7.82v7.82h-2.14V637.86z"/>
		<path class="st2" d="M777.48,637.86h2.61l3.89,11.01h-2.49l-0.73-2.26h-4.05l-0.75,2.26h-2.41L777.48,637.86z M777.33,644.71h2.82
			l-1.39-4.33L777.33,644.71z"/>
		<path class="st2" d="M785.38,637.86h2.29v9.03h5.5v1.98h-7.78V637.86z"/>
		<path class="st2" d="M798.7,637.86h2.34v6.76c0,0.76,0.09,1.31,0.27,1.66c0.28,0.62,0.88,0.92,1.82,0.92
			c0.93,0,1.53-0.31,1.81-0.92c0.18-0.35,0.27-0.9,0.27-1.66v-6.76h2.34v6.76c0,1.17-0.18,2.08-0.54,2.73
			c-0.68,1.2-1.97,1.79-3.87,1.79c-1.91,0-3.2-0.6-3.88-1.79c-0.36-0.65-0.54-1.56-0.54-2.73V637.86z"/>
		<path class="st2" d="M811.4,645.47c0.07,0.5,0.21,0.88,0.42,1.13c0.38,0.45,1.03,0.68,1.95,0.68c0.55,0,1-0.06,1.35-0.18
			c0.65-0.23,0.98-0.66,0.98-1.28c0-0.36-0.16-0.65-0.48-0.85c-0.32-0.19-0.83-0.37-1.52-0.51l-1.19-0.26
			c-1.17-0.26-1.97-0.54-2.41-0.84c-0.74-0.51-1.11-1.3-1.11-2.38c0-0.99,0.36-1.8,1.09-2.46c0.73-0.65,1.79-0.98,3.2-0.98
			c1.17,0,2.17,0.31,3,0.92c0.83,0.62,1.26,1.51,1.3,2.68h-2.21c-0.04-0.66-0.34-1.13-0.89-1.41c-0.37-0.18-0.82-0.28-1.37-0.28
			c-0.61,0-1.09,0.12-1.45,0.36c-0.36,0.24-0.54,0.57-0.54,1c0,0.39,0.18,0.69,0.54,0.88c0.23,0.13,0.72,0.28,1.46,0.46l1.93,0.45
			c0.84,0.2,1.48,0.47,1.9,0.8c0.66,0.52,0.99,1.27,0.99,2.25c0,1-0.39,1.84-1.17,2.5c-0.78,0.66-1.87,1-3.29,1
			c-1.45,0-2.59-0.33-3.42-0.98c-0.83-0.65-1.25-1.55-1.25-2.7H811.4z"/>
		<path class="st2" d="M828.09,639.81h-5.82v2.34h5.35v1.91h-5.35v2.83h6.09v1.98h-8.34v-11.01h8.07V639.81z"/>
		<path class="st2" d="M829.93,646.64h2.26v2.23h-2.26V646.64z"/>
	</g>
</g>
<g id="Vector_Logo">
	<g>
		<path class="st4" d="M239.87,328.87c80.9-4.35,164.99-44.08,199.5-117.73c21.75-46.1,51.61-77.71,88.15-90.47
			c-49.29,11.89-75.1,26.39-98.87,49c-35.37,33.63-26.68,43.49-72.78,93.37C310.91,309.44,255.24,323.65,239.87,328.87
			L239.87,328.87z"/>
		<path class="st5" d="M451.25,345.98c45.82-24.07,72.2-43.21,95.4-82.35c22.61-38.57,16.23-85.83,46.1-121.79
			c-18.27,65.82,13.34,96.85-27.25,154.55C526.36,352.07,451.25,345.98,451.25,345.98L451.25,345.98z"/>
		<path class="st6" d="M672.21,17.74c2.03,0,3.19,1.74,3.19,3.48c0,2.03-1.16,3.48-3.19,3.48v26.96c0.58-2.32,0.87-4.64,1.16-6.96
			c3.77-25.81,9.57-35.38,17.39-42.34c-6.66,0.58-13.63,4.64-18.55,9.86V17.74L672.21,17.74z M672.21,24.7
			c-2.03,0-3.48-1.45-3.48-3.48c0-1.74,1.45-3.48,3.48-3.48v-5.51c-3.48,3.19-6.09,6.96-7.83,10.44c-5.8,0-14.21,4.64-17.4,14.21
			c-1.74,5.8-5.8,8.12-5.8,8.12s10.15-1.16,13.34-10.15c1.74-5.51,5.8-9.28,8.99-10.15c-8.12,15.66-5.51,42.62-48.14,66.4
			c-54.51,27.25-111.34,27.84-144.69,88.73c-14.79,27.55-26.39,61.18-52.19,89.02C344.26,349.46,239,378.46,156.65,389.19
			c105.25,1.45,236.61-22.04,327.36-86.7c52.19-37.69,60.89-78,77.13-125.84c20.01-58.29,94.24-56.25,111.06-124.98V24.7
			L672.21,24.7z"/>
		<path class="st7" d="M71.11,492.7c-0.29,14.79,16.82,24.36,35.66,24.64c18.85,0.29,26.97-7.24,29.58-17.39
			c8.7-35.09-77.42-38.27-57.7-80.62c11.02-22.91,45.82-19.42,60.02-13.62c14.5,5.8,14.21,14.21,13.63,21.46
			c-3.77-13.05-21.75-19.72-43.2-15.95c-26.39,4.35-22.91,29.28,9.86,44.08c17.4,7.83,39.73,18.85,37.41,40.3
			c-3.77,35.37-61.76,42.92-82.06,20C70.24,511.26,68.21,503.14,71.11,492.7L71.11,492.7z"/>
		<path class="st7" d="M172.89,435H190c2.61,2.32,2.61,6.96,2.61,9.57c4.35-4.93,8.12-9.28,17.4-10.45
			c8.99-0.87,13.92,4.64,15.66,6.96c-11.02-4.06-22.04-2.32-31.61,20.01c-3.48,8.41-5.8,24.93-6.38,42.62
			c-0.87,13.34,1.16,19.14,4.35,22.04h-17.4c-0.58,0-4.64-14.8-1.45-36.83c3.19-21.75,3.19-24.94,3.48-34.22
			C176.66,442.82,176.95,440.5,172.89,435L172.89,435z"/>
		<path class="st8" d="M409.79,435h16.82c2.61,2.32,3.19,9.86,3.19,17.11c4.64-8.7,17.11-20.58,39.15-19.43
			c22.04,0.58,31.32,18.56,29,33.06c-2.61,15.08-5.8,53.06,2.03,60.02h-15.08c-4.35-4.35-4.35-13.92-4.06-29.58
			c0.58-15.65,7.83-36.82,0.29-45.52c-10.73-12.18-43.78-9.57-51.32,13.33c-5.22,15.66-4.93,22.04-5.51,39.73
			c-0.87,13.34,1.16,19.14,4.35,22.04h-17.4c-0.58,0-4.64-14.8-1.16-36.83C411.82,476.75,417.91,446.02,409.79,435L409.79,435z"/>
		<path class="st8" d="M687.28,435h17.11c2.61,2.32,2.9,9.86,2.9,17.11c4.93-8.7,17.4-20.58,39.44-19.43
			c21.74,0.58,31.31,18.56,28.7,33.06c-2.32,15.08-6.09,53.06,2.03,60.02h-15.08c-4.06-4.35-4.06-13.92-3.77-29.58
			c0.29-15.65,7.83-36.82,0-45.52c-11.02-12.18-43.5-9.57-51.32,13.33c-5.22,15.66-4.64,22.04-5.22,39.73
			c-0.87,13.34,1.16,19.14,4.35,22.04h-17.69c-0.29,0-4.35-14.8-1.45-36.83C689.31,476.75,695.11,446.02,687.28,435L687.28,435z"/>
		<path class="st7" d="M232.91,435c5.51,7.54,4.35,15.95,4.35,15.95s-4.64,34.79-5.22,48.71c-0.87,13.33-0.29,20.88,2.61,26.1h16.53
			c-4.35-4.93-3.48-17.11-3.19-26.97c0.87-15.37,2.61-29.87,4.35-43.78C254.08,439.35,241.32,436.44,232.91,435L232.91,435z"/>
		<path class="st7" d="M241.32,403.1c5.51,0,10.44,4.35,10.44,9.86c0,5.8-4.93,10.15-10.44,10.15c-5.22,0-9.57-4.35-9.57-10.15
			C231.75,407.45,236.1,403.1,241.32,403.1L241.32,403.1z"/>
		<path class="st8" d="M324.83,449.49c0,0,8.12-15.65,34.22-16.82c26.1-1.45,31.9,6.09,35.96,13.34c4.35,7.54-2.61,32.48-3.19,47.84
			c-0.58,15.37-0.58,26.68,3.48,31.9h-16.53c-1.74-6.1-2.32-13.92-2.32-22.33c0-8.7,1.45-26.68,2.32-34.22
			c-2.32,2.9-11.6,7.25-22.62,10.44c-11.6,3.48-34.8,13.05-27.84,29.58c3.77,9.28,13.92,10.73,23.48,8.41
			c7.54-1.74,14.5-5.8,18.27-9.56c-0.87,1.45-2.03,3.19-3.19,4.64c-4.93,5.22-13.05,10.44-25.52,13.05
			c-15.37,3.19-26.39-1.16-40.02-2.04c-13.63-0.57-29.29,2.04-29.29,2.04s-3.77-6.67-2.9-23.78c1.16-16.82,4.64-37.99,4.64-56.55
			c0.58-17.4,0.87-33.92-3.48-42.33h16.53c1.16,4.06,3.77,17.69,2.9,44.65c-1.16,26.96-5.8,44.36-4.06,64.96
			c33.06-1.75,32.77,8.41,46.68,8.98c-3.77-1.16-7.25-2.89-9.86-6.38c-7.83-8.7-9.86-22.03,0.29-31.6
			c10.44-9.86,55.96-12.47,57.12-27.25C381.37,435.58,346.58,435.29,324.83,449.49L324.83,449.49z"/>
		<path class="st8" d="M602.61,449.49c0,0,8.12-15.65,34.51-16.82c26.09-1.45,31.6,6.09,35.95,13.34c4.06,7.54-2.9,32.48-3.48,47.84
			c-0.58,15.37-0.29,26.68,3.48,31.9h-16.24c-1.74-6.1-2.32-13.92-2.32-22.33c0-8.7,1.45-26.68,2.32-34.22
			c-2.61,2.9-11.6,7.54-22.91,10.73c-11.31,3.48-34.51,11.31-27.55,29.28c6.67,17.98,34.51,6.09,41.18-0.57
			c-8.41,15.36-36.83,26.96-51.03,10.72c-7.54-8.69-8.41-24.06,5.51-35.66c13.34-11.59,54.51-12.47,55.96-27.25
			C659.45,435.58,624.65,435.29,602.61,449.49L602.61,449.49z"/>
		<path class="st8" d="M594.78,432.97c-24.93,7.54-32.47,22.04-49.29,39.15c15.37,14.79,22.91,44.36,44.07,53.64h-18.27
			c-22.03-13.92-26.96-42.05-41.46-53.07c-1.45,12.76-2.9,27.26-2.9,33.35c0,9.56,0.58,16.53,3.77,19.72h-16.82
			c-3.19-4.93-3.19-13.92-2.61-24.94c1.16-17.69,3.48-39.43,3.77-49c0.29-14.5,1.16-44.07-2.9-48.71h16.82
			c3.19,17.69,2.32,40.89,2.03,50.74c0,3.48-0.58,9.57-1.16,16.82C547.81,456.75,554.77,434.12,594.78,432.97L594.78,432.97z"/>
		<path class="st7" d="M501.99,583.75c0,4.06,4.64,6.96,10.44,7.25c5.51,0,7.82-2.03,8.41-5.22c2.61-9.86-22.62-10.73-16.82-22.61
			c3.19-6.96,13.34-5.8,17.4-4.06c4.64,1.74,4.64,4.06,4.06,6.09c-0.87-3.77-6.38-6.09-12.47-4.35c-7.83,2.03-4.93,8.12,3.77,11.89
			c4.64,2.04,10.44,5.8,9.86,11.89c-1.16,10.15-17.69,12.18-23.78,5.51C501.99,588.97,500.83,586.94,501.99,583.75L501.99,583.75z"
			/>
		<path class="st7" d="M377.89,558.81h6.38c0.87,0.87,0.87,2.61,0.87,3.77c1.74-2.03,3.19-3.77,6.67-4.06
			c3.19-0.58,5.22,1.45,5.51,2.61c-4.06-1.74-8.12-1.16-11.89,7.54c-1.16,2.9-2.03,9.28-2.32,16.24c-0.29,4.92,0.87,6.95,1.74,8.12
			h-6.67c0,0-1.74-5.51-0.29-13.92c1.16-8.12,0.87-9.56,1.16-13.04C379.05,561.71,379.05,560.84,377.89,558.81L377.89,558.81z"/>
		<path class="st7" d="M430.09,558.81h6.38c0.58,0.87,0.87,3.77,0.87,6.38c1.74-3.48,6.67-7.83,15.08-7.54
			c8.12,0.28,11.89,7.24,10.73,12.47c-0.58,5.8-2.32,20,0.87,22.91h-5.8c-1.45-1.74-1.45-5.22-1.45-11.31
			c0.29-5.8,3.19-13.91,0-17.11c-4.06-4.64-16.24-3.48-19.43,4.93c-2.03,6.09-1.45,8.41-2.03,15.37c-0.29,4.92,0.58,6.95,1.74,8.12
			h-6.66c0,0-1.74-5.51-0.29-13.92C430.67,574.18,432.7,562.87,430.09,558.81L430.09,558.81z"/>
		<path class="st7" d="M363.4,558.81c2.32,2.61,1.74,6.09,1.74,6.09s-1.74,13.05-2.03,18.27c-0.29,4.92-0.29,7.83,1.16,9.86h6.38
			c-1.74-1.74-1.74-6.38-1.45-10.15c0.58-5.8,1.16-11.31,1.74-16.82C371.8,560.55,366.87,559.1,363.4,558.81L363.4,558.81z"/>
		<path class="st7" d="M415.3,558.81c2.03,2.61,1.74,6.09,1.74,6.09s-1.74,13.05-2.03,18.27c-0.29,4.92-0.29,7.83,1.16,9.86h6.09
			c-1.74-1.74-1.45-6.38-1.16-10.15c0.29-5.8,1.16-11.31,1.45-16.82C423.13,560.55,418.49,559.1,415.3,558.81L415.3,558.81z"/>
		<path class="st7" d="M366.87,546.64c2.03,0,3.77,1.45,3.77,3.48s-1.74,3.77-3.77,3.77s-3.77-1.74-3.77-3.77
			S364.85,546.64,366.87,546.64L366.87,546.64z"/>
		<path class="st7" d="M418.49,546.64c2.32,0,4.06,1.45,4.06,3.48s-1.74,3.77-4.06,3.77c-2.03,0-3.77-1.74-3.77-3.77
			S416.46,546.64,418.49,546.64L418.49,546.64z"/>
		<path class="st7" d="M407.18,546.64c1.45,6.67,1.16,15.37,1.16,19.14c-0.29,3.77-1.74,16.23-1.74,19.71c0,3.78,0.29,6.1,1.45,7.54
			h-6.67c-0.87-1.74-0.87-5.22-0.58-9.57c0.29-6.38,1.16-14.79,1.45-18.26c0-5.51,0.29-17.11-1.45-18.56H407.18L407.18,546.64z"/>
		<path class="st7" d="M319.32,593.03h6.96c-0.29-1.45,0.87-10.15,4.93-15.37c4.64-4.93,10.73-3.77,13.34-2.61
			c-1.16-2.32-5.22-4.92-10.73-3.48c2.03-6.67,4.93-8.7,5.22-20.29c4.35,7.83,8.12,36.25,14.21,41.75h6.96
			c-8.41-8.41-9.57-34.22-17.4-46.39h-6.67C337.01,559.39,320.48,578.82,319.32,593.03L319.32,593.03z"/>
		<path class="st7" d="M496.49,586.94c-1.74,1.74-3.77,6.67-12.47,6.96v-3.19C488.66,591.29,492.72,589.55,496.49,586.94
			L496.49,586.94L496.49,586.94z M484.02,557.94c1.16-0.28,2.32-0.28,2.91-0.28c4.93,0,13.04,3.48,10.44,11.01
			c-1.16,4.93-7.25,5.51-13.34,8.7v-2.6c1.45-0.87,2.91-1.46,4.35-2.61c4.06-2.61,5.51-6.09,3.77-8.41
			c-2.03-2.61-5.22-2.9-8.12-2.03V557.94L484.02,557.94z M484.02,593.9c-0.58,0-0.87,0-1.16,0c-7.54-0.29-12.76-6.96-13.34-15.95
			v-2.61c0-1.74,0.58-3.48,0.87-5.21c2.61-9.28,8.7-11.6,13.63-12.18v3.78c-2.03,1.16-4.64,2.89-6.09,5.51
			c-2.61,3.77-3.19,8.7-2.03,13.34c0.87-2.61,4.64-4.35,8.12-5.8v2.6c-2.61,1.46-4.93,3.19-6.96,5.51
			c-0.87,1.16,1.16,6.09,5.22,6.95c0.58,0.29,0.87,0.29,1.74,0.87V593.9L484.02,593.9z"/>
	</g>
</g>
</svg>
